if (_typeface_js && _typeface_js.loadFace) _typeface_js.loadFace({"glyphs":{"⌐":{"x_min":76,"x_max":732.515625,"ha":709,"o":"m 76 288 l 76 699 l 732 699 l 732 585 l 191 585 l 191 288 l 76 288 "},"¦":{"x_min":127,"x_max":233,"ha":276,"o":"m 233 1011 l 233 475 l 127 475 l 127 1011 l 233 1011 m 233 244 l 233 -292 l 127 -292 l 127 244 l 233 244 "},"Ž":{"x_min":8.140625,"x_max":818.609375,"ha":796,"o":"m 568 797 q 676 941 629 876 l 45 941 l 45 1089 l 817 1090 l 818 940 l 565 607 l 545 580 l 395 579 q 568 797 492 699 m 568 797 q 676 941 629 876 l 45 941 l 45 1089 l 817 1090 l 818 940 l 565 607 l 545 580 l 395 581 l 309 470 l 464 474 l 169 87 l 794 87 l 794 -29 l 8 -29 l 8 92 l 308 472 l 395 581 q 568 797 492 699 m 545 580 l 462 472 l 308 472 l 395 581 l 545 580 m 310 472 l 396 580 l 543 580 l 463 472 l 310 472 "},"Á":{"x_min":-2.03125,"x_max":976.640625,"ha":918,"o":"m 513 1221 q 590 1179 549 1221 q 608 1130 608 1145 l 608 1102 q 557 1026 598 1053 q 498 1013 529 1013 q 402 1086 434 1013 l 398 1108 q 489 1221 398 1198 l 513 1221 m 499 977 q 667 939 569 975 q 906 731 829 872 q 963 588 963 634 q 976 493 972 556 q 921 283 976 417 q 809 132 888 210 q 649 37 713 53 q 556 6 634 27 q 519 0 536 0 l 493 0 q 90 196 235 0 q -2 491 -2 328 q 94 775 -2 629 q 181 870 126 818 q 499 977 315 977 m 440 948 l 440 888 q 366 868 440 880 q 157 707 224 817 q 90 486 90 604 q 174 243 90 356 q 280 148 238 169 q 404 101 328 119 q 437 95 404 98 l 440 92 l 440 42 l 545 42 l 545 97 q 563 104 545 103 l 563 101 q 687 150 618 115 q 881 501 881 282 q 756 786 881 659 q 628 864 691 841 l 545 884 l 545 948 l 440 948 m 453 935 l 532 935 l 537 930 l 537 57 l 532 53 l 453 53 l 448 57 l 448 930 l 453 935 m 281 1055 l 371 1245 l 531 1245 l 382 1055 l 281 1055 "},"е":{"x_min":67.828125,"x_max":691.109375,"ha":746,"o":"m 99 984 q 281 817 215 925 l 400 817 l 400 714 l 322 714 q 366 510 363 611 q 198 387 247 464 q 190 716 212 605 l 69 716 l 69 819 l 172 819 q 99 984 164 870 m 435 495 q 616 422 541 495 q 691 247 691 349 q 616 72 691 145 q 435 0 541 0 q 254 72 329 0 q 179 247 179 145 q 254 422 179 349 q 435 495 329 495 m 435 368 q 346 334 382 368 q 311 247 311 301 q 344 160 311 191 q 435 128 378 128 q 523 161 487 128 q 559 247 559 193 q 524 336 559 303 q 435 368 489 368 m 67 1220 l 678 1220 l 678 1098 l 67 1098 l 67 1220 "},"Κ":{"x_min":101.828125,"x_max":1825.1875,"ha":924,"o":"m 1115 290 q 1069 396 1115 358 q 967 430 1029 430 q 872 397 916 430 q 820 290 820 358 q 858 193 820 232 q 967 151 899 151 q 1074 188 1033 151 q 1115 290 1115 225 m 662 290 q 753 494 662 408 q 967 581 844 581 q 1182 494 1091 581 q 1273 290 1273 408 q 1182 86 1273 173 q 967 0 1091 0 q 753 86 844 0 q 662 290 662 173 m 1115 691 q 1087 779 1115 741 q 967 830 1049 830 q 866 793 909 830 q 820 691 820 753 q 967 552 820 552 q 1115 691 1115 552 m 662 691 q 753 895 662 809 q 967 982 844 982 q 1182 895 1091 982 q 1273 691 1273 809 q 1182 487 1273 574 q 967 400 1091 400 q 753 487 844 400 q 662 691 662 574 m 1666 495 q 1639 583 1666 546 q 1519 634 1600 634 q 1418 597 1460 634 q 1372 495 1372 558 q 1519 356 1372 356 q 1666 495 1666 356 m 1213 495 q 1304 699 1213 613 q 1519 786 1395 786 q 1734 699 1643 786 q 1825 495 1825 613 q 1734 291 1825 378 q 1519 204 1643 204 q 1304 291 1395 204 q 1213 495 1213 378 m 554 494 q 527 581 554 545 q 407 633 489 633 q 306 596 349 633 q 260 494 260 556 q 407 355 260 355 q 554 494 554 355 m 101 494 q 193 698 101 611 q 407 785 284 785 q 622 698 531 785 q 713 494 713 611 q 622 290 713 377 q 407 204 531 204 q 193 290 284 204 q 101 494 101 377 m 1257 745 q 1257 677 1257 677 l 1257 881 l 1260 990 l 1051 991 l 1054 1151 l 1419 1152 l 1418 786 q 1257 677 1351 785 l 1257 745 "},"Î":{"x_min":-21,"x_max":408.3125,"ha":380,"o":"m 137 0 l 137 810 l 319 810 l 319 0 l 137 0 m 223 1127 q 313 1091 276 1127 q 349 1003 349 1054 q 313 915 349 951 q 223 878 276 878 q 134 915 171 878 q 97 1003 97 951 q 134 1091 97 1054 q 223 1127 170 1127 m 223 1097 q 158 1070 185 1097 q 132 1007 132 1044 q 158 943 132 969 q 223 916 185 916 q 288 943 261 916 q 315 1007 315 969 q 288 1070 315 1044 q 223 1097 261 1097 m 195 1171 l 118 1056 l -21 1056 l 125 1246 l 255 1246 l 408 1056 l 269 1056 l 195 1171 "},"e":{"x_min":52.21875,"x_max":954.9375,"ha":1023,"o":"m 491 1220 q 547 1199 524 1220 q 570 1148 570 1178 q 547 1097 570 1118 q 491 1075 524 1075 q 436 1097 459 1075 q 413 1148 413 1118 q 436 1199 413 1178 q 491 1220 459 1220 m 130 1221 q 186 1200 163 1221 q 208 1148 208 1178 q 186 1097 208 1119 q 130 1076 163 1076 q 75 1097 98 1076 q 52 1148 52 1119 q 75 1200 52 1178 q 130 1221 98 1221 m 210 1243 q 426 1016 336 1174 l 573 1016 l 573 899 l 477 899 q 531 604 525 767 q 325 442 385 544 q 332 662 332 568 q 315 902 332 808 l 172 902 l 172 1019 l 293 1019 q 210 1243 280 1110 m 639 599 q 862 505 767 599 q 954 301 954 413 q 868 90 954 178 q 639 0 777 0 q 406 88 492 0 q 324 301 324 172 q 417 505 324 413 q 639 599 512 599 m 639 472 q 520 417 569 472 q 475 301 475 366 q 520 189 475 238 q 639 137 569 137 q 758 189 710 137 q 804 301 804 238 q 758 417 804 366 q 639 472 710 472 "},"ό":{"x_min":46.125,"x_max":821.328125,"ha":740,"o":"m 46 1018 l 821 1018 l 821 0 l 657 0 l 656 858 l 215 857 l 215 0 l 46 0 l 46 1018 m 425 269 q 280 329 340 269 q 221 474 221 389 q 281 619 221 559 q 425 678 341 678 q 571 619 511 678 q 631 474 631 559 q 571 329 631 389 q 425 269 512 269 m 425 368 q 502 399 470 368 q 533 476 533 431 q 501 553 533 521 q 425 584 470 584 q 348 553 379 584 q 316 476 316 521 q 348 399 316 431 q 425 368 379 368 m 294 809 l 384 999 l 544 999 l 395 809 l 294 809 "},"»":{"x_min":95,"x_max":676.234375,"ha":699,"o":"m 536 358 l 359 667 l 459 667 l 676 358 l 459 49 l 360 49 l 536 358 m 274 358 l 95 667 l 197 667 l 410 358 l 197 49 l 95 49 l 274 358 "},"Ѓ":{"x_min":113.265625,"x_max":939.34375,"ha":787,"o":"m 114 661 q 132 737 109 661 q 208 878 159 826 q 384 949 278 953 q 555 936 486 946 q 649 926 617 926 q 685 927 665 926 q 805 952 735 930 q 939 1013 881 977 q 814 886 889 945 q 613 804 704 799 q 478 817 529 807 q 408 823 438 824 q 280 803 322 819 q 114 661 192 769 m 655 761 q 567 746 655 772 q 400 645 465 714 q 299 391 307 548 q 270 105 291 204 q 219 -16 252 21 q 150 -67 201 -38 q 343 13 261 -56 q 463 350 472 124 q 508 592 457 484 q 604 723 545 668 q 655 761 630 742 m 918 1098 l 113 1098 l 113 1220 l 918 1220 l 918 1098 m 366 1055 l 456 1245 l 616 1245 l 467 1055 l 366 1055 "},"^":{"x_min":36,"x_max":614.515625,"ha":640,"o":"m 161 468 l 36 468 l 275 1011 l 373 1011 l 614 468 l 491 468 l 324 872 l 161 468 "},"«":{"x_min":91,"x_max":672.25,"ha":699,"o":"m 230 358 l 406 49 l 307 49 l 91 358 l 307 667 l 407 667 l 230 358 m 493 358 l 672 49 l 569 49 l 356 358 l 569 667 l 672 667 l 493 358 "},"∙":{"x_min":135.640625,"x_max":386.59375,"ha":475,"o":"m 135 125 q 172 213 135 177 q 260 250 208 250 q 349 213 313 250 q 386 125 386 177 q 349 36 386 73 q 260 0 313 0 q 172 36 208 0 q 135 125 135 73 "},"к":{"x_min":67.828125,"x_max":877.625,"ha":950,"o":"m 394 990 q 464 963 436 990 q 493 896 493 935 q 464 831 493 858 q 394 803 436 803 q 324 831 353 803 q 295 896 295 858 q 324 963 295 935 q 394 990 353 990 m 326 786 l 460 786 l 460 583 l 326 458 q 326 786 332 788 m 771 839 l 863 730 l 343 280 q 225 250 276 250 q 134 277 178 250 q 69 401 69 318 q 214 560 69 560 q 258 557 228 560 q 303 554 288 554 l 303 432 q 239 447 263 447 q 190 413 190 447 q 231 373 190 373 q 311 410 266 373 q 771 839 347 439 m 327 -9 l 459 -9 l 460 358 q 404 304 432 331 q 326 250 362 266 q 326 118 324 249 q 327 -9 326 54 m 783 -34 l 872 51 l 522 411 l 483 385 l 483 266 l 783 -34 m 67 1220 l 877 1220 l 877 1098 l 67 1098 l 67 1220 "},"ˆ":{"x_min":18,"x_max":447.3125,"ha":474,"o":"m 234 925 l 157 810 l 18 810 l 164 1000 l 294 1000 l 447 810 l 308 810 l 234 925 "},"Ι":{"x_min":129.671875,"x_max":381.96875,"ha":305,"o":"m 169 0 l 169 810 l 351 810 l 351 0 l 169 0 m 255 1127 q 345 1091 308 1127 q 381 1003 381 1054 q 345 915 381 951 q 255 878 308 878 q 166 915 203 878 q 129 1003 129 951 q 166 1091 129 1054 q 255 1127 202 1127 m 255 1097 q 190 1070 217 1097 q 164 1007 164 1044 q 190 943 164 969 q 255 916 217 916 q 320 943 293 916 q 347 1007 347 969 q 320 1070 347 1044 q 255 1097 293 1097 "},"č":{"x_min":53.828125,"x_max":686.609375,"ha":688,"o":"m 370 854 q 235 910 291 854 q 179 1045 179 966 q 235 1180 179 1124 q 370 1236 291 1236 q 505 1180 449 1236 q 561 1045 561 1124 q 506 910 561 966 q 370 854 450 854 m 369 946 q 441 976 411 946 q 470 1047 470 1005 q 441 1119 470 1089 q 369 1148 411 1148 q 298 1119 327 1148 q 268 1047 268 1089 q 298 976 268 1005 q 369 946 327 946 m 686 430 l 686 859 l 53 859 l 53 430 l 168 429 l 169 736 l 314 736 l 314 0 l 432 0 l 434 736 l 571 736 l 571 430 l 686 430 m 366 884 l 440 1000 l 579 1000 l 426 810 l 296 810 l 150 1000 l 289 1000 l 366 884 "},"’":{"x_min":73,"x_max":215,"ha":258,"o":"m 84 862 l 84 1004 l 215 1004 l 215 892 q 193 761 215 801 q 102 679 164 706 l 73 726 q 147 862 143 755 l 84 862 "},"Ν":{"x_min":51.546875,"x_max":941.578125,"ha":933,"o":"m 866 1483 q 885 1443 866 1487 q 920 1339 906 1393 q 941 1187 940 1262 q 866 907 945 1035 q 613 756 772 754 q 429 830 505 756 q 339 973 371 885 q 316 1072 314 1040 q 355 1220 320 1161 q 491 1297 401 1297 q 630 1226 581 1297 q 676 1074 674 1165 q 653 964 677 1007 q 597 904 637 937 q 534 929 545 918 q 495 967 518 942 q 564 1076 564 1020 q 551 1147 564 1115 q 500 1189 533 1189 q 426 1071 433 1189 q 467 956 423 1016 q 610 883 522 883 q 755 1001 697 883 q 801 1180 803 1097 q 762 1360 800 1268 q 725 1435 731 1435 l 866 1483 m 456 789 q 424 815 455 788 q 398 836 411 826 q 360 891 384 857 q 346 882 353 886 q 321 879 335 876 q 244 929 278 889 q 182 1127 185 996 q 234 1321 181 1199 q 289 1430 281 1430 l 162 1491 q 94 1351 107 1383 q 51 1117 51 1237 q 119 870 51 970 q 304 758 189 765 q 456 789 414 752 m 387 382 l 458 295 q 351 158 451 295 q 248 12 258 29 q 146 78 195 45 q 269 231 208 154 q 387 382 389 381 m 474 485 l 537 407 q 641 608 641 535 q 558 725 641 681 q 467 745 520 745 q 343 697 379 745 q 305 577 305 646 q 357 433 305 502 q 577 164 423 346 q 705 12 641 88 q 748 41 727 27 q 798 78 796 76 q 432 511 572 324 q 408 572 408 543 q 425 626 408 598 q 476 653 448 653 q 518 634 498 653 q 532 569 537 615 q 474 485 530 551 "},"-":{"x_min":44,"x_max":419,"ha":463,"o":"m 44 298 l 44 421 l 419 421 l 419 298 l 44 298 "},"ѕ":{"x_min":43.109375,"x_max":464.28125,"ha":671,"o":"m 46 -212 l 77 -113 q 195 -46 131 -52 q 332 -34 299 -52 q 372 30 372 -12 q 346 78 372 61 q 255 107 328 89 q 149 138 174 128 q 62 201 85 162 q 43 271 43 233 q 102 386 43 342 q 236 423 153 423 q 414 357 365 423 q 442 312 436 326 l 370 281 q 242 349 345 349 q 129 282 129 349 q 174 227 129 244 q 252 204 186 222 q 356 174 340 181 q 443 115 418 151 q 464 40 464 85 q 363 -103 464 -60 q 252 -125 315 -125 q 46 -212 125 -113 "},"Q":{"x_min":63.75,"x_max":590.046875,"ha":675,"o":"m 368 1232 q 417 1178 396 1224 q 427 1125 421 1135 l 425 1123 l 425 1121 q 495 1036 448 1059 q 538 1016 507 1026 q 590 999 589 1002 l 590 996 q 522 984 590 984 l 514 984 q 423 1016 473 988 q 356 1079 408 1016 q 326 1170 326 1128 q 364 1232 333 1232 l 368 1232 m 160 1038 l 269 1038 l 273 1034 l 273 945 l 358 945 l 362 941 l 362 850 l 358 846 l 277 846 l 277 4 l 273 0 l 160 0 l 156 4 l 156 844 l 67 844 l 63 848 l 63 941 l 67 945 l 156 945 l 156 1034 l 160 1038 "},"Ш":{"x_min":70.53125,"x_max":884.40625,"ha":950,"o":"m 884 996 l 731 996 l 731 434 l 552 434 l 552 696 l 406 696 l 406 434 l 219 433 l 219 996 l 73 996 l 73 292 l 408 292 l 408 0 l 552 0 l 552 291 l 884 291 l 884 996 m 881 1098 l 70 1098 l 70 1220 l 881 1220 l 881 1098 "},"M":{"x_min":67.828125,"x_max":806.40625,"ha":879,"o":"m 550 1199 l 551 1198 l 552 1198 l 562 1199 q 669 1155 615 1197 q 746 1072 699 1133 q 787 976 765 1041 q 803 883 800 919 l 801 882 l 805 851 l 803 851 l 805 850 l 805 849 l 806 763 l 805 735 l 803 733 l 805 731 l 804 720 q 796 650 798 649 l 797 648 l 797 647 l 790 607 q 804 393 807 470 l 803 393 l 804 391 l 804 379 l 803 378 l 804 377 l 801 341 l 800 319 q 757 164 781 220 q 672 48 731 102 l 634 23 q 599 9 630 23 q 548 0 564 0 l 526 0 q 417 46 478 2 q 344 149 364 93 q 316 294 314 223 l 318 296 l 318 297 l 316 299 q 352 402 327 362 q 405 455 377 440 q 436 465 428 465 q 495 446 476 459 q 547 375 543 398 q 569 288 569 324 l 568 281 l 569 276 l 568 274 l 569 267 q 542 158 567 223 q 505 106 526 124 l 503 106 q 458 147 476 123 q 448 158 455 147 l 448 160 q 476 212 461 169 l 485 261 l 485 300 q 472 349 478 337 q 448 375 472 356 q 413 347 419 376 l 408 339 l 410 337 l 410 336 q 400 297 402 317 q 443 134 396 198 q 514 87 480 96 l 548 80 l 552 80 q 654 145 609 78 l 677 189 q 712 343 710 278 l 713 381 l 715 402 l 714 446 l 715 448 l 715 449 q 697 598 710 550 l 693 607 q 714 748 712 691 l 713 749 l 713 750 l 716 765 l 715 767 l 715 772 l 717 784 q 697 936 713 875 l 673 1013 q 587 1107 647 1073 l 585 1106 l 584 1106 l 564 1112 l 560 1111 l 558 1112 l 556 1112 l 520 1102 q 489 1148 509 1128 l 465 1169 l 463 1171 l 463 1172 q 502 1193 464 1182 q 550 1199 508 1197 m 333 1201 l 333 1199 l 335 1201 l 337 1201 l 339 1199 l 341 1201 l 342 1201 l 343 1199 l 345 1201 l 346 1201 q 422 1178 422 1187 q 497 1108 456 1167 q 543 1025 522 1083 q 561 941 556 980 l 559 941 l 560 939 l 560 916 l 561 910 l 560 906 l 561 900 l 558 885 l 559 883 q 520 779 557 836 q 442 733 484 731 l 440 733 q 364 776 400 734 q 318 883 333 806 q 314 933 313 912 q 347 1059 316 1005 q 368 1090 347 1070 l 371 1090 q 429 1041 398 1079 l 429 1039 l 427 1038 l 429 1036 l 428 1033 q 412 1008 416 1025 q 395 948 401 990 l 396 944 l 395 935 l 394 926 q 406 852 394 893 q 438 819 416 830 l 441 819 q 478 903 469 818 l 479 912 q 446 1040 481 978 q 370 1109 420 1085 q 329 1116 356 1115 l 324 1116 l 314 1115 l 314 1117 q 281 1103 294 1112 q 227 1060 265 1101 q 185 978 205 1032 q 154 829 157 905 l 155 815 l 153 809 l 156 747 l 154 747 q 161 693 158 733 l 178 600 q 153 440 158 551 l 153 425 l 154 417 l 153 410 l 154 404 l 153 402 l 152 401 q 181 227 158 309 q 231 130 197 185 q 335 80 275 82 q 360 88 351 82 q 377 61 368 82 l 412 24 l 412 21 q 329 0 403 3 q 243 24 269 8 l 194 61 q 143 122 156 94 q 87 265 114 162 q 71 398 70 363 l 73 398 l 71 400 l 72 415 l 71 431 l 73 450 l 73 453 q 83 554 78 554 l 82 555 l 82 556 l 87 590 q 68 786 71 678 l 67 815 q 120 1048 72 958 q 191 1145 140 1091 q 290 1195 246 1192 l 333 1201 m 771 1237 l 116 1237 l 116 1294 l 771 1294 l 771 1237 m 661 569 l 209 569 l 209 630 l 661 630 l 661 569 "},"ј":{"x_min":-62.21875,"x_max":516.34375,"ha":254,"o":"m 96 324 q 110 392 99 373 q 140 430 125 415 q 205 411 185 412 q 238 437 241 409 q 205 463 236 461 q 196 462 201 463 q 129 440 145 453 q 81 329 96 413 q 80 314 80 322 q 144 201 76 252 q 293 117 175 177 q 428 16 364 80 q 501 -118 506 -61 q 449 -75 502 -113 q 259 17 372 -23 q 40 132 106 73 q -58 336 -41 206 q -60 379 -61 358 q 67 554 -54 493 q 214 594 155 599 q 321 535 271 589 q 367 424 370 481 q 313 326 364 366 q 203 290 262 286 q 96 324 125 297 m -56 455 q -1 540 -43 502 q 51 569 11 552 q 100 590 75 580 q 100 609 99 602 q 275 784 103 678 q 420 882 388 853 q 463 930 441 906 q 496 984 489 958 q 499 1017 498 1001 q 277 904 458 950 q 4 737 91 856 q -61 541 -56 652 q -56 455 -64 493 m -62 1092 l -62 1220 l 516 1220 l 516 1092 l -62 1092 "},"Ψ":{"x_min":86,"x_max":1074,"ha":1086,"o":"m 86 994 l 218 994 l 218 726 q 289 499 218 570 q 514 420 356 432 l 514 994 l 646 994 l 646 420 q 872 506 803 429 q 942 742 942 584 l 942 994 l 1074 994 l 1074 713 q 646 307 1074 313 l 646 0 l 514 0 l 514 307 q 86 701 86 314 l 86 994 "},"œ":{"x_min":55,"x_max":1258.875,"ha":1284,"o":"m 662 118 q 394 -16 558 -16 q 141 88 232 -16 q 55 351 55 187 q 215 692 55 603 q 395 737 296 737 q 548 703 478 737 q 662 598 623 666 q 926 737 757 737 q 1184 613 1097 737 q 1258 327 1260 505 l 727 327 q 782 157 729 224 q 941 85 841 85 q 1127 234 1083 85 l 1249 217 q 939 -16 1188 -16 q 662 118 751 -16 m 180 361 q 228 170 180 235 q 390 85 290 85 q 554 175 496 85 q 603 363 603 251 q 554 549 603 475 q 390 636 497 636 q 206 504 258 636 q 180 361 180 439 m 731 428 l 1129 428 q 1075 575 1122 520 q 933 636 1023 636 q 790 575 845 636 q 731 428 738 518 "},"{":{"x_min":65.78125,"x_max":1273.03125,"ha":1356,"o":"m 190 960 l 196 960 q 659 591 447 754 l 659 585 q 524 496 656 578 l 518 496 q 423 567 507 496 q 339 634 375 598 l 339 531 l 456 531 l 461 526 l 461 434 l 456 428 l 337 428 l 337 333 q 467 428 358 358 q 662 567 548 493 q 763 637 752 637 q 863 686 800 666 q 971 702 940 702 l 982 702 q 1118 678 1080 694 q 1159 656 1118 673 q 1254 539 1241 594 q 1273 472 1273 503 l 1273 458 q 993 214 1273 276 l 947 208 l 914 208 q 879 217 904 217 q 825 230 859 227 q 700 309 729 268 q 673 355 673 341 l 673 358 q 825 472 785 436 q 830 458 830 472 q 898 404 830 437 l 936 398 l 974 398 q 1080 455 1056 398 l 1080 458 q 966 529 1080 507 q 689 382 866 529 l 228 46 q 158 0 169 0 l 65 132 q 144 195 78 147 q 328 325 276 297 l 328 328 l 242 328 l 236 333 l 236 431 l 122 431 l 117 436 l 117 526 l 122 531 l 236 531 l 236 637 l 242 642 l 326 642 l 73 843 l 190 960 "},"¼":{"x_min":72,"x_max":1138,"ha":1147,"o":"m 170 -39 l 917 1011 l 1023 1011 l 277 -39 l 170 -39 m 224 497 l 224 872 q 72 796 154 817 l 72 879 q 248 1006 177 913 l 322 1006 l 322 497 l 224 497 m 969 -21 l 969 83 l 710 83 l 710 166 l 983 488 l 1067 488 l 1067 156 l 1138 156 l 1138 83 l 1067 83 l 1067 -21 l 969 -21 m 969 156 l 969 335 l 813 156 l 969 156 "},"#":{"x_min":67.140625,"x_max":1491.40625,"ha":1554,"o":"m 617 691 l 554 772 q 647 908 566 798 q 699 988 674 940 q 726 1028 718 1024 q 749 1024 735 1032 q 790 994 758 1016 q 822 978 800 993 q 824 963 829 971 q 706 806 804 929 q 638 712 682 771 q 617 691 620 690 m 520 575 l 456 662 q 427 630 439 647 q 392 543 396 589 q 391 510 391 527 q 455 290 391 347 q 541 258 491 258 q 634 297 598 258 q 681 459 681 349 q 648 594 681 536 q 569 712 611 656 q 492 813 531 763 q 354 1034 387 956 q 348 1039 353 1039 q 308 1012 343 1039 q 268 982 272 985 q 259 966 260 974 q 428 721 257 953 q 498 634 463 677 q 565 532 542 577 q 581 430 581 501 q 570 371 581 384 q 543 361 561 362 q 510 371 523 360 q 487 446 495 385 q 485 526 481 499 q 520 575 488 542 m 444 678 q 430 656 436 672 q 420 636 424 640 q 379 577 405 613 q 329 584 354 590 q 255 552 278 573 q 188 368 198 501 q 219 166 183 297 q 257 49 251 49 l 145 0 q 67 341 67 172 q 68 385 67 362 q 153 615 75 529 q 353 701 231 701 q 430 689 405 701 q 444 678 447 680 m 602 671 q 647 636 619 659 q 688 577 662 613 q 738 584 712 590 q 812 552 789 573 q 879 368 870 501 q 881 168 885 297 q 991 0 881 67 l 1152 0 q 992 271 992 93 q 999 385 1001 362 q 914 615 992 529 q 714 701 836 701 q 627 686 662 701 q 602 671 600 673 m 1017 1106 l 67 1106 l 67 1220 l 1017 1220 l 1017 1106 m 1246 467 q 1420 393 1345 467 q 1491 235 1491 322 q 1424 71 1491 139 q 1246 0 1353 0 q 1065 69 1131 0 q 1001 235 1001 134 q 1073 393 1001 322 q 1246 467 1148 467 m 1246 368 q 1154 325 1191 368 q 1118 235 1118 286 q 1154 147 1118 185 q 1246 107 1191 107 q 1339 147 1301 107 q 1374 235 1374 185 q 1339 325 1374 286 q 1246 368 1301 368 "},"ι":{"x_min":93,"x_max":216,"ha":280,"o":"m 93 0 l 93 720 l 216 720 l 216 0 l 93 0 "},"Ê":{"x_min":109.828125,"x_max":735.3125,"ha":815,"o":"m 110 1098 l 110 1220 l 724 1220 l 724 1098 l 110 1098 m 109 0 l 109 991 l 720 991 l 719 855 l 244 857 l 245 572 l 719 572 l 719 441 l 244 441 l 244 135 l 719 135 l 719 0 l 109 0 m 522 1171 l 445 1056 l 306 1056 l 452 1246 l 582 1246 l 735 1056 l 596 1056 l 522 1171 "},"Џ":{"x_min":108,"x_max":890,"ha":933,"o":"m 557 0 l 557 -276 l 440 -276 l 440 0 l 108 0 l 108 994 l 240 994 l 240 117 l 758 117 l 758 994 l 890 994 l 890 0 l 557 0 "},")":{"x_min":84,"x_max":412,"ha":452,"o":"m 171 -292 l 84 -292 q 287 359 287 33 q 193 807 287 594 q 84 1011 165 870 l 171 1011 q 412 360 412 689 q 171 -292 412 13 "},"ε":{"x_min":66,"x_max":587.546875,"ha":591,"o":"m 561 639 l 474 568 q 318 632 391 632 q 238 606 269 632 q 204 531 204 579 q 257 444 204 473 q 363 421 300 421 q 397 421 373 421 l 397 319 q 365 319 375 319 q 193 198 193 319 q 233 116 193 148 q 321 85 270 85 q 500 172 416 85 l 587 99 q 317 -16 479 -16 q 141 36 211 -16 q 66 198 66 94 q 185 372 66 321 q 86 528 86 429 q 157 684 86 627 q 325 737 223 737 q 561 639 465 737 "},"э":{"x_min":65.109375,"x_max":610.421875,"ha":678,"o":"m 550 293 l 550 411 l 254 411 l 254 293 l 550 293 m 76 -203 q 211 -160 98 -206 q 468 3 369 -97 q 610 349 609 147 q 470 738 611 578 q 206 921 370 852 q 65 970 66 981 q 446 399 446 678 q 443 345 446 373 q 373 74 419 170 q 255 -73 334 -8 q 76 -203 252 -76 m 609 1098 l 67 1098 l 67 1220 l 609 1220 l 609 1098 "},"ш":{"x_min":70.53125,"x_max":703.3125,"ha":771,"o":"m 71 1152 l 680 1152 l 680 1255 l 71 1255 l 71 1152 m 147 1138 q 246 1021 229 1061 q 288 946 277 970 q 349 667 349 823 l 351 613 q 339 538 345 538 l 195 538 l 191 542 q 217 764 217 718 q 199 989 217 939 q 141 1131 172 1087 l 141 1136 l 143 1138 l 147 1138 m 74 524 l 359 524 q 590 459 497 524 q 695 319 670 401 l 703 269 l 703 261 q 670 127 703 183 q 623 61 662 103 q 476 2 551 2 l 461 2 q 343 26 403 2 q 244 103 275 54 q 195 196 225 115 q 175 307 184 214 l 175 362 l 179 366 l 316 366 l 319 362 l 319 309 q 357 200 323 261 q 463 141 399 141 q 554 212 524 141 l 560 246 q 467 364 560 322 q 319 384 413 384 l 74 384 l 70 388 l 70 520 l 74 524 "},"Я":{"x_min":49.5,"x_max":918.3125,"ha":981,"o":"m 436 336 l 436 0 l 514 0 l 514 336 l 436 336 m 309 129 l 642 129 l 642 207 l 309 207 l 309 129 m 788 -9 q 851 34 793 -9 q 918 83 913 80 q 725 326 871 139 q 425 724 519 589 q 397 798 397 765 q 417 863 397 825 q 474 894 442 894 q 530 866 502 894 q 550 773 557 838 q 499 653 548 748 l 573 542 q 633 670 601 589 q 668 831 668 760 q 617 950 668 915 q 459 1011 529 1011 q 336 953 390 1011 q 262 781 262 874 q 316 632 262 705 q 788 -9 527 347 m 457 401 l 370 516 q 213 295 373 514 q 49 71 131 183 q 170 -8 48 71 q 457 401 263 125 m 895 1098 l 67 1098 l 67 1220 l 895 1220 l 895 1098 "},"⋲":{"x_min":35,"x_max":728.8125,"ha":773,"o":"m 35 502 l 35 640 q 223 721 106 721 q 436 661 300 721 q 553 630 510 630 q 728 723 644 630 l 728 579 q 540 502 646 502 q 346 557 467 502 q 212 593 265 593 q 35 502 130 593 m 35 255 l 35 393 q 223 475 106 475 q 436 415 298 475 q 553 383 511 383 q 728 477 644 383 l 728 332 q 540 255 646 255 q 346 310 469 255 q 212 347 265 347 q 35 255 130 347 "},"¸":{"x_min":72,"x_max":366,"ha":342,"o":"m 145 -104 l 181 16 l 271 16 l 249 -56 q 328 -85 296 -62 q 366 -156 366 -113 q 297 -258 366 -224 q 169 -286 243 -286 q 72 -277 114 -286 l 79 -198 q 143 -201 123 -201 q 253 -149 253 -201 q 216 -111 253 -123 q 145 -104 195 -105 "},"a":{"x_min":66.46875,"x_max":834.21875,"ha":882,"o":"m 739 1018 q 834 945 831 954 q 725 807 830 929 q 558 590 725 800 q 539 577 549 577 l 535 583 l 537 634 l 535 649 l 537 649 l 535 651 l 536 725 l 534 756 q 615 861 535 760 l 737 1018 l 739 1018 m 152 1000 l 160 1000 q 422 686 293 848 q 643 375 616 465 q 661 280 658 335 l 659 280 l 661 278 l 661 274 q 631 156 660 221 q 564 81 595 99 q 491 52 545 64 l 456 48 q 318 120 373 50 q 263 244 278 160 l 263 305 q 291 429 263 341 q 371 549 330 505 l 374 549 l 374 551 q 166 804 320 623 l 66 921 l 66 927 l 152 1000 m 507 986 q 518 946 518 965 l 520 813 l 518 810 l 520 802 l 520 723 l 522 721 l 522 719 l 520 712 l 523 607 l 516 603 q 390 760 395 738 l 390 763 l 388 976 l 385 982 l 388 985 l 390 985 l 507 986 m 384 536 l 383 516 l 385 507 l 383 499 l 391 426 l 389 414 l 392 379 l 390 373 l 392 370 q 376 290 376 311 q 394 202 375 270 l 395 156 l 393 139 l 392 124 l 438 123 l 451 124 l 453 122 l 480 124 l 532 123 l 536 127 l 537 149 l 535 162 l 537 176 l 535 182 l 537 197 l 536 225 l 545 250 l 541 287 l 543 287 q 527 352 536 330 l 522 352 l 520 344 l 522 341 l 522 335 l 520 335 l 522 309 l 522 284 l 520 282 l 522 280 l 521 267 l 521 137 l 515 132 l 506 132 l 499 134 l 489 133 l 458 133 l 438 132 l 432 134 l 410 132 l 406 141 l 404 303 l 402 305 l 402 307 l 404 309 l 402 330 l 403 365 l 402 379 l 404 381 l 399 510 l 402 518 q 389 536 394 535 l 384 536 m 417 498 l 417 496 q 510 360 454 434 l 517 366 q 448 463 503 402 l 417 498 m 458 13 q 547 -43 522 12 l 550 -65 l 550 -80 q 483 -158 549 -137 l 457 -162 q 403 -137 431 -161 q 378 -84 379 -110 l 378 -60 q 447 11 379 -12 l 458 13 m 339 610 l 196 610 l 196 514 l 339 514 l 339 610 m 707 610 l 569 610 l 569 514 l 707 514 l 707 610 "},"=":{"x_min":77,"x_max":733.53125,"ha":732,"o":"m 733 585 l 77 585 l 77 699 l 733 699 l 733 585 m 733 283 l 77 283 l 77 397 l 733 397 l 733 283 "},"Ћ":{"x_min":33,"x_max":1123,"ha":1145,"o":"m 33 994 l 828 994 l 828 877 l 497 877 l 497 571 q 793 635 682 635 q 969 597 891 635 q 1092 471 1058 554 q 1123 261 1123 395 l 1123 0 l 991 0 l 991 257 q 978 388 991 342 q 906 493 959 459 q 785 524 857 524 q 497 461 676 524 l 497 0 l 365 0 l 365 877 l 33 877 l 33 994 "},"ρ":{"x_min":89,"x_max":741,"ha":777,"o":"m 89 -276 l 89 335 q 404 737 89 737 q 654 626 562 737 q 741 361 741 523 q 662 99 741 203 q 423 -16 575 -16 q 212 68 289 -16 l 212 -276 l 89 -276 m 408 636 q 212 351 212 636 q 252 169 212 237 q 408 85 302 85 q 570 170 515 85 q 616 354 616 241 q 571 545 616 471 q 408 636 518 636 "},"˚":{"x_min":110,"x_max":354,"ha":393,"o":"m 110 907 q 145 993 110 957 q 232 1029 181 1029 q 318 992 282 1029 q 354 905 354 956 q 318 817 354 853 q 232 781 283 781 q 144 817 179 781 q 110 907 110 854 m 162 906 q 182 854 162 876 q 233 832 203 832 q 284 853 263 832 q 305 905 305 875 q 284 957 305 935 q 233 979 263 979 q 182 957 203 979 q 162 906 162 936 "},"д":{"x_min":67.828125,"x_max":801.65625,"ha":884,"o":"m 310 978 l 314 978 l 421 883 l 421 876 q 314 742 352 809 q 278 688 314 737 q 200 444 200 526 l 198 425 l 200 422 l 200 421 l 198 395 q 227 250 198 331 q 326 143 265 165 l 349 134 l 352 134 q 406 147 393 134 l 415 147 q 455 124 422 147 q 524 107 495 107 l 534 109 q 556 101 556 107 l 556 99 q 522 63 541 91 q 482 38 517 63 l 396 8 l 375 12 l 373 11 l 339 15 l 324 12 q 219 69 250 33 q 128 172 140 140 q 78 366 78 284 l 77 372 l 78 375 l 77 384 l 77 410 l 74 418 l 77 426 l 77 436 q 109 628 85 552 l 147 723 q 249 895 177 792 q 310 978 249 901 m 499 558 q 610 483 567 558 q 651 372 651 427 l 648 366 l 651 352 q 629 276 651 284 q 590 257 617 265 l 558 257 q 530 263 553 261 q 516 273 516 269 l 520 280 l 518 295 l 526 356 q 492 425 522 425 l 486 425 q 465 372 465 403 l 465 338 q 541 235 465 261 l 579 235 q 667 295 641 257 l 694 319 l 698 319 l 773 240 l 770 238 l 770 235 l 773 233 q 618 130 697 147 l 571 122 q 421 168 474 122 l 400 189 q 349 345 349 259 l 349 356 q 417 524 349 453 q 484 555 452 555 l 499 558 m 67 1127 l 801 1127 l 801 1237 l 67 1237 l 67 1127 "},"¯":{"x_min":-21,"x_max":788.125,"ha":736,"o":"m -21 1062 l -21 1150 l 788 1150 l 788 1062 l -21 1062 "},"Z":{"x_min":67.828125,"x_max":784.703125,"ha":855,"o":"m 67 1098 l 67 1220 l 778 1220 l 778 1098 l 67 1098 m 76 1018 l 776 1018 l 779 1015 l 779 887 l 564 702 l 562 702 q 467 741 505 741 l 432 748 q 371 732 401 748 l 371 731 q 441 737 406 737 q 566 693 487 737 q 618 634 603 667 q 652 531 652 581 q 655 523 655 531 l 655 522 q 572 330 655 395 q 515 284 565 318 l 427 273 q 333 297 356 280 q 267 347 299 314 l 237 391 q 224 424 224 419 q 205 507 215 424 q 223 589 212 589 q 253 646 223 600 q 323 708 283 682 q 379 745 337 712 l 543 872 l 76 872 l 73 876 l 73 1015 l 76 1018 m 360 514 l 360 501 q 403 440 360 468 q 434 436 415 436 l 435 436 q 502 496 480 436 l 503 512 q 462 576 503 557 l 434 584 q 381 560 394 577 q 360 514 360 535 m 304 306 l 322 288 q 419 263 359 263 q 491 274 439 263 l 494 274 l 497 271 q 444 231 476 252 q 363 169 386 184 q 326 137 335 148 l 781 137 l 784 134 l 784 -4 l 781 -7 l 86 -7 l 82 -4 l 82 120 q 138 172 85 134 l 301 305 l 303 306 l 304 306 "},"u":{"x_min":48.828125,"x_max":1713.1875,"ha":1763,"o":"m 876 760 l 994 683 q 1086 804 1066 748 q 940 1118 1146 1034 q 748 1095 826 1145 q 659 982 686 1062 q 681 748 623 838 q 1093 451 771 551 q 1217 383 1184 414 q 1295 250 1302 324 q 1274 196 1294 210 q 1198 172 1258 162 q 1153 225 1165 195 q 1155 301 1141 255 q 1201 380 1176 350 l 1058 453 q 994 339 1020 400 q 1005 151 961 245 q 1159 6 1044 44 q 1417 126 1354 -28 q 1429 183 1426 155 q 1410 367 1448 287 q 1093 633 1344 555 q 914 702 963 675 q 849 763 887 719 q 793 841 822 794 q 817 942 786 909 q 847 959 827 946 q 897 967 873 978 q 942 910 936 950 q 948 858 942 908 q 937 832 939 840 q 910 781 931 813 q 876 760 891 754 m 1177 617 l 1317 529 l 1713 922 l 1585 1037 l 1177 617 m 554 381 l 457 480 q 295 191 290 379 q 421 21 318 76 q 557 1 478 -4 q 731 86 685 10 q 775 271 782 168 q 685 483 767 385 q 411 787 579 609 q 168 1059 337 862 q 101 998 141 1018 q 48 942 75 963 q 582 358 282 701 q 623 269 620 312 q 604 185 626 230 q 533 140 574 143 q 471 164 501 137 q 442 260 440 191 q 554 381 444 288 m 619 581 l 729 453 l 853 540 l 729 650 l 619 581 "},"k":{"x_min":66.46875,"x_max":686.359375,"ha":747,"o":"m 622 993 l 621 991 l 621 989 l 622 961 l 622 950 q 609 945 621 945 l 609 946 l 597 943 l 597 945 l 596 943 l 566 943 l 555 945 l 548 943 l 548 945 l 546 943 l 535 943 l 534 945 l 529 943 l 514 945 l 509 943 l 489 945 l 475 945 l 468 943 l 461 945 l 451 945 l 446 943 l 438 945 l 406 945 l 398 946 l 391 945 l 387 945 l 377 946 l 375 945 l 354 946 l 101 947 q 109 961 109 960 l 108 971 l 109 988 l 100 998 l 100 993 l 102 999 l 106 1007 l 106 1009 q 103 1027 109 1030 l 105 1038 l 318 1038 l 352 1038 l 371 1039 l 377 1038 l 389 1039 q 343 1071 389 1043 q 297 1123 303 1108 q 272 1167 286 1136 q 258 1232 258 1201 q 274 1298 258 1270 q 327 1331 295 1331 q 373 1306 349 1330 q 396 1189 396 1262 q 453 1089 414 1119 q 532 1053 475 1070 l 604 1039 q 617 1032 604 1037 l 622 993 m 66 0 l 66 894 l 185 894 l 185 527 l 560 527 l 560 894 l 685 894 l 686 0 l 563 0 l 563 421 l 185 421 l 185 0 l 66 0 "},"Ù":{"x_min":109.078125,"x_max":1014.515625,"ha":930,"o":"m 143 1037 l 286 1020 q 263 836 263 906 q 267 783 263 807 q 301 672 275 725 q 376 596 334 607 l 237 537 q 115 758 138 611 q 109 851 109 805 q 143 1037 109 942 m 535 662 q 624 603 544 619 q 653 659 638 631 q 672 744 672 701 q 519 931 672 931 q 412 870 463 931 q 360 733 359 807 q 389 627 362 669 q 427 583 408 605 q 251 520 310 555 q 115 324 131 451 q 109 225 109 273 q 157 -17 109 84 l 324 14 q 274 227 274 126 q 276 272 274 249 q 318 408 286 368 q 437 461 353 451 q 451 461 444 461 q 571 301 555 461 q 560 253 574 276 q 537 233 547 235 q 495 252 510 229 q 482 299 481 271 q 499 360 483 337 q 522 389 511 375 q 489 432 515 406 q 434 446 487 433 q 388 403 411 425 q 360 288 355 360 q 431 156 366 200 q 537 124 478 124 q 635 162 594 124 q 683 304 688 210 q 650 421 680 374 q 607 473 628 447 q 634 472 621 472 q 914 803 884 472 q 915 835 915 817 q 895 988 915 905 q 869 1064 878 1064 l 730 1034 q 763 813 764 895 q 736 666 760 725 q 622 587 699 581 q 482 758 482 598 q 499 803 482 794 q 519 807 509 805 q 541 800 530 804 q 556 760 555 791 q 549 702 557 729 q 535 662 541 682 m 688 451 q 733 422 714 443 q 786 265 779 371 q 787 242 787 254 q 743 30 787 162 l 893 -1 q 939 272 939 128 q 828 514 939 417 q 765 470 787 479 q 688 451 735 463 m 917 813 l 1014 813 l 1014 918 l 917 918 l 917 813 m 675 814 l 772 814 l 772 919 l 675 919 l 675 814 m 644 1056 l 545 1056 l 389 1246 l 552 1246 l 644 1056 "},"З":{"x_min":48.828125,"x_max":626.671875,"ha":676,"o":"m 95 949 l 626 949 l 626 813 q 516 656 571 734 q 364 486 434 544 q 177 409 269 407 q 80 461 116 411 q 48 537 54 497 q 62 622 49 587 q 177 709 92 706 q 236 690 208 710 l 236 574 q 223 585 230 579 q 185 588 212 590 q 162 558 158 586 q 198 535 166 535 q 375 678 250 535 q 477 811 426 744 l 95 811 l 95 949 m 252 747 l 373 747 l 373 695 l 252 575 l 252 747 m 373 293 l 252 293 l 253 400 l 373 467 l 373 293 m 314 275 q 363 255 343 275 q 384 205 384 234 q 363 156 384 176 q 314 136 343 136 q 265 156 285 136 q 244 205 244 176 q 265 255 244 234 q 314 275 285 275 m 384 472 l 467 573 q 598 328 585 460 q 506 118 604 264 q 400 -25 495 101 q 328 -191 356 -83 q 303 -282 305 -282 q 278 -255 289 -282 q 266 -158 264 -219 q 319 63 270 -12 q 393 181 385 167 q 443 339 445 277 q 421 434 441 404 q 384 472 414 448 m 609 1098 l 67 1098 l 67 1220 l 609 1220 l 609 1098 "},"Α":{"x_min":-2.171875,"x_max":976.5,"ha":918,"o":"m 513 1221 q 590 1179 549 1221 q 608 1130 608 1145 l 608 1102 q 557 1026 598 1053 q 498 1013 528 1013 q 402 1086 433 1013 l 398 1108 q 488 1221 398 1198 l 513 1221 m 499 977 q 667 939 569 975 q 905 731 829 872 q 963 588 963 634 q 976 493 972 556 q 921 283 976 417 q 808 132 888 210 q 649 37 713 53 q 556 6 634 27 q 519 0 536 0 l 492 0 q 90 196 235 0 q -2 491 -2 328 q 94 775 -2 629 q 180 870 126 818 q 499 977 315 977 m 440 948 l 440 888 q 366 868 440 880 q 157 707 224 817 q 90 486 90 604 q 174 243 90 356 q 280 148 238 169 q 404 101 328 119 q 437 95 404 98 l 440 92 l 440 42 l 545 42 l 545 97 q 563 104 545 103 l 563 101 q 687 150 618 115 q 881 501 881 282 q 756 786 881 659 q 627 864 691 841 l 545 884 l 545 948 l 440 948 m 452 935 l 532 935 l 537 930 l 537 57 l 532 53 l 452 53 l 448 57 l 448 930 l 452 935 "},"Ş":{"x_min":62.828125,"x_max":1786.1875,"ha":878,"o":"m 1076 290 q 1030 396 1076 358 q 928 430 990 430 q 833 397 877 430 q 781 290 781 358 q 819 193 781 232 q 928 151 860 151 q 1035 188 994 151 q 1076 290 1076 225 m 623 290 q 714 494 623 408 q 928 581 805 581 q 1143 494 1052 581 q 1234 290 1234 408 q 1143 86 1234 173 q 928 0 1052 0 q 714 86 805 0 q 623 290 623 173 m 1076 691 q 1048 779 1076 741 q 928 830 1010 830 q 827 793 870 830 q 781 691 781 753 q 928 552 781 552 q 1076 691 1076 552 m 623 691 q 714 895 623 809 q 928 982 805 982 q 1143 895 1052 982 q 1234 691 1234 809 q 1143 487 1234 574 q 928 400 1052 400 q 714 487 805 400 q 623 691 623 574 m 1627 495 q 1600 583 1627 546 q 1480 634 1561 634 q 1379 597 1421 634 q 1333 495 1333 558 q 1480 356 1333 356 q 1627 495 1627 356 m 1174 495 q 1265 699 1174 613 q 1480 786 1356 786 q 1695 699 1604 786 q 1786 495 1786 613 q 1695 291 1786 378 q 1480 204 1604 204 q 1265 291 1356 204 q 1174 495 1174 378 m 515 494 q 488 581 515 545 q 368 633 450 633 q 267 596 310 633 q 221 494 221 556 q 368 355 221 355 q 515 494 515 355 m 62 494 q 154 698 62 611 q 368 785 245 785 q 583 698 492 785 q 674 494 674 611 q 583 290 674 377 q 368 204 492 204 q 154 290 245 204 q 62 494 62 377 m 1079 1245 q 1393 775 1354 1106 q 1234 663 1289 748 q 1210 806 1234 738 q 1079 1245 1210 1074 m 369 -97 l 405 23 l 495 23 l 473 -49 q 552 -78 520 -55 q 590 -149 590 -106 q 521 -251 590 -217 q 393 -279 467 -279 q 296 -270 338 -279 l 303 -191 q 367 -194 347 -194 q 477 -142 477 -194 q 440 -104 477 -116 q 369 -97 419 -98 "},"↓":{"x_min":104,"x_max":592,"ha":594,"o":"m 104 -10 l 104 40 q 314 -91 218 -15 l 314 908 l 382 908 l 382 -91 q 592 42 455 -21 l 592 -10 q 361 -291 422 -162 l 330 -291 q 104 -10 278 -170 "},"B":{"x_min":59,"x_max":1222.828125,"ha":1289,"o":"m 512 288 q 467 394 512 356 q 364 427 426 427 q 269 395 313 427 q 217 288 217 356 q 255 191 217 230 q 364 149 296 149 q 471 186 430 149 q 512 288 512 223 m 59 288 q 150 492 59 406 q 364 579 241 579 q 579 492 489 579 q 670 288 670 406 q 579 84 670 171 q 364 -2 489 -2 q 150 84 241 -2 q 59 288 59 171 m 512 689 q 484 777 512 739 q 364 828 446 828 q 263 791 306 828 q 217 689 217 751 q 364 550 217 550 q 512 689 512 550 m 59 689 q 150 893 59 807 q 364 980 241 980 q 579 893 489 980 q 670 689 670 807 q 579 485 670 572 q 364 398 489 398 q 150 485 241 398 q 59 689 59 572 m 1063 493 q 1036 581 1063 543 q 916 632 997 632 q 815 595 857 632 q 769 493 769 556 q 916 354 769 354 q 1063 493 1063 354 m 610 493 q 701 697 610 611 q 916 784 792 784 q 1131 697 1040 784 q 1222 493 1222 611 q 1131 289 1222 376 q 916 202 1040 202 q 701 289 792 202 q 610 493 610 376 "},"…":{"x_min":162,"x_max":1227,"ha":1270,"o":"m 162 0 l 162 139 l 301 139 l 301 0 l 162 0 m 625 0 l 625 139 l 764 139 l 764 0 l 625 0 m 1087 0 l 1087 139 l 1227 139 l 1227 0 l 1087 0 "},"В":{"x_min":67.078125,"x_max":679.578125,"ha":745,"o":"m 661 878 l 661 3 q 556 0 606 0 q 77 282 89 0 q 192 495 71 402 q 423 592 296 576 l 512 604 l 512 752 q 454 754 482 754 q 198 611 206 754 q 210 562 196 583 q 233 544 223 544 q 238 545 237 544 l 125 459 q 67 609 69 520 q 179 798 64 720 q 441 875 290 873 q 661 878 438 881 m 512 123 l 512 291 q 474 289 493 289 q 250 360 363 289 q 248 363 248 361 q 283 407 248 377 q 345 443 319 437 q 460 419 389 419 q 512 423 484 419 l 512 470 q 209 297 209 478 q 316 145 209 184 q 512 123 380 122 m 581 1066 q 640 1042 616 1066 q 665 984 665 1018 q 640 926 665 950 q 581 902 616 902 q 522 926 547 902 q 498 984 498 950 q 522 1042 498 1018 q 581 1066 547 1066 m 679 1098 l 67 1098 l 67 1220 l 679 1220 l 679 1098 "},"І":{"x_min":67.671875,"x_max":319.96875,"ha":407,"o":"m 107 0 l 107 810 l 289 810 l 289 0 l 107 0 m 193 1127 q 283 1091 246 1127 q 319 1003 319 1054 q 283 915 319 951 q 193 878 246 878 q 104 915 141 878 q 67 1003 67 951 q 104 1091 67 1054 q 193 1127 140 1127 m 193 1097 q 128 1070 155 1097 q 102 1007 102 1044 q 128 943 102 969 q 193 916 155 916 q 258 943 231 916 q 285 1007 285 969 q 258 1070 285 1044 q 193 1097 231 1097 "},"H":{"x_min":67.828125,"x_max":751.46875,"ha":814,"o":"m 67 0 l 67 991 l 203 991 l 203 585 l 610 585 l 610 990 l 746 991 l 746 0 l 610 0 l 610 474 l 203 474 l 203 0 l 67 0 m 751 1098 l 67 1098 l 67 1220 l 751 1220 l 751 1098 "},"ν":{"x_min":17.828125,"x_max":839.828125,"ha":695,"o":"m 18 200 l 839 200 l 839 -134 l 658 -135 l 658 32 l 198 32 l 196 -135 l 17 -135 l 18 200 m 832 1089 l 18 1089 l 18 1221 l 832 1221 l 832 1089 "},"β":{"x_min":95,"x_max":736,"ha":766,"o":"m 216 91 l 216 -276 l 95 -276 l 95 682 q 120 848 95 787 q 231 968 151 922 q 399 1011 307 1011 q 593 945 514 1011 q 676 761 676 875 q 624 619 676 678 q 489 546 572 560 q 669 464 603 535 q 736 281 736 394 q 653 67 736 151 q 441 -16 571 -16 q 216 91 294 -16 m 324 586 q 563 754 563 586 q 512 868 563 823 q 393 910 463 910 q 292 882 339 910 q 226 803 239 851 q 216 660 216 762 l 216 388 q 226 240 216 284 q 302 118 243 166 q 425 74 355 74 q 561 132 510 74 q 609 275 609 189 q 576 395 609 339 q 483 477 541 455 q 341 497 430 497 l 324 497 l 324 586 "},"−":{"x_min":77,"x_max":733.53125,"ha":778,"o":"m 733 433 l 77 433 l 77 547 l 733 547 l 733 433 "},"U":{"x_min":44.078125,"x_max":949.515625,"ha":950,"o":"m 78 1037 l 221 1020 q 198 836 198 906 q 202 783 198 807 q 236 672 210 725 q 311 596 269 607 l 172 537 q 50 758 73 611 q 44 851 44 805 q 78 1037 44 942 m 470 662 q 559 603 479 619 q 588 659 573 631 q 607 744 607 701 q 454 931 607 931 q 347 870 398 931 q 295 733 294 807 q 324 627 297 669 q 362 583 343 605 q 186 520 245 555 q 50 324 66 451 q 44 225 44 273 q 92 -17 44 84 l 259 14 q 209 227 209 126 q 211 272 209 249 q 253 408 221 368 q 372 461 288 451 q 386 461 379 461 q 506 301 490 461 q 495 253 509 276 q 472 233 482 235 q 430 252 445 229 q 417 299 416 271 q 434 360 418 337 q 457 389 446 375 q 424 432 450 406 q 369 446 422 433 q 323 403 346 425 q 295 288 290 360 q 366 156 301 200 q 472 124 413 124 q 570 162 529 124 q 618 304 623 210 q 585 421 615 374 q 542 473 563 447 q 569 472 556 472 q 849 803 819 472 q 850 835 850 817 q 830 988 850 905 q 804 1064 813 1064 l 665 1034 q 698 813 699 895 q 671 666 695 725 q 557 587 634 581 q 417 758 417 598 q 434 803 417 794 q 454 807 444 805 q 476 800 465 804 q 491 760 490 791 q 484 702 492 729 q 470 662 476 682 m 623 451 q 668 422 649 443 q 721 265 714 371 q 722 242 722 254 q 678 30 722 162 l 828 -1 q 874 272 874 128 q 763 514 874 417 q 700 470 722 479 q 623 451 670 463 m 852 813 l 949 813 l 949 918 l 852 918 l 852 813 m 610 814 l 707 814 l 707 919 l 610 919 l 610 814 "},"F":{"x_min":61.046875,"x_max":1518.546875,"ha":1560,"o":"m 818 988 l 823 542 q 737 367 818 442 q 465 276 633 273 q 356 284 385 278 q 259 331 314 295 l 259 467 q 356 415 301 425 q 466 411 388 408 q 602 453 553 413 q 653 554 650 492 q 657 988 654 710 l 818 988 m 219 982 l 219 680 q 135 641 186 680 q 62 557 84 602 l 62 982 l 219 982 m 61 -1 l 61 472 q 145 620 61 544 q 421 711 252 714 q 531 703 501 710 q 628 657 573 693 l 628 520 q 503 566 581 566 q 420 563 519 566 q 226 433 233 558 q 223 -1 225 277 l 61 -1 m 655 0 l 655 297 q 747 348 681 297 q 815 435 789 381 l 815 0 l 655 0 m 854 989 l 1007 989 l 1007 737 l 847 640 q 854 989 847 992 m 1392 1056 l 1507 920 l 1094 577 q 823 406 832 378 q 832 378 832 378 q 849 505 832 406 q 832 446 832 446 q 842 474 851 474 q 832 472 832 474 l 823 474 q 823 474 851 505 q 832 478 832 477 q 851 610 852 474 q 984 704 918 653 q 1392 1056 1026 746 m 842 2 l 1005 2 l 1001 501 q 932 443 959 474 q 848 373 891 406 q 841 161 838 324 q 842 2 841 82 m 1407 -27 l 1518 78 l 1084 524 l 1035 493 l 1035 345 l 1407 -27 m 717 1220 q 792 1191 762 1220 q 823 1121 823 1162 q 792 1051 823 1081 q 717 1022 762 1022 q 643 1051 674 1022 q 612 1121 612 1081 q 643 1191 612 1162 q 717 1220 674 1220 m 928 1221 q 1003 1191 973 1221 q 1034 1121 1034 1162 q 1003 1051 1034 1081 q 928 1022 973 1022 q 854 1051 885 1022 q 823 1121 823 1081 q 854 1191 823 1162 q 928 1221 885 1221 "},"←":{"x_min":53,"x_max":1334.171875,"ha":1246,"o":"m 333 594 l 384 594 q 252 385 325 475 l 1334 385 l 1334 316 l 252 316 q 386 106 322 242 l 333 106 q 53 337 183 274 l 53 367 q 333 594 173 418 "},"Χ":{"x_min":5.828125,"x_max":1729.1875,"ha":926,"o":"m 1019 290 q 973 396 1019 358 q 871 430 933 430 q 776 397 820 430 q 724 290 724 358 q 762 193 724 232 q 871 151 803 151 q 978 188 937 151 q 1019 290 1019 225 m 566 290 q 657 494 566 408 q 871 581 748 581 q 1086 494 995 581 q 1177 290 1177 408 q 1086 86 1177 173 q 871 0 995 0 q 657 86 748 0 q 566 290 566 173 m 1019 691 q 991 779 1019 741 q 871 830 953 830 q 770 793 813 830 q 724 691 724 753 q 871 552 724 552 q 1019 691 1019 552 m 566 691 q 657 895 566 809 q 871 982 748 982 q 1086 895 995 982 q 1177 691 1177 809 q 1086 487 1177 574 q 871 400 995 400 q 657 487 748 400 q 566 691 566 574 m 1570 495 q 1543 583 1570 546 q 1423 634 1504 634 q 1322 597 1364 634 q 1276 495 1276 558 q 1423 356 1276 356 q 1570 495 1570 356 m 1117 495 q 1208 699 1117 613 q 1423 786 1299 786 q 1638 699 1547 786 q 1729 495 1729 613 q 1638 291 1729 378 q 1423 204 1547 204 q 1208 291 1299 204 q 1117 495 1117 378 m 458 494 q 431 581 458 545 q 311 633 393 633 q 210 596 253 633 q 164 494 164 556 q 311 355 164 355 q 458 494 458 355 m 5 494 q 97 698 5 611 q 311 785 188 785 q 526 698 435 785 q 617 494 617 611 q 526 290 617 377 q 311 204 435 204 q 97 290 188 204 q 5 494 5 377 "},"*":{"x_min":26.453125,"x_max":373.015625,"ha":385,"o":"m 70 464 q 107 552 70 516 q 195 589 143 589 q 284 553 248 589 q 321 464 321 516 q 284 375 321 412 q 195 339 248 339 q 107 375 143 339 q 70 464 70 412 m 26 678 l 26 801 l 373 801 l 373 678 l 26 678 "},"Ќ":{"x_min":109.1875,"x_max":693.828125,"ha":751,"o":"m 693 973 l 195 505 l 693 0 l 379 501 l 693 973 m 109 969 l 109 0 l 276 0 l 276 969 l 109 969 m 687 1098 l 109 1098 l 109 1220 l 687 1220 l 687 1098 m 397 1055 l 487 1245 l 647 1245 l 498 1055 l 397 1055 "},"Ξ":{"x_min":74,"x_max":828.859375,"ha":774,"o":"m 92 994 l 810 994 l 810 877 l 92 877 l 92 994 m 156 555 l 746 555 l 746 439 l 156 439 l 156 555 m 74 117 l 828 117 l 828 0 l 74 0 l 74 117 "},"Ϋ":{"x_min":4.0625,"x_max":1675.203125,"ha":903,"o":"m 1515 413 q 1488 500 1515 463 q 1368 552 1450 552 q 1267 514 1310 552 q 1221 413 1221 475 q 1368 274 1221 274 q 1515 413 1515 274 m 1062 413 q 1154 617 1062 530 q 1368 704 1245 704 q 1583 617 1492 704 q 1675 413 1675 530 q 1583 208 1675 295 q 1368 122 1492 122 q 1154 208 1245 122 q 1062 413 1062 295 m 457 412 q 430 499 457 463 q 309 551 391 551 q 208 514 251 551 q 162 412 162 474 q 309 273 162 273 q 457 412 457 273 m 4 412 q 95 616 4 529 q 309 703 186 703 q 524 616 434 703 q 615 412 615 529 q 524 208 615 295 q 309 122 434 122 q 95 208 186 122 q 4 412 4 295 m 554 13 q 626 263 626 71 q 596 497 626 364 q 567 746 567 631 q 644 935 567 855 q 830 1016 722 1016 q 998 972 923 1016 q 1131 714 1126 896 q 1061 504 1134 581 q 931 430 1011 451 q 881 419 891 419 q 767 467 814 423 l 743 657 q 866 564 803 564 q 990 714 990 564 q 936 837 990 790 q 843 876 892 876 q 758 833 801 876 q 711 731 714 787 q 728 548 710 693 q 746 350 747 398 q 554 13 743 129 m 206 1055 l 206 1194 l 333 1194 l 333 1055 l 206 1055 m 459 1055 l 459 1194 l 586 1194 l 586 1055 l 459 1055 "},"0":{"x_min":57,"x_max":705,"ha":741,"o":"m 57 490 q 201 939 57 822 q 381 998 272 998 q 620 873 539 998 q 705 490 705 743 q 561 41 705 159 q 381 -17 490 -17 q 57 490 57 -17 m 182 490 q 208 237 182 326 q 381 84 254 84 q 580 490 580 84 q 553 743 580 655 q 379 897 507 897 q 245 825 294 897 q 182 490 182 735 "},"”":{"x_min":48,"x_max":400,"ha":443,"o":"m 59 862 l 59 1004 l 190 1004 l 190 892 q 168 761 190 801 q 77 679 139 706 l 48 726 q 122 862 118 755 l 59 862 m 269 862 l 269 1004 l 400 1004 l 400 892 q 378 761 400 801 q 288 679 349 706 l 258 726 q 332 862 328 755 l 269 862 "},"Β":{"x_min":102,"x_max":1265.828125,"ha":891,"o":"m 555 288 q 510 394 555 356 q 407 427 469 427 q 312 395 356 427 q 260 288 260 356 q 298 191 260 230 q 407 149 339 149 q 514 186 473 149 q 555 288 555 223 m 102 288 q 193 492 102 406 q 407 579 284 579 q 622 492 532 579 q 713 288 713 406 q 622 84 713 171 q 407 -2 532 -2 q 193 84 284 -2 q 102 288 102 171 m 555 689 q 527 777 555 739 q 407 828 489 828 q 306 791 349 828 q 260 689 260 751 q 407 550 260 550 q 555 689 555 550 m 102 689 q 193 893 102 807 q 407 980 284 980 q 622 893 532 980 q 713 689 713 807 q 622 485 713 572 q 407 398 532 398 q 193 485 284 398 q 102 689 102 572 m 1106 493 q 1079 581 1106 543 q 959 632 1040 632 q 858 595 900 632 q 812 493 812 556 q 959 354 812 354 q 1106 493 1106 354 m 653 493 q 744 697 653 611 q 959 784 835 784 q 1174 697 1083 784 q 1265 493 1265 611 q 1174 289 1265 376 q 959 202 1083 202 q 744 289 835 202 q 653 493 653 376 "},"Õ":{"x_min":66.828125,"x_max":1092.96875,"ha":1049,"o":"m 580 1022 q 944 872 795 1022 q 1092 510 1092 722 q 943 150 1092 299 q 580 1 793 1 q 221 150 370 1 q 71 510 71 299 q 219 872 71 722 q 580 1022 367 1022 m 580 882 q 319 774 426 882 q 211 512 211 666 q 319 250 211 358 q 580 142 426 142 q 842 250 734 142 q 950 512 950 358 q 843 774 950 666 q 580 882 735 882 m 66 1098 l 66 1220 l 1087 1220 l 1087 1098 l 66 1098 m 317 1056 q 352 1164 316 1121 q 454 1210 390 1210 q 569 1174 496 1210 q 633 1154 609 1154 q 682 1212 674 1154 l 770 1212 q 637 1058 766 1058 q 525 1095 595 1058 q 458 1120 479 1120 q 407 1056 405 1120 l 317 1056 "},"№":{"x_min":47.46875,"x_max":825.390625,"ha":884,"o":"m 47 902 l 155 977 q 205 913 167 967 q 311 764 288 807 l 313 764 l 313 834 l 318 838 l 396 838 l 396 931 l 401 935 l 474 935 l 478 931 l 478 838 l 563 838 l 568 834 l 568 766 l 731 971 l 825 876 l 825 872 q 526 496 659 668 l 522 496 q 449 606 516 499 l 449 610 q 506 687 449 619 q 561 755 532 726 l 478 755 l 478 661 l 474 656 l 398 656 l 394 661 l 394 757 l 318 757 q 394 652 337 740 q 506 494 447 587 q 563 413 563 421 q 603 331 588 381 q 616 243 616 269 l 616 234 q 596 124 609 155 q 579 92 593 124 q 484 14 529 25 q 430 0 455 0 l 419 0 q 221 225 271 0 l 217 263 l 217 289 q 223 318 223 299 q 233 362 231 334 q 297 463 265 439 q 335 485 324 485 l 337 485 q 430 362 400 394 q 419 358 430 358 q 375 303 402 358 l 370 271 l 370 241 q 416 155 370 174 l 419 155 q 476 248 458 155 q 357 472 476 329 l 84 845 q 47 902 47 893 m 819 1098 l 65 1098 l 65 1220 l 819 1220 l 819 1098 "},"ć":{"x_min":54.265625,"x_max":687.046875,"ha":686,"o":"m 370 854 q 236 910 291 854 q 180 1045 180 966 q 236 1180 180 1124 q 370 1236 292 1236 q 506 1180 450 1236 q 562 1045 562 1124 q 506 910 562 966 q 370 854 451 854 m 370 946 q 441 976 412 946 q 471 1047 471 1005 q 441 1119 471 1089 q 370 1148 412 1148 q 298 1119 328 1148 q 269 1047 269 1089 q 298 976 269 1005 q 370 946 328 946 m 687 430 l 687 859 l 54 859 l 54 430 l 168 429 l 169 736 l 315 736 l 315 0 l 433 0 l 435 736 l 572 736 l 572 430 l 687 430 m 274 809 l 364 999 l 524 999 l 375 809 l 274 809 "},"þ":{"x_min":91,"x_max":716,"ha":726,"o":"m 91 -276 l 91 994 l 214 994 l 214 644 q 300 713 262 696 q 411 737 349 737 q 680 555 605 737 q 716 365 716 469 q 561 31 716 127 q 403 -16 485 -16 q 299 6 346 -16 q 214 74 263 23 l 214 -276 l 91 -276 m 202 356 q 242 175 202 246 q 394 85 292 85 q 549 179 497 85 q 591 366 591 254 q 549 548 591 474 q 399 641 499 641 q 245 543 299 641 q 202 356 202 464 "},"]":{"x_min":57.65625,"x_max":681.609375,"ha":749,"o":"m 277 1051 l 278 1051 l 335 999 l 335 994 l 267 923 l 266 915 q 311 870 276 910 q 423 729 394 784 q 461 663 442 710 q 485 550 478 630 l 485 540 q 446 415 474 461 q 406 356 431 383 q 326 308 362 316 q 291 301 326 305 q 196 356 225 301 q 185 400 189 370 l 187 408 l 187 429 q 223 511 191 473 q 322 583 288 577 q 354 598 332 590 l 361 598 q 372 540 372 598 l 372 532 l 373 521 l 322 492 q 270 418 270 461 q 291 390 273 390 l 293 389 q 333 408 323 396 q 387 543 387 466 q 369 636 387 585 q 288 766 366 670 q 202 851 241 820 l 196 851 q 135 784 196 847 q 75 833 86 833 l 75 834 l 141 906 q 107 936 140 912 l 57 976 l 57 983 q 111 1046 82 1016 l 115 1046 q 199 973 120 1037 l 202 973 q 277 1051 266 1043 m 498 597 q 598 537 530 593 q 671 379 671 444 q 676 309 676 379 l 676 301 q 645 158 667 209 q 587 22 629 104 q 560 -24 563 -23 l 556 -24 l 487 16 q 479 22 482 16 l 479 27 q 537 132 492 42 q 582 322 582 235 l 582 327 q 561 418 575 376 q 508 487 549 451 l 490 500 l 497 534 l 495 536 l 497 547 l 497 560 l 492 594 l 498 597 m 69 1144 l 69 1228 l 681 1228 l 681 1144 l 69 1144 "},"А":{"x_min":54.09375,"x_max":747.09375,"ha":785,"o":"m 54 1 l 54 588 q 125 884 54 767 q 408 1027 218 1033 q 677 900 589 1020 q 747 652 747 803 q 648 397 747 505 q 411 281 550 289 q 291 317 342 277 q 252 361 254 346 l 252 549 q 288 491 273 506 q 396 452 327 451 q 579 646 556 453 q 582 685 582 666 q 544 812 582 764 q 407 872 498 872 q 267 783 313 872 q 232 611 232 715 q 232 586 232 599 q 228 1 231 376 l 54 1 m 574 1 l 574 307 l 572 307 l 572 307 q 640 362 610 333 q 737 501 712 430 l 737 1 l 574 1 m 745 1098 l 69 1098 l 69 1220 l 746 1220 l 745 1098 "},"Ы":{"x_min":83.421875,"x_max":885.078125,"ha":874,"o":"m 804 1133 q 859 1112 836 1133 q 883 1061 883 1091 q 859 1010 883 1031 q 804 988 836 988 q 748 1010 771 988 q 725 1061 725 1031 q 748 1112 725 1091 q 804 1133 771 1133 m 590 1128 q 645 1107 622 1128 q 668 1056 668 1085 q 645 1004 668 1026 q 590 983 622 983 q 534 1004 557 983 q 511 1056 511 1026 q 534 1107 511 1085 q 590 1128 557 1128 m 601 942 q 696 942 603 942 q 792 942 789 942 l 792 493 q 600 611 712 581 q 601 942 602 775 m 533 1178 q 629 1163 594 1189 q 695 1073 663 1137 q 722 1125 698 1093 q 777 1172 749 1159 q 885 1190 832 1197 q 768 1210 842 1218 q 721 1181 748 1208 q 691 1140 699 1159 q 678 1178 685 1159 q 644 1221 672 1193 q 569 1256 616 1249 q 510 1257 560 1257 l 533 1178 m 83 1241 q 299 1014 209 1172 l 316 978 l 339 949 l 350 897 q 404 602 398 765 q 198 440 258 542 q 205 660 205 566 q 188 900 205 806 l 179 949 l 175 985 l 166 1017 q 83 1241 153 1108 m 512 597 q 735 503 640 597 q 828 299 828 411 q 741 88 828 176 q 512 -2 650 -2 q 279 86 365 -2 q 198 299 198 170 q 290 503 198 411 q 512 597 385 597 m 512 470 q 394 415 442 470 q 348 299 348 364 q 394 187 348 236 q 512 135 442 135 q 632 187 583 135 q 677 299 677 236 q 632 415 677 364 q 512 470 583 470 "},"χ":{"x_min":11,"x_max":715.671875,"ha":717,"o":"m 32 720 l 164 720 l 363 321 l 568 720 l 702 720 l 437 229 l 715 -276 l 576 -276 l 363 139 l 147 -276 l 11 -276 l 288 225 l 32 720 "},"8":{"x_min":79,"x_max":687,"ha":722,"o":"m 573 289 q 520 419 573 368 q 383 471 467 471 q 247 420 301 471 q 194 289 194 370 q 250 154 194 204 q 383 108 303 108 q 516 156 462 108 q 573 289 573 206 m 383 -3 q 168 82 257 -3 q 79 289 79 167 q 168 496 79 410 q 383 582 257 582 q 598 496 509 582 q 687 289 687 410 q 598 82 687 167 q 383 -3 509 -3 m 573 703 q 518 830 573 776 q 383 885 463 885 q 255 834 312 885 q 194 703 194 780 q 250 574 194 627 q 383 522 306 522 q 518 574 463 522 q 573 703 573 626 m 383 411 q 168 496 257 411 q 79 703 79 582 q 168 910 79 824 q 383 996 257 996 q 598 910 509 996 q 687 703 687 824 q 598 496 687 581 q 383 411 509 411 "},"ί":{"x_min":67.140625,"x_max":317.40625,"ha":325,"o":"m 92 0 l 92 720 l 215 720 l 215 0 l 92 0 m 67 809 l 157 999 l 317 999 l 168 809 l 67 809 "},"Ζ":{"x_min":4.75,"x_max":790.8125,"ha":981,"o":"m 382 735 q 550 668 481 735 q 618 505 618 601 q 549 343 618 411 q 382 276 480 276 q 216 343 285 276 q 147 505 147 411 q 216 668 147 601 q 382 735 284 735 m 385 672 q 264 623 314 672 q 214 505 214 575 q 264 386 214 436 q 385 337 314 337 q 505 386 455 337 q 556 505 556 436 q 506 623 556 575 q 385 672 456 672 m 4 7 l 4 129 l 514 766 q 617 884 568 834 l 62 884 l 62 1001 l 774 1001 l 774 884 l 155 124 l 790 124 l 790 7 l 4 7 "},"R":{"x_min":67.828125,"x_max":1017.328125,"ha":1085,"o":"m 67 0 l 67 991 l 203 991 l 203 585 l 610 585 l 610 990 l 746 991 l 746 0 l 610 0 l 610 474 l 203 474 l 203 0 l 67 0 m 609 1098 l 67 1098 l 67 1220 l 609 1220 l 609 1098 m 759 0 l 759 991 l 929 991 l 929 0 l 759 0 m 649 1138 q 673 1197 649 1172 q 731 1221 697 1221 q 789 1197 765 1221 q 813 1138 813 1173 q 789 1080 813 1104 q 731 1056 765 1056 q 673 1080 697 1056 q 649 1138 649 1104 m 851 1138 q 875 1196 851 1172 q 934 1220 900 1220 q 993 1196 969 1220 q 1017 1138 1017 1172 q 993 1079 1017 1103 q 934 1055 969 1055 q 875 1079 900 1055 q 851 1138 851 1104 "},"o":{"x_min":67.828125,"x_max":843.03125,"ha":918,"o":"m 67 1018 l 843 1018 l 843 0 l 678 0 l 678 858 l 236 857 l 236 0 l 67 0 l 67 1018 m 447 269 q 302 329 362 269 q 242 474 242 389 q 302 619 242 559 q 447 678 362 678 q 593 619 533 678 q 653 474 653 559 q 593 329 653 389 q 447 269 533 269 m 446 368 q 523 399 492 368 q 555 476 555 431 q 523 553 555 521 q 446 584 491 584 q 369 553 401 584 q 338 476 338 521 q 369 399 338 431 q 446 368 401 368 "},"5":{"x_min":35,"x_max":709.140625,"ha":728,"o":"m 237 50 l 273 99 q 450 123 388 96 q 589 319 562 172 q 592 354 592 337 q 477 520 592 460 q 296 567 391 565 l 306 656 q 557 610 479 648 q 709 316 713 534 q 599 88 706 179 q 379 4 501 4 q 237 50 294 4 m 72 477 q 145 448 102 448 q 227 483 195 448 q 284 644 284 544 q 279 702 284 642 q 273 790 281 718 q 183 792 183 788 q 174 655 187 771 q 79 598 138 658 q 49 535 49 569 q 72 477 49 504 m 192 575 q 182 538 206 561 q 144 529 159 514 q 154 566 130 543 q 192 575 177 590 m 41 955 q 35 921 35 938 q 56 858 35 887 q 111 819 78 830 q 203 809 145 809 q 675 897 410 809 l 675 992 q 258 915 527 953 q 239 947 251 932 q 155 1001 209 982 q 118 1008 136 1008 q 41 955 66 1008 m 182 890 q 144 883 175 872 q 119 913 112 894 q 158 920 126 931 q 182 890 189 909 m 163 306 q 240 272 209 306 q 269 194 271 238 q 212 68 265 125 q 145 12 178 40 q 87 -9 118 -9 q 58 9 72 -9 q 48 29 48 20 q 57 43 48 37 q 127 92 75 54 q 81 215 79 132 q 163 306 81 297 m 177 153 q 198 185 198 153 q 177 219 198 219 q 157 185 157 219 q 177 153 157 153 "},"Ѕ":{"x_min":62.828125,"x_max":1786.1875,"ha":878,"o":"m 1076 290 q 1030 396 1076 358 q 928 430 990 430 q 833 397 877 430 q 781 290 781 358 q 819 193 781 232 q 928 151 860 151 q 1035 188 994 151 q 1076 290 1076 225 m 623 290 q 714 494 623 408 q 928 581 805 581 q 1143 494 1052 581 q 1234 290 1234 408 q 1143 86 1234 173 q 928 0 1052 0 q 714 86 805 0 q 623 290 623 173 m 1076 691 q 1048 779 1076 741 q 928 830 1010 830 q 827 793 870 830 q 781 691 781 753 q 928 552 781 552 q 1076 691 1076 552 m 623 691 q 714 895 623 809 q 928 982 805 982 q 1143 895 1052 982 q 1234 691 1234 809 q 1143 487 1234 574 q 928 400 1052 400 q 714 487 805 400 q 623 691 623 574 m 1627 495 q 1600 583 1627 546 q 1480 634 1561 634 q 1379 597 1421 634 q 1333 495 1333 558 q 1480 356 1333 356 q 1627 495 1627 356 m 1174 495 q 1265 699 1174 613 q 1480 786 1356 786 q 1695 699 1604 786 q 1786 495 1786 613 q 1695 291 1786 378 q 1480 204 1604 204 q 1265 291 1356 204 q 1174 495 1174 378 m 515 494 q 488 581 515 545 q 368 633 450 633 q 267 596 310 633 q 221 494 221 556 q 368 355 221 355 q 515 494 515 355 m 62 494 q 154 698 62 611 q 368 785 245 785 q 583 698 492 785 q 674 494 674 611 q 583 290 674 377 q 368 204 492 204 q 154 290 245 204 q 62 494 62 377 m 1079 1245 q 1393 775 1354 1106 q 1234 663 1289 748 q 1210 806 1234 738 q 1079 1245 1210 1074 "},"─":{"x_min":-14,"x_max":1000.609375,"ha":1042,"o":"m 1000 362 l -14 362 l -14 481 l 1000 481 l 1000 362 "},",":{"x_min":115,"x_max":262,"ha":305,"o":"m 123 0 l 123 139 l 262 139 l 262 0 q 148 -197 262 -147 l 115 -144 q 192 0 188 -112 l 123 0 "},"d":{"x_min":51.546875,"x_max":1044.46875,"ha":1111,"o":"m 51 4 l 51 316 q 156 317 62 316 q 277 318 250 318 q 297 317 301 318 q 288 317 295 317 q 295 318 289 317 q 382 257 314 297 q 491 197 432 229 q 353 171 442 185 q 219 164 275 166 l 219 4 l 51 4 m 263 151 q 398 159 292 150 q 528 187 475 169 q 674 156 567 175 q 788 146 765 146 q 533 124 569 124 q 263 151 511 124 m 989 2 l 827 2 l 827 158 q 160 677 189 182 q 264 924 151 824 q 533 1018 375 1023 q 811 912 706 1013 q 909 670 911 813 q 840 440 906 529 q 735 343 810 398 l 571 399 q 668 493 655 476 q 730 660 730 570 q 653 811 730 753 q 539 856 594 855 q 436 835 485 856 q 337 680 336 792 q 474 413 338 508 q 754 316 576 342 q 988 299 812 307 l 989 2 m 908 610 l 1044 610 l 1044 715 l 908 715 l 908 610 m 583 610 l 718 610 l 718 715 l 583 715 l 583 610 "},"\"":{"x_min":64,"x_max":428,"ha":469,"o":"m 97 642 l 64 831 l 64 994 l 203 994 l 203 831 l 172 642 l 97 642 m 322 642 l 289 831 l 289 994 l 428 994 l 428 831 l 395 642 l 322 642 "},"˙":{"x_min":155,"x_max":306,"ha":349,"o":"m 155 810 l 155 962 l 306 962 l 306 810 l 155 810 "},"„":{"x_min":48,"x_max":400,"ha":443,"o":"m 59 0 l 59 142 l 190 142 l 190 29 q 168 -101 190 -61 q 77 -184 139 -156 l 48 -135 q 122 0 118 -107 l 59 0 m 269 0 l 269 142 l 400 142 l 400 29 q 378 -101 400 -61 q 288 -184 349 -156 l 258 -135 q 332 0 328 -107 l 269 0 "},"ч":{"x_min":67.828125,"x_max":1017.328125,"ha":1085,"o":"m 618 691 l 554 772 q 647 908 567 798 q 699 988 674 940 q 727 1028 719 1024 q 750 1024 735 1032 q 791 994 759 1016 q 822 978 800 993 q 825 963 830 971 q 706 806 805 929 q 639 712 682 771 q 618 691 621 690 m 521 575 l 457 662 q 427 630 440 647 q 393 543 397 589 q 392 510 392 527 q 455 290 392 347 q 542 258 492 258 q 634 297 599 258 q 682 459 682 349 q 649 594 682 536 q 570 712 611 656 q 493 813 531 763 q 355 1034 387 956 q 349 1039 354 1039 q 308 1012 344 1039 q 269 982 273 985 q 259 966 261 974 q 429 721 258 953 q 499 634 463 677 q 566 532 543 577 q 582 430 582 501 q 571 371 582 384 q 543 361 562 362 q 511 371 524 360 q 488 446 495 385 q 486 526 482 499 q 521 575 489 542 m 445 678 q 431 656 437 672 q 421 636 425 640 q 380 577 406 613 q 330 584 355 590 q 255 552 279 573 q 189 368 198 501 q 219 166 183 297 q 258 49 252 49 l 146 0 q 67 341 67 172 q 69 385 67 362 q 154 615 76 529 q 354 701 232 701 q 430 689 406 701 q 445 678 448 680 m 602 671 q 647 636 620 659 q 689 577 663 613 q 739 584 713 590 q 813 552 790 573 q 880 368 870 501 q 849 166 885 297 q 810 49 817 49 l 923 0 q 1001 340 1001 172 q 1000 385 1001 362 q 914 615 992 529 q 714 701 836 701 q 628 686 663 701 q 602 671 600 673 m 921 1220 l 921 1220 q 1008 1167 975 1220 l 1017 1127 q 999 1068 1017 1103 q 969 1038 981 1045 q 947 1020 969 1033 q 909 1003 914 1003 l 905 1003 q 870 1047 893 1015 q 950 1127 950 1085 q 909 1152 952 1152 q 841 1122 868 1152 l 813 1152 q 800 1183 822 1144 q 921 1220 863 1220 "},"δ":{"x_min":49,"x_max":725,"ha":754,"o":"m 118 994 l 661 994 l 661 895 l 281 895 q 494 726 348 826 q 665 571 618 640 q 725 352 725 485 q 638 88 725 188 q 383 -16 546 -16 q 134 89 225 -16 q 49 350 49 189 q 123 597 49 499 q 350 710 205 705 q 118 905 287 754 l 118 994 m 174 348 q 227 168 174 242 q 390 85 287 85 q 551 168 495 85 q 600 349 600 239 q 550 532 600 459 q 387 616 493 616 q 224 531 283 616 q 174 348 174 457 "},"Â":{"x_min":-2.171875,"x_max":976.5,"ha":918,"o":"m 513 1221 q 590 1179 549 1221 q 608 1130 608 1145 l 608 1102 q 557 1026 598 1053 q 498 1013 528 1013 q 402 1086 433 1013 l 398 1108 q 488 1221 398 1198 l 513 1221 m 499 977 q 667 939 569 975 q 905 731 829 872 q 963 588 963 634 q 976 493 972 556 q 921 283 976 417 q 808 132 888 210 q 649 37 713 53 q 556 6 634 27 q 519 0 536 0 l 492 0 q 90 196 235 0 q -2 491 -2 328 q 94 775 -2 629 q 180 870 126 818 q 499 977 315 977 m 440 948 l 440 888 q 366 868 440 880 q 157 707 224 817 q 90 486 90 604 q 174 243 90 356 q 280 148 238 169 q 404 101 328 119 q 437 95 404 98 l 440 92 l 440 42 l 545 42 l 545 97 q 563 104 545 103 l 563 101 q 687 150 618 115 q 881 501 881 282 q 756 786 881 659 q 627 864 691 841 l 545 884 l 545 948 l 440 948 m 452 935 l 532 935 l 537 930 l 537 57 l 532 53 l 452 53 l 448 57 l 448 930 l 452 935 m 366 1171 l 289 1056 l 150 1056 l 296 1246 l 426 1246 l 579 1056 l 440 1056 l 366 1171 "},"ω":{"x_min":59,"x_max":1026,"ha":1062,"o":"m 166 720 l 284 720 q 183 343 183 497 q 214 176 183 249 q 337 80 255 80 q 421 115 382 80 q 469 195 457 149 q 482 328 482 242 l 482 539 l 603 539 l 603 328 q 666 113 603 168 q 748 80 704 80 q 871 177 829 80 q 902 343 902 249 q 800 720 902 497 l 918 720 q 1026 350 1026 529 q 969 104 1026 202 q 762 -16 899 -16 q 542 146 608 -16 q 322 -16 476 -16 q 116 104 185 -16 q 59 350 59 202 q 166 720 59 529 "},"Í":{"x_min":95.625,"x_max":349.96875,"ha":323,"o":"m 137 0 l 137 810 l 319 810 l 319 0 l 137 0 m 223 1127 q 313 1091 276 1127 q 349 1003 349 1054 q 313 915 349 951 q 223 878 276 878 q 134 915 171 878 q 97 1003 97 951 q 134 1091 97 1054 q 223 1127 170 1127 m 223 1097 q 158 1070 185 1097 q 132 1007 132 1044 q 158 943 132 969 q 223 916 185 916 q 288 943 261 916 q 315 1007 315 969 q 288 1070 315 1044 q 223 1097 261 1097 m 95 1055 l 185 1245 l 345 1245 l 196 1055 l 95 1055 "},"Ú":{"x_min":109.1875,"x_max":1014.625,"ha":930,"o":"m 143 1037 l 286 1020 q 263 836 263 906 q 267 783 263 807 q 301 672 275 725 q 376 596 334 607 l 237 537 q 115 758 138 611 q 109 851 109 805 q 143 1037 109 942 m 535 662 q 624 603 544 619 q 653 659 638 631 q 672 744 672 701 q 519 931 672 931 q 412 870 463 931 q 360 733 359 807 q 389 627 362 669 q 427 583 408 605 q 251 520 310 555 q 115 324 131 451 q 109 225 109 273 q 157 -17 109 84 l 324 14 q 274 227 274 126 q 276 272 274 249 q 318 408 286 368 q 437 461 354 451 q 451 461 444 461 q 571 301 555 461 q 560 253 574 276 q 537 233 548 235 q 495 252 510 229 q 482 299 481 271 q 499 360 483 337 q 522 389 511 375 q 489 432 515 406 q 434 446 487 433 q 388 403 411 425 q 360 288 355 360 q 431 156 366 200 q 537 124 478 124 q 635 162 594 124 q 683 304 688 210 q 650 421 680 374 q 607 473 628 447 q 634 472 621 472 q 914 803 884 472 q 915 835 915 817 q 895 988 915 905 q 869 1064 878 1064 l 730 1034 q 763 813 765 895 q 736 666 760 725 q 622 587 699 581 q 482 758 482 598 q 499 803 482 794 q 519 807 509 805 q 541 800 530 804 q 556 760 555 791 q 549 702 557 729 q 535 662 541 682 m 689 451 q 733 422 714 443 q 786 265 779 371 q 787 242 787 254 q 744 30 787 162 l 893 -1 q 940 272 940 128 q 828 514 940 417 q 765 470 788 479 q 689 451 735 463 m 917 813 l 1014 813 l 1014 918 l 917 918 l 917 813 m 675 814 l 772 814 l 772 919 l 675 919 l 675 814 m 481 1055 l 571 1245 l 731 1245 l 582 1055 l 481 1055 "},"Ý":{"x_min":4.0625,"x_max":1675.203125,"ha":903,"o":"m 1515 413 q 1488 500 1515 463 q 1368 552 1450 552 q 1267 514 1310 552 q 1221 413 1221 475 q 1368 274 1221 274 q 1515 413 1515 274 m 1062 413 q 1154 617 1062 530 q 1368 704 1245 704 q 1583 617 1492 704 q 1675 413 1675 530 q 1583 208 1675 295 q 1368 122 1492 122 q 1154 208 1245 122 q 1062 413 1062 295 m 457 412 q 430 499 457 463 q 309 551 391 551 q 208 514 251 551 q 162 412 162 474 q 309 273 162 273 q 457 412 457 273 m 4 412 q 95 616 4 529 q 309 703 186 703 q 524 616 434 703 q 615 412 615 529 q 524 208 615 295 q 309 122 434 122 q 95 208 186 122 q 4 412 4 295 m 554 13 q 626 263 626 71 q 596 497 626 364 q 567 746 567 631 q 644 935 567 855 q 830 1016 722 1016 q 998 972 923 1016 q 1131 714 1126 896 q 1061 504 1134 581 q 931 430 1011 451 q 881 419 891 419 q 767 467 814 423 l 743 657 q 866 564 803 564 q 990 714 990 564 q 936 837 990 790 q 843 876 892 876 q 758 833 801 876 q 711 731 714 787 q 728 548 710 693 q 746 350 747 398 q 554 13 743 129 m 313 1055 l 403 1245 l 563 1245 l 414 1055 l 313 1055 "},"И":{"x_min":42.734375,"x_max":377.09375,"ha":475,"o":"m 137 -28 l 137 741 l 310 741 l 310 -28 l 137 -28 m 219 1043 q 304 1008 269 1043 q 339 924 339 973 q 304 840 339 875 q 219 806 269 806 q 134 840 170 806 q 99 924 99 875 q 134 1008 99 973 q 219 1043 169 1043 m 219 1013 q 158 988 183 1013 q 132 928 132 963 q 158 867 132 893 q 219 842 183 842 q 281 867 255 842 q 306 928 306 893 q 281 988 306 963 q 219 1013 255 1013 m 42 1123 l 42 1244 l 377 1244 l 377 1123 l 42 1123 "},"Љ":{"x_min":9,"x_max":1417,"ha":1405,"o":"m 799 994 l 799 570 l 1036 570 q 1234 548 1162 570 q 1383 427 1340 515 q 1417 289 1417 360 q 1374 132 1417 204 q 1253 26 1328 54 q 1055 0 1184 0 l 667 0 l 667 877 l 309 877 l 309 364 q 302 183 309 231 q 232 23 287 70 q 113 -17 185 -17 q 9 0 70 -17 l 31 115 q 87 102 64 102 q 168 172 150 102 q 177 293 177 204 l 177 994 l 799 994 m 799 112 l 1062 112 q 1246 180 1196 112 q 1276 285 1276 220 q 1159 444 1276 415 q 975 457 1106 457 l 799 457 l 799 112 "},"р":{"x_min":67.828125,"x_max":748.078125,"ha":814,"o":"m 67 -278 q 151 9 151 -212 q 117 281 151 126 q 82 569 82 436 q 172 788 82 695 q 387 882 262 882 q 581 830 495 882 q 735 532 730 743 q 655 289 739 378 q 504 202 597 227 q 446 190 457 190 q 314 246 369 195 l 286 465 q 429 358 356 358 q 572 532 572 358 q 510 674 572 620 q 402 720 459 720 q 305 670 354 720 q 250 552 252 616 q 269 339 248 508 q 290 111 291 166 q 67 -278 286 -144 m 748 1098 l 67 1098 l 67 1220 l 748 1220 l 748 1098 "},"т":{"x_min":67.140625,"x_max":864.734375,"ha":921,"o":"m 864 1098 l 67 1098 l 67 1220 l 864 1220 l 864 1098 m 394 0 l 394 876 l 67 876 l 67 993 l 855 993 l 855 876 l 526 876 l 526 0 l 394 0 "},"П":{"x_min":67.828125,"x_max":756.890625,"ha":819,"o":"m 67 967 l 756 967 l 756 0 l 590 0 l 590 821 l 233 821 l 233 0 l 67 0 l 67 967 m 745 1098 l 67 1098 l 67 1220 l 745 1220 l 745 1098 "},"z":{"x_min":71.890625,"x_max":728.40625,"ha":775,"o":"m 404 698 q 541 644 461 698 l 567 615 q 600 543 590 573 l 607 499 l 607 497 q 529 318 607 379 q 476 275 523 307 l 394 264 q 305 286 328 271 q 244 335 274 302 l 216 375 q 204 406 204 401 q 186 484 196 406 q 198 555 186 510 q 208 577 200 556 q 253 638 225 609 q 387 698 320 698 l 404 698 m 331 489 l 331 478 q 371 421 331 447 q 400 417 383 417 l 401 417 q 464 473 443 417 l 465 488 q 427 548 465 531 l 400 555 q 350 533 364 549 q 331 489 331 510 m 279 295 l 295 279 q 386 255 330 255 q 453 265 405 255 l 457 265 l 459 263 q 410 225 440 245 q 334 167 356 181 q 300 137 307 147 l 725 137 l 728 134 l 728 4 l 725 2 l 74 2 l 71 4 l 71 121 q 124 170 74 134 l 276 294 l 278 295 l 279 295 m 73 816 l 73 939 l 720 939 l 720 816 l 73 816 "},"Θ":{"x_min":65,"x_max":1016,"ha":1047,"o":"m 65 484 q 185 858 65 714 q 541 1012 315 1012 q 891 861 760 1012 q 1016 495 1016 718 q 890 132 1016 274 q 540 -17 758 -17 q 286 52 400 -17 q 115 250 168 124 q 65 484 65 368 m 201 482 q 286 211 201 317 q 539 96 379 96 q 797 216 705 96 q 880 496 880 325 q 798 776 880 667 q 541 899 707 899 q 278 774 367 899 q 201 482 201 665 m 344 439 l 344 555 l 737 555 l 737 439 l 344 439 "},"æ":{"x_min":46,"x_max":1178.625,"ha":1206,"o":"m 1175 220 q 858 -16 1105 -16 q 590 117 691 -16 q 292 -16 453 -16 q 121 34 189 -16 q 46 190 46 91 q 80 302 46 251 q 174 377 115 352 q 364 420 232 403 q 535 454 465 433 q 536 481 536 471 q 500 602 536 568 q 376 636 463 636 q 216 581 256 636 q 184 497 197 555 l 65 511 q 222 710 101 662 q 377 737 288 737 q 560 702 490 737 q 627 639 600 682 q 858 737 716 737 q 1145 542 1071 737 q 1178 369 1178 454 q 1177 328 1178 356 l 657 328 q 674 205 658 246 q 754 114 695 148 q 863 85 803 85 q 1048 236 1009 85 l 1175 220 m 657 429 l 1053 429 q 857 636 1034 636 q 713 577 766 636 q 657 429 663 521 m 537 361 q 319 311 483 337 q 215 277 244 299 q 176 193 176 246 q 219 107 176 137 q 316 80 257 80 q 444 113 386 80 q 527 214 508 151 q 537 361 537 248 "},"и":{"x_min":67.140625,"x_max":1140.09375,"ha":1189,"o":"m 172 992 l 316 929 q 234 474 227 695 q 286 234 240 303 q 414 172 326 174 q 564 236 480 170 l 661 112 q 406 0 564 0 q 176 129 274 0 q 69 480 73 266 q 172 992 61 756 m 790 252 l 712 379 q 809 647 809 484 q 741 827 808 816 q 638 624 647 821 q 696 374 633 526 q 895 176 777 183 q 1013 256 967 172 l 1118 147 q 891 6 1039 6 q 622 182 755 6 q 484 564 486 363 q 554 881 481 762 q 729 992 623 992 q 895 901 828 992 q 963 685 959 813 q 790 252 974 386 m 67 1220 l 1140 1220 l 1140 1098 l 67 1098 l 67 1220 "},"~":{"x_min":59,"x_max":752.828125,"ha":794,"o":"m 59 378 l 59 516 q 247 598 130 598 q 460 538 321 598 q 577 506 535 506 q 752 600 668 506 l 752 455 q 564 378 670 378 q 370 433 493 378 q 236 470 289 470 q 59 378 154 470 "},"³":{"x_min":23,"x_max":439,"ha":478,"o":"m 23 630 l 122 640 q 157 584 135 599 q 226 564 186 564 q 299 587 269 564 q 333 654 333 612 q 225 729 333 729 q 206 728 219 729 q 187 728 193 728 l 202 802 q 309 870 309 800 q 228 931 309 931 q 131 862 158 931 l 34 877 q 106 977 63 949 q 228 1006 149 1006 q 415 879 415 1006 q 321 770 415 797 q 439 641 439 741 q 371 521 439 564 q 232 485 314 485 q 23 630 52 485 "},"¡":{"x_min":157,"x_max":308,"ha":343,"o":"m 302 720 l 302 581 l 162 581 l 162 720 l 302 720 m 270 472 l 308 -53 l 308 -274 l 157 -274 l 157 -53 l 192 472 l 270 472 "},"[":{"x_min":67.546875,"x_max":1324.5625,"ha":1370,"o":"m 1085 542 l 1084 1013 l 339 1013 l 339 923 l 434 881 l 478 866 l 647 868 l 647 0 l 786 0 l 788 868 l 949 868 l 948 542 l 1085 542 m 472 624 q 458 556 470 575 q 428 518 444 533 q 363 537 383 535 q 330 511 327 539 q 363 485 333 487 q 372 486 367 485 q 440 508 423 495 q 487 619 472 535 q 489 634 488 626 q 425 747 492 696 q 275 831 394 771 q 140 932 204 868 q 67 1068 63 1009 q 120 1024 67 1062 q 309 931 196 971 q 528 816 462 875 q 627 612 610 742 q 629 569 630 590 q 501 394 623 455 q 354 354 413 349 q 248 413 297 359 q 202 524 198 467 q 256 622 204 582 q 365 657 307 661 q 472 624 444 651 m 626 493 q 570 408 612 446 q 518 379 557 396 q 468 358 493 368 q 468 339 469 346 q 293 164 465 269 q 149 66 180 94 q 105 18 127 42 q 73 -35 79 -8 q 69 -67 71 -52 q 291 44 110 -1 q 564 211 477 92 q 630 407 625 296 q 626 493 633 455 m 1056 520 q 1245 438 1164 520 q 1324 262 1324 359 q 1250 78 1324 154 q 1056 0 1173 0 q 856 77 929 0 q 786 262 786 149 q 865 438 786 359 q 1056 520 947 520 m 1056 400 q 954 355 995 400 q 917 255 917 311 q 954 158 917 199 q 1056 114 995 114 q 1156 158 1116 114 q 1193 255 1193 199 q 1156 355 1193 311 q 1056 400 1115 400 m 619 1178 q 788 1059 701 1171 q 813 1017 815 1017 q 754 1017 788 1018 q 683 1017 720 1017 q 619 1178 678 1085 m 786 881 l 786 370 l 811 401 l 854 438 l 854 709 l 838 881 l 786 881 "},"ζ":{"x_min":49,"x_max":601,"ha":594,"o":"m 159 994 l 601 994 l 601 911 q 312 642 435 809 q 172 280 172 452 q 208 160 172 199 q 327 114 245 120 q 451 97 420 105 q 554 33 518 80 q 588 -69 588 -9 q 549 -188 588 -132 q 453 -269 511 -245 q 323 -292 399 -292 l 356 -179 q 471 -83 471 -166 q 407 -7 471 -22 q 307 1 379 -1 q 74 143 131 6 q 49 285 49 206 q 174 632 49 451 q 441 895 285 789 l 159 895 l 159 994 "},"К":{"x_min":67.828125,"x_max":652.453125,"ha":706,"o":"m 652 973 l 153 505 l 651 0 l 338 501 l 652 973 m 67 969 l 67 0 l 234 0 l 234 969 l 67 969 m 646 1098 l 67 1098 l 67 1220 l 646 1220 l 646 1098 "},"Γ":{"x_min":111,"x_max":732.25,"ha":690,"o":"m 111 994 l 732 994 l 732 877 l 243 877 l 243 0 l 111 0 l 111 994 "},"ѳ":{"x_min":62,"x_max":710,"ha":748,"o":"m 62 497 q 386 1011 62 1011 q 710 497 710 1011 q 386 -16 710 -16 q 62 497 62 -16 m 188 546 l 584 546 q 384 910 572 910 q 188 546 195 910 m 584 448 l 188 448 q 386 85 195 85 q 584 448 577 85 "},"%":{"x_min":67.140625,"x_max":984.09375,"ha":1059,"o":"m 738 199 l 738 354 l 599 356 l 599 488 l 738 488 l 737 626 l 859 626 l 859 484 l 984 485 l 982 357 l 859 358 l 859 198 l 738 199 m 391 1005 q 462 977 433 1005 q 491 910 491 950 q 462 845 491 872 q 391 817 433 817 q 321 845 350 817 q 293 910 293 872 q 321 977 293 950 q 391 1005 350 1005 m 324 800 l 457 800 l 457 597 l 324 472 q 324 800 329 803 m 768 853 l 860 744 l 341 295 q 223 264 274 264 q 132 291 175 264 q 67 415 67 332 q 211 575 67 575 q 256 571 225 575 q 300 568 286 568 l 300 446 q 236 461 260 461 q 187 427 187 461 q 228 387 187 387 q 309 424 263 387 q 768 853 344 453 m 324 4 l 456 4 l 457 373 q 402 318 430 345 q 323 264 359 280 q 324 132 322 263 q 324 4 324 69 m 780 -20 l 870 65 l 520 425 l 480 400 l 480 280 l 780 -20 "},"P":{"x_min":72.5625,"x_max":651.765625,"ha":716,"o":"m 352 1235 q 474 1132 436 1235 q 484 1077 484 1098 l 484 1075 q 453 945 484 991 q 422 891 438 911 q 383 950 417 893 q 362 989 363 976 l 362 994 q 389 1079 389 1034 q 352 1129 378 1129 q 321 1081 321 1118 l 321 1077 q 347 989 329 1020 q 586 631 347 976 l 651 538 l 651 537 l 472 294 q 419 223 432 235 l 366 289 q 358 305 362 289 l 443 421 q 524 535 451 435 l 356 784 q 248 961 269 906 q 228 1072 228 1024 q 295 1216 228 1156 q 350 1235 314 1228 l 352 1235 m 287 857 q 341 781 341 786 l 301 711 l 243 623 q 186 540 195 549 l 183 533 l 326 330 q 446 149 434 183 q 479 21 470 105 l 479 16 q 432 -102 479 -35 l 406 -122 q 356 -138 375 -138 l 349 -138 q 256 -82 301 -138 q 227 0 238 -50 q 223 25 223 6 l 223 27 q 282 203 223 128 q 303 174 288 200 q 341 117 341 124 q 313 24 313 48 q 350 -40 319 -40 q 381 23 377 -32 l 381 27 q 341 141 376 80 q 174 379 289 222 l 73 527 l 72 533 q 228 774 134 625 l 287 857 m 219 501 l 219 581 l 493 581 l 493 501 l 219 501 "},"_":{"x_min":140.390625,"x_max":1002.40625,"ha":1148,"o":"m 315 -292 l 828 292 l 889 225 l 383 -358 l 315 -292 m 562 -77 l 140 -77 l 140 10 l 492 10 l 312 234 l 385 292 l 611 10 l 1002 10 l 1002 -77 l 682 -77 l 860 -299 l 784 -354 l 562 -77 "},"‚":{"x_min":73,"x_max":215,"ha":258,"o":"m 84 0 l 84 142 l 215 142 l 215 29 q 193 -101 215 -61 q 102 -184 164 -156 l 73 -135 q 147 0 143 -107 l 84 0 "},"Ρ":{"x_min":107.5625,"x_max":686.765625,"ha":853,"o":"m 387 1235 q 509 1132 471 1235 q 519 1077 519 1098 l 519 1075 q 488 945 519 991 q 457 891 473 911 q 418 950 452 893 q 397 989 398 976 l 397 994 q 424 1079 424 1034 q 387 1129 413 1129 q 356 1081 356 1118 l 356 1077 q 382 989 364 1020 q 621 631 382 976 l 686 538 l 686 537 l 507 294 q 454 223 467 235 l 401 289 q 393 305 397 289 l 478 421 q 559 535 486 435 l 391 784 q 283 961 304 906 q 263 1072 263 1024 q 330 1216 263 1156 q 385 1235 349 1228 l 387 1235 m 322 857 q 376 781 376 786 l 336 711 l 278 623 q 221 540 230 549 l 218 533 l 361 330 q 481 149 469 183 q 514 21 505 105 l 514 16 q 467 -102 514 -35 l 441 -122 q 391 -138 410 -138 l 384 -138 q 291 -82 336 -138 q 262 0 273 -50 q 258 25 258 6 l 258 27 q 317 203 258 128 q 338 174 323 200 q 376 117 376 124 q 348 24 348 48 q 385 -40 354 -40 q 416 23 412 -32 l 416 27 q 376 141 411 80 q 209 379 324 222 l 108 527 l 107 533 q 263 774 169 625 l 322 857 m 254 501 l 254 581 l 528 581 l 528 501 l 254 501 "},"₣":{"x_min":0,"x_max":703.3125,"ha":671,"o":"m 114 167 l 0 167 l 0 268 l 114 268 l 114 994 l 703 994 l 703 877 l 246 877 l 246 569 l 630 569 l 630 452 l 246 452 l 246 268 l 459 268 l 459 167 l 246 167 l 246 0 l 114 0 l 114 167 "},"ğ":{"x_min":44.828125,"x_max":1161.859375,"ha":722,"o":"m 44 1018 l 205 1017 l 205 165 l 994 164 l 994 1017 l 1161 1017 l 1161 0 l 44 0 l 44 1018 m 247 712 q 242 742 247 712 q 238 790 238 761 q 283 889 238 838 q 419 952 338 952 q 535 931 491 952 q 605 871 570 913 q 674 782 640 826 q 764 728 698 754 q 927 686 835 699 q 803 676 858 676 q 597 737 653 676 q 527 817 562 777 q 420 853 484 855 q 318 809 375 851 q 247 712 256 762 m 415 695 q 421 709 417 695 q 425 737 425 724 q 411 770 425 763 q 369 780 394 780 q 337 773 351 780 q 369 804 346 788 q 425 824 398 824 q 461 813 444 824 q 470 789 470 807 q 454 734 470 763 q 415 695 438 702 m 294 716 q 259 676 277 697 q 233 617 242 653 q 222 496 222 573 q 287 289 222 368 q 474 204 355 208 q 550 223 503 202 q 592 244 592 240 q 639 219 607 231 q 717 203 679 203 q 862 229 818 203 q 964 468 952 286 q 965 494 965 480 q 953 609 965 545 q 942 663 942 673 l 834 640 q 852 476 853 575 q 831 362 851 397 q 723 305 802 309 q 633 335 676 303 q 599 365 599 359 q 550 335 582 351 q 472 312 505 314 q 379 362 421 310 q 335 496 335 419 q 350 609 335 570 q 380 660 355 624 l 294 716 m 276 1017 l 276 1145 l 949 1145 l 949 1017 l 276 1017 m 481 993 l 564 993 q 364 817 543 817 q 164 993 185 817 l 247 993 q 360 901 266 901 q 481 993 463 901 "},"ѓ":{"x_min":91.828125,"x_max":705.609375,"ha":814,"o":"m 93 988 l 704 990 l 704 844 l 257 844 l 255 0 l 93 2 l 93 988 m 91 1220 l 705 1220 l 705 1098 l 91 1098 l 91 1220 "},"ы":{"x_min":0,"x_max":586,"ha":627,"o":"m 501 934 q 554 913 533 934 q 576 865 576 893 q 555 811 576 834 q 501 786 533 786 q 449 810 470 786 q 428 865 428 834 q 448 913 428 893 q 501 934 469 934 m 436 734 l 572 734 l 572 350 q 436 465 507 450 l 436 734 m 0 941 q 184 753 107 886 q 273 487 257 628 q 117 381 189 466 q 123 488 123 433 q 90 740 123 619 q 0 941 57 864 m 342 471 q 514 396 440 471 q 586 236 586 325 q 518 69 586 139 q 342 -2 448 -2 q 161 68 227 -2 q 98 236 98 134 q 169 396 98 325 q 342 471 243 471 m 342 362 q 250 320 287 362 q 217 229 217 281 q 250 142 217 179 q 342 102 287 102 q 433 142 397 102 q 467 229 467 179 q 433 320 467 281 q 342 362 396 362 "},"ї":{"x_min":42.734375,"x_max":377.09375,"ha":439,"o":"m 137 -28 l 137 741 l 310 741 l 310 -28 l 137 -28 m 219 1043 q 304 1008 269 1043 q 339 924 339 973 q 304 840 339 875 q 219 806 269 806 q 134 840 170 806 q 99 924 99 875 q 134 1008 99 973 q 219 1043 169 1043 m 219 1013 q 158 988 183 1013 q 132 928 132 963 q 158 867 132 893 q 219 842 183 842 q 281 867 255 842 q 306 928 306 893 q 281 988 306 963 q 219 1013 255 1013 m 42 1123 l 42 1244 l 377 1244 l 377 1123 l 42 1123 "},"Œ":{"x_min":87,"x_max":1344.4375,"ha":1325,"o":"m 1344 117 l 1344 0 l 760 0 l 760 143 q 488 -17 668 -17 q 179 140 283 -17 q 87 498 87 278 q 175 853 87 719 q 488 1011 279 1011 q 760 859 667 1011 l 760 994 l 1323 994 l 1323 877 l 883 877 l 883 573 l 1288 573 l 1288 457 l 883 457 l 883 117 l 1344 117 m 488 905 q 344 853 408 905 q 256 727 285 805 q 223 488 223 637 q 276 226 223 332 q 488 89 346 89 q 702 233 635 89 q 753 505 753 340 q 699 767 753 662 q 488 905 630 905 "},"T":{"x_min":45.4375,"x_max":1096.015625,"ha":1153,"o":"m 563 1050 l 563 1047 l 566 1050 l 568 1050 q 861 958 724 1050 q 893 937 861 954 l 940 897 q 1044 744 1030 797 q 1089 592 1073 697 l 1096 532 l 1093 518 q 983 200 1093 349 q 859 87 914 122 q 714 19 801 47 q 583 0 628 0 l 561 0 q 219 130 379 0 q 120 250 149 202 q 48 489 48 385 l 45 491 l 45 493 l 48 495 l 48 498 l 45 514 l 48 529 l 45 536 l 48 538 l 48 541 l 45 554 q 97 752 60 678 q 187 883 122 807 q 255 944 250 944 q 431 1030 347 1009 l 471 1041 l 473 1039 l 476 1039 q 563 1050 476 1043 m 293 912 l 304 910 l 307 910 l 307 912 l 301 916 l 297 916 l 293 912 m 559 897 l 548 899 q 421 870 477 893 q 304 788 343 834 q 205 617 231 711 l 200 608 l 203 606 l 203 604 q 194 526 194 557 q 211 408 194 451 q 241 333 211 393 q 311 245 274 280 q 383 191 347 212 q 417 177 383 186 l 478 153 l 480 155 l 482 155 l 530 146 l 532 149 l 555 146 l 566 146 l 568 143 l 571 146 l 581 146 q 741 189 647 146 q 920 392 862 254 q 946 516 946 480 l 944 532 l 946 533 l 946 536 q 913 678 946 590 q 792 829 885 745 q 703 876 737 863 q 588 901 672 887 l 559 897 m 555 779 l 563 777 l 579 777 l 581 775 l 583 777 l 590 777 l 593 775 l 594 777 q 717 732 650 774 q 786 647 772 680 q 818 552 802 628 l 818 529 l 820 511 q 793 408 807 430 q 640 281 746 318 q 575 270 632 277 l 566 273 l 559 270 q 435 308 504 270 q 338 423 368 351 q 320 480 328 446 l 322 486 l 318 522 q 342 623 318 581 q 451 746 365 691 q 555 779 516 779 m 478 619 l 476 622 l 473 622 q 459 600 472 611 q 435 500 435 561 q 496 410 459 429 q 563 389 530 389 q 692 469 649 389 l 703 516 q 672 608 703 573 q 579 656 621 656 l 572 653 l 566 656 q 484 626 510 647 l 478 619 m 1064 623 l 1064 619 l 1070 619 l 1070 623 l 1064 623 m 48 1127 l 1089 1127 l 1089 1249 l 45 1249 l 48 1127 "},"Њ":{"x_min":111,"x_max":1351,"ha":1337,"o":"m 734 994 l 734 570 l 954 570 q 1146 554 1082 570 q 1302 452 1250 528 q 1351 289 1351 382 q 1306 128 1351 203 q 1180 23 1258 49 q 982 0 1112 0 l 602 0 l 602 457 l 243 457 l 243 0 l 111 0 l 111 994 l 243 994 l 243 570 l 602 570 l 602 994 l 734 994 m 734 112 l 979 112 q 1088 120 1056 112 q 1178 177 1144 133 q 1210 285 1210 218 q 1098 442 1210 411 q 893 457 1041 457 l 734 457 l 734 112 "},"š":{"x_min":43.109375,"x_max":534.3125,"ha":665,"o":"m 46 -212 l 77 -113 q 195 -46 131 -52 q 332 -34 299 -52 q 372 30 372 -12 q 346 78 372 61 q 255 107 328 89 q 149 138 174 128 q 62 201 85 162 q 43 271 43 233 q 102 386 43 342 q 236 423 153 423 q 414 357 365 423 q 442 312 436 326 l 370 281 q 242 349 345 349 q 129 282 129 349 q 174 227 129 244 q 252 204 186 222 q 356 174 340 181 q 443 115 418 151 q 464 40 464 85 q 363 -103 464 -60 q 252 -125 315 -125 q 46 -212 125 -113 m 321 884 l 395 1000 l 534 1000 l 381 810 l 251 810 l 105 1000 l 244 1000 l 321 884 "},"є":{"x_min":54.953125,"x_max":679.640625,"ha":697,"o":"m 435 419 l 435 318 l 180 318 q 377 85 203 85 q 560 263 532 85 l 679 247 q 581 56 660 129 q 372 -16 506 -11 q 134 82 215 -20 q 55 360 52 184 q 142 636 57 538 q 381 737 229 737 q 570 677 493 737 q 667 507 649 616 l 548 488 q 377 636 518 636 q 237 568 291 636 q 180 419 191 510 l 435 419 "},"Þ":{"x_min":107,"x_max":866,"ha":854,"o":"m 107 0 l 107 994 l 239 994 l 239 792 l 482 792 q 634 782 580 792 q 836 639 779 756 q 866 503 866 577 q 493 202 866 202 l 239 202 l 239 0 l 107 0 m 239 319 l 495 319 q 730 499 730 319 q 701 602 730 558 q 616 665 670 649 q 492 675 582 675 l 239 675 l 239 319 "},"j":{"x_min":67.78125,"x_max":646.34375,"ha":709,"o":"m 226 324 q 240 392 229 373 q 270 430 255 415 q 335 411 315 412 q 368 437 371 409 q 335 463 366 461 q 326 462 331 463 q 259 440 275 453 q 211 329 226 413 q 210 314 210 322 q 274 201 206 252 q 423 117 305 177 q 558 16 494 80 q 631 -118 636 -61 q 579 -75 632 -113 q 389 17 502 -23 q 170 132 236 73 q 71 336 88 206 q 69 379 68 358 q 197 554 75 493 q 344 594 285 599 q 451 535 401 589 q 497 424 500 481 q 443 326 494 366 q 333 290 392 286 q 226 324 255 297 m 73 455 q 128 540 86 502 q 181 569 141 552 q 230 590 205 580 q 230 609 229 602 q 405 784 233 678 q 550 882 518 853 q 593 930 571 906 q 626 984 619 958 q 629 1017 628 1001 q 407 904 588 950 q 134 737 221 856 q 68 541 73 652 q 73 455 65 493 m 67 1092 l 67 1220 l 646 1220 l 646 1092 l 67 1092 "},"Ѱ":{"x_min":86,"x_max":1074,"ha":1086,"o":"m 86 994 l 218 994 l 218 726 q 289 499 218 570 q 514 420 356 432 l 514 994 l 646 994 l 646 420 q 872 506 803 429 q 942 742 942 584 l 942 994 l 1074 994 l 1074 713 q 646 307 1074 313 l 646 0 l 514 0 l 514 307 q 86 701 86 314 l 86 994 "},"Σ":{"x_min":100,"x_max":804,"ha":791,"o":"m 776 994 l 776 877 l 242 877 l 581 516 l 242 117 l 804 117 l 804 0 l 100 0 l 100 137 l 424 516 l 100 862 l 100 994 l 776 994 "},"1":{"x_min":100.96875,"x_max":517.421875,"ha":532,"o":"m 121 451 q 101 467 103 451 q 114 485 100 475 q 152 522 136 501 q 254 647 204 590 l 254 539 q 192 495 228 522 q 121 451 162 459 m 417 680 q 480 737 447 681 q 517 864 517 797 q 487 967 517 930 q 424 1000 460 1000 q 329 945 377 1000 q 266 752 266 873 l 266 46 q 280 9 266 18 q 331 0 293 1 q 358 -1 342 0 q 380 -3 374 -3 q 406 28 406 -3 l 406 838 q 420 862 406 862 q 426 849 426 862 q 417 817 426 826 l 417 680 "},"›":{"x_min":62,"x_max":369.234375,"ha":394,"o":"m 241 359 l 62 667 l 163 667 l 369 363 l 163 49 l 62 49 l 241 359 "},"→":{"x_min":53,"x_max":1334.171875,"ha":1348,"o":"m 1054 594 q 1334 367 1213 419 l 1334 337 q 1053 106 1203 274 l 1001 106 q 1134 316 1064 242 l 53 316 l 53 385 l 1134 385 q 1002 594 1058 481 l 1054 594 "},"ℓ":{"x_min":11,"x_max":439,"ha":463,"o":"m 11 286 l 131 445 l 131 754 q 154 926 131 870 q 289 1011 190 1011 q 398 964 358 1011 q 439 848 439 918 q 246 450 439 720 l 246 169 q 248 113 246 127 q 283 80 256 80 q 419 152 315 80 l 419 42 q 266 -16 343 -16 q 131 147 131 -16 l 131 299 l 77 233 l 11 286 m 246 609 q 309 723 296 697 q 344 848 344 797 q 292 930 344 930 q 261 912 271 930 q 246 763 246 884 l 246 609 "},"<":{"x_min":76,"x_max":734.546875,"ha":748,"o":"m 76 434 l 76 548 l 734 827 l 734 706 l 212 491 l 734 274 l 734 153 l 76 434 "},"Ц":{"x_min":67.828125,"x_max":674.828125,"ha":746,"o":"m 68 996 l 68 550 l 223 550 l 223 996 l 68 996 m 516 992 l 516 0 l 672 0 l 672 992 l 516 992 m 67 444 l 642 444 l 642 598 l 67 598 l 67 444 m 674 1098 l 67 1098 l 67 1220 l 674 1220 l 674 1098 "},"t":{"x_min":67.828125,"x_max":813.875,"ha":882,"o":"m 813 474 l 813 949 l 67 949 l 67 474 l 203 474 l 203 813 l 339 813 l 339 0 l 542 0 l 542 813 l 678 813 l 678 474 l 813 474 m 531 1162 q 586 1141 563 1162 q 609 1089 609 1119 q 586 1038 609 1060 q 531 1017 563 1017 q 475 1038 498 1017 q 452 1089 452 1060 q 475 1141 452 1119 q 531 1162 498 1162 m 349 1163 q 405 1141 382 1163 q 428 1090 428 1120 q 405 1039 428 1060 q 349 1018 382 1018 q 294 1039 317 1018 q 271 1090 271 1060 q 294 1141 271 1120 q 349 1163 317 1163 "},"¬":{"x_min":77,"x_max":734,"ha":784,"o":"m 734 288 l 619 288 l 619 585 l 77 585 l 77 699 l 734 699 l 734 288 "},"Ф":{"x_min":67.828125,"x_max":891.1875,"ha":950,"o":"m 479 796 q 770 680 649 796 q 891 402 891 564 q 770 124 891 239 q 479 8 649 8 q 188 124 309 8 q 67 402 67 239 q 188 680 67 564 q 479 796 309 796 m 480 668 q 289 591 364 668 q 215 400 215 514 q 289 213 215 287 q 480 139 364 139 q 672 213 597 139 q 746 400 746 287 q 672 591 746 514 q 480 668 596 668 m 257 986 q 280 988 268 988 q 406 955 324 988 q 521 922 489 922 q 736 947 624 922 q 661 874 699 911 q 526 828 600 828 q 383 854 460 828 q 270 885 299 883 q 240 887 255 887 q 99 857 158 887 q 167 938 125 902 q 257 986 215 979 m 736 947 q 672 862 673 864 q 592 686 621 784 q 548 389 551 555 q 518 98 544 207 q 416 -109 487 -29 q 347 -152 394 -133 q 221 -176 289 -176 q 177 -172 199 -176 q 300 -122 260 -166 q 354 -26 314 -106 q 386 148 372 8 q 400 383 399 274 q 469 730 403 605 q 609 872 516 818 q 736 947 734 946 m 887 1098 l 67 1098 l 67 1220 l 887 1220 l 887 1098 "},"Ò":{"x_min":66.828125,"x_max":1092.96875,"ha":1049,"o":"m 580 1022 q 944 872 795 1022 q 1092 510 1092 722 q 943 150 1092 299 q 580 1 793 1 q 221 150 370 1 q 71 510 71 299 q 219 872 71 722 q 580 1022 367 1022 m 580 882 q 319 774 426 882 q 211 512 211 666 q 319 250 211 358 q 580 142 426 142 q 842 250 734 142 q 950 512 950 358 q 843 774 950 666 q 580 882 735 882 m 66 1098 l 66 1220 l 1087 1220 l 1087 1098 l 66 1098 m 620 1056 l 521 1056 l 365 1246 l 528 1246 l 620 1056 "},"О":{"x_min":51.546875,"x_max":1023.4375,"ha":1086,"o":"m 84 664 q 76 704 84 664 q 72 767 72 729 q 131 897 72 830 q 309 980 202 980 q 460 951 403 980 q 551 872 506 928 q 642 756 597 815 q 760 686 674 720 q 973 631 853 649 q 810 619 882 619 q 541 699 613 619 q 449 803 496 751 q 310 849 394 851 q 176 792 251 847 q 84 664 95 730 m 303 642 q 311 661 306 642 q 316 699 316 680 q 298 741 316 731 q 244 754 276 754 q 200 745 219 754 q 243 786 213 765 q 316 811 281 811 q 364 796 341 811 q 375 766 375 789 q 354 693 375 731 q 303 642 333 652 m 145 671 q 100 619 122 645 q 65 541 76 587 q 51 383 51 483 q 136 112 51 215 q 380 0 225 6 q 480 25 419 0 q 535 54 535 48 q 596 20 554 36 q 699 0 649 0 q 887 34 830 0 q 1021 346 1005 108 q 1022 380 1022 362 q 1007 530 1022 446 q 992 602 992 614 l 851 572 q 874 356 876 486 q 847 207 872 253 q 706 134 809 139 q 588 172 644 130 q 544 212 544 203 q 479 172 522 193 q 377 142 421 144 q 256 208 311 140 q 199 383 199 281 q 218 530 199 479 q 257 597 225 550 l 145 671 m 1023 1098 l 67 1098 l 67 1220 l 1023 1220 l 1023 1098 "},"ξ":{"x_min":62,"x_max":596,"ha":576,"o":"m 523 1011 l 523 910 l 423 910 q 213 783 213 910 q 415 667 213 667 l 515 667 l 515 566 q 239 444 333 566 q 186 289 186 376 q 244 154 186 199 q 388 108 291 119 q 492 85 457 100 q 570 15 541 63 q 596 -75 596 -26 q 507 -239 596 -178 q 323 -292 431 -290 l 354 -178 q 435 -154 402 -175 q 477 -83 477 -127 q 361 -1 477 -14 q 62 284 62 31 q 124 472 62 387 q 282 595 183 553 q 151 657 201 605 q 99 792 99 712 q 200 962 99 902 q 402 1011 284 1011 l 523 1011 "},"&":{"x_min":59,"x_max":893.890625,"ha":901,"o":"m 659 117 q 373 -17 538 -17 q 131 86 221 -17 q 59 273 59 170 q 295 570 59 458 q 184 789 184 699 q 259 950 184 886 q 430 1011 331 1011 q 592 953 526 1011 q 662 798 662 893 q 474 556 662 657 l 652 329 q 699 467 682 389 l 826 440 q 738 226 794 310 q 893 73 807 135 l 811 -23 q 659 117 737 24 m 410 635 q 497 699 472 672 q 537 795 537 740 q 505 877 537 845 q 424 910 473 910 q 342 879 376 910 q 309 800 309 848 q 356 698 309 753 l 410 635 m 582 213 l 358 491 q 191 281 191 390 q 244 149 191 205 q 375 91 299 91 q 493 127 433 91 q 582 213 549 162 "},"˝":{"x_min":39,"x_max":517.140625,"ha":547,"o":"m 39 810 l 121 1000 l 279 1000 l 136 810 l 39 810 m 274 810 l 360 1000 l 517 1000 l 376 810 l 274 810 "},"I":{"x_min":97.671875,"x_max":349.96875,"ha":475,"o":"m 137 0 l 137 810 l 319 810 l 319 0 l 137 0 m 223 1127 q 313 1091 276 1127 q 349 1003 349 1054 q 313 915 349 951 q 223 878 276 878 q 134 915 171 878 q 97 1003 97 951 q 134 1091 97 1054 q 223 1127 170 1127 m 223 1097 q 158 1070 185 1097 q 132 1007 132 1044 q 158 943 132 969 q 223 916 185 916 q 288 943 261 916 q 315 1007 315 969 q 288 1070 315 1044 q 223 1097 261 1097 "},"G":{"x_min":74,"x_max":994,"ha":1008,"o":"m 573 390 l 573 507 l 994 507 l 994 138 q 582 -17 799 -17 q 322 42 437 -17 q 135 227 197 106 q 74 492 74 345 q 130 754 74 635 q 309 949 193 887 q 571 1011 423 1011 q 903 878 798 1011 q 978 716 952 816 l 860 683 q 709 872 818 826 q 572 898 647 898 q 311 798 400 898 q 210 500 210 686 q 389 145 210 234 q 574 102 476 102 q 728 129 648 102 q 865 205 812 158 l 865 390 l 573 390 "},"ΰ":{"x_min":92.234375,"x_max":668.734375,"ha":711,"o":"m 92 720 l 214 720 l 214 293 q 251 149 214 204 q 379 84 295 84 q 471 112 429 84 q 531 187 514 141 q 547 303 547 227 l 547 720 l 668 720 l 668 298 q 597 69 668 151 q 377 -16 522 -16 q 225 20 293 -16 q 118 132 150 60 q 92 293 92 191 l 92 720 m 384 1022 l 510 1022 l 375 834 l 295 834 l 384 1022 m 510 964 l 627 964 l 627 834 l 510 834 l 510 964 m 134 964 l 251 964 l 251 834 l 134 834 l 134 964 "},"`":{"x_min":60,"x_max":315.015625,"ha":350,"o":"m 315 810 l 216 810 l 60 1000 l 223 1000 l 315 810 "},"¿":{"x_min":107,"x_max":747.921875,"ha":698,"o":"m 497 720 l 497 581 l 358 581 l 358 720 l 497 720 m 488 475 q 489 440 489 452 q 469 314 489 367 q 420 234 453 274 q 330 149 403 213 q 250 61 269 95 q 232 -11 232 28 q 290 -139 232 -87 q 424 -190 346 -190 q 623 10 591 -190 l 747 -4 q 647 -216 730 -141 q 426 -291 564 -291 q 205 -222 295 -291 q 107 -19 107 -146 q 151 122 107 56 q 256 233 181 167 q 319 293 304 276 q 362 369 351 330 q 371 475 370 402 l 488 475 "},"ý":{"x_min":22.375,"x_max":673.46875,"ha":689,"o":"m 147 0 l 27 0 l 27 911 l 641 911 l 641 803 l 147 803 l 147 522 l 149 522 l 149 406 l 147 414 l 147 0 m 398 682 l 398 1020 l 505 1020 l 505 682 l 398 682 m 23 1135 l 673 1135 l 673 1243 l 22 1243 l 23 1135 m 240 809 l 330 999 l 491 999 l 341 809 l 240 809 "},"Ђ":{"x_min":34,"x_max":1146,"ha":1143,"o":"m 34 994 l 827 994 l 827 877 l 497 877 l 497 567 q 795 635 668 635 q 1043 546 944 635 q 1146 305 1146 453 q 1060 75 1146 166 q 835 -17 972 -17 q 675 5 764 -17 l 696 116 q 804 92 748 92 q 956 148 901 92 q 1012 302 1012 205 q 941 470 1012 412 q 762 525 875 525 q 497 461 653 525 l 497 0 l 365 0 l 365 877 l 34 877 l 34 994 "},"я":{"x_min":51.53125,"x_max":949.515625,"ha":992,"o":"m 438 336 l 438 0 l 516 0 l 516 336 l 438 336 m 311 129 l 644 129 l 644 207 l 311 207 l 311 129 m 790 -9 q 853 34 795 -9 q 920 83 915 80 q 727 326 873 139 q 427 724 521 589 q 399 798 399 765 q 419 863 399 825 q 476 894 444 894 q 532 866 504 894 q 552 773 559 838 q 501 653 550 748 l 575 542 q 635 670 603 589 q 670 831 670 760 q 619 950 670 915 q 461 1011 531 1011 q 338 953 392 1011 q 264 781 264 874 q 318 632 264 705 q 790 -9 529 347 m 459 401 l 373 516 q 215 295 375 514 q 51 71 133 183 q 172 -8 50 71 q 459 401 265 125 m 853 1195 l 853 1195 q 940 1142 908 1195 l 949 1102 q 931 1043 949 1078 q 901 1013 913 1020 q 879 995 901 1008 q 841 978 846 978 l 837 978 q 803 1022 826 990 q 882 1102 882 1060 q 841 1127 884 1127 q 772 1097 800 1127 l 745 1127 q 733 1158 754 1119 q 853 1195 795 1195 "},"Ё":{"x_min":67.828125,"x_max":887.109375,"ha":952,"o":"m 640 1058 q 565 1027 596 1058 q 535 953 535 997 q 565 880 535 910 q 640 849 596 849 q 713 880 682 849 q 744 953 744 910 q 713 1027 744 997 q 640 1058 682 1058 m 295 1058 q 221 1027 252 1058 q 190 953 190 997 q 221 880 190 910 q 295 849 252 849 q 368 880 338 849 q 399 953 399 910 q 368 1027 399 997 q 295 1058 338 1058 m 201 414 q 278 609 201 530 q 475 689 355 689 q 672 613 595 689 q 749 414 749 537 q 673 213 749 295 q 475 129 594 129 q 275 215 353 129 q 201 414 201 297 m 475 -4 q 763 120 642 -4 q 883 414 883 244 q 763 703 883 583 q 475 822 644 822 q 186 703 305 822 q 67 414 67 583 q 187 120 67 244 q 475 -4 307 -4 m 887 1126 l 70 1126 l 70 1248 l 887 1248 l 887 1126 "},"φ":{"x_min":49,"x_max":853,"ha":887,"o":"m 338 735 l 314 629 q 174 383 174 582 q 229 194 174 272 q 395 89 288 112 l 395 537 q 401 633 395 604 q 452 712 413 686 q 550 737 487 737 q 810 573 729 737 q 853 390 853 488 q 711 77 853 207 q 516 -16 637 8 l 516 -276 l 395 -276 l 395 -16 q 144 109 247 -16 q 49 378 49 227 q 122 620 49 516 q 338 735 205 738 m 516 94 q 675 208 618 113 q 725 403 725 291 q 696 550 725 486 q 585 636 659 636 q 523 589 537 636 q 516 502 516 565 l 516 94 "},";":{"x_min":115,"x_max":262,"ha":289,"o":"m 123 581 l 123 720 l 262 720 l 262 581 l 123 581 m 123 0 l 123 139 l 262 139 l 262 0 q 148 -197 262 -147 l 115 -144 q 192 0 188 -112 l 123 0 "},"Г":{"x_min":67.140625,"x_max":893.21875,"ha":949,"o":"m 68 661 q 86 737 63 661 q 162 878 113 826 q 338 949 231 953 q 509 936 440 946 q 602 926 571 926 q 638 927 619 926 q 758 952 689 930 q 893 1013 835 977 q 768 886 843 945 q 567 804 658 799 q 432 817 483 807 q 362 823 392 824 q 234 803 276 819 q 68 661 146 769 m 609 761 q 520 746 609 772 q 354 645 419 714 q 253 391 261 548 q 224 105 245 204 q 173 -16 206 21 q 104 -67 155 -38 q 297 13 215 -56 q 417 350 425 124 q 462 592 411 484 q 558 723 499 668 q 609 761 583 742 m 872 1098 l 67 1098 l 67 1220 l 872 1220 l 872 1098 "},"6":{"x_min":59,"x_max":677.53125,"ha":692,"o":"m 530 772 l 661 766 q 640 824 668 772 q 548 932 606 888 q 358 1002 469 992 q 335 1004 347 1004 q 134 876 210 1004 q 59 525 59 748 q 358 -3 59 -9 q 642 138 569 0 q 677 297 677 202 q 630 449 677 373 q 370 580 550 580 q 227 529 288 580 q 181 473 181 490 q 212 723 181 614 q 358 882 259 883 q 530 772 479 879 m 385 459 q 508 409 457 459 q 560 289 560 359 q 508 168 560 218 q 385 119 457 119 q 262 168 313 119 q 211 289 211 218 q 262 409 211 359 q 385 459 313 459 "},"Ь":{"x_min":49.515625,"x_max":751.46875,"ha":814,"o":"m 49 1064 q 363 594 324 926 q 170 464 259 568 q 180 626 180 548 q 49 1064 180 893 m 448 573 q 663 482 571 573 q 751 287 751 395 q 668 85 751 169 q 448 -2 581 -2 q 224 83 307 -2 q 146 287 146 164 q 235 482 146 395 q 448 573 326 573 m 448 451 q 335 399 381 451 q 290 287 290 350 q 335 179 290 226 q 448 130 381 130 q 563 179 517 130 q 607 287 607 226 q 563 399 607 350 q 448 451 517 451 m 745 1098 l 67 1098 l 67 1220 l 745 1220 l 745 1098 "},"ϊ":{"x_min":-31.875,"x_max":348.609375,"ha":364,"o":"m 92 0 l 92 720 l 215 720 l 215 0 l 92 0 m -31 861 l -31 1000 l 95 1000 l 95 861 l -31 861 m 221 861 l 221 1000 l 348 1000 l 348 861 l 221 861 "},"ά":{"x_min":48.828125,"x_max":750.796875,"ha":768,"o":"m 626 720 l 750 720 q 663 360 703 571 q 750 0 710 98 l 629 0 q 585 131 600 67 q 349 -16 529 -16 q 119 101 200 -16 q 48 361 48 204 q 118 621 48 521 q 352 736 198 736 q 490 701 434 736 q 590 598 542 670 q 626 720 594 621 m 372 635 q 221 544 269 635 q 183 361 183 473 q 219 179 183 251 q 365 84 266 84 q 520 179 467 84 q 562 366 562 255 q 522 547 562 476 q 372 635 473 635 m 316 809 l 406 999 l 566 999 l 417 809 l 316 809 "},"n":{"x_min":43.40625,"x_max":1085.828125,"ha":1085,"o":"m 43 78 l 250 443 l 400 386 l 195 -2 l 43 78 m 316 619 l 457 585 q 474 716 474 680 q 242 975 474 975 q 92 899 145 975 q 54 768 53 840 q 114 557 56 623 q 401 417 185 476 q 589 385 468 399 q 727 356 687 375 q 818 244 786 324 q 826 204 826 223 q 784 156 826 154 q 724 193 751 158 q 697 279 697 228 q 711 347 697 312 l 555 378 q 534 263 534 317 q 604 78 534 157 q 784 -2 678 -4 q 970 179 970 -1 q 967 212 970 198 q 908 391 944 335 q 539 560 800 553 q 350 577 403 564 q 271 616 318 585 q 215 699 237 639 q 199 768 198 746 q 215 804 200 785 q 261 825 236 828 q 319 782 303 819 q 334 720 320 781 q 335 707 335 714 q 324 651 335 687 q 316 619 314 620 m 630 589 l 792 530 l 1017 949 l 881 1042 l 630 589 m 651 891 l 724 1017 l 838 952 l 765 826 l 651 891 m 900 743 l 972 869 l 1085 803 l 1013 678 l 900 743 "},"¤":{"x_min":50.28125,"x_max":716.71875,"ha":754,"o":"m 143 651 l 50 744 l 128 825 l 222 730 q 383 779 294 779 q 543 730 472 779 l 638 825 l 716 744 l 622 651 q 671 492 671 577 q 622 332 671 407 l 716 240 l 638 159 l 543 254 q 383 205 472 205 q 222 254 294 205 l 128 159 l 50 239 l 144 332 q 96 492 96 406 q 143 651 96 576 m 207 492 q 258 367 207 419 q 382 316 309 316 q 506 367 455 316 q 558 492 558 419 q 506 616 558 565 q 382 668 455 668 q 258 616 309 668 q 207 492 207 565 "},"κ":{"x_min":91,"x_max":693.75,"ha":703,"o":"m 91 720 l 212 720 l 212 437 l 504 720 l 665 720 l 343 421 l 693 0 l 537 0 l 256 339 l 212 298 l 212 0 l 91 0 l 91 720 "},"p":{"x_min":67.828125,"x_max":843.03125,"ha":882,"o":"m 67 1018 l 236 1017 l 236 160 l 678 159 l 678 1017 l 843 1017 l 843 0 l 67 0 l 67 1018 m 447 748 q 593 688 533 748 q 653 543 653 628 q 593 399 653 459 q 447 339 533 339 q 302 399 362 339 q 242 543 242 459 q 302 688 242 628 q 447 748 362 748 m 446 649 q 369 618 401 649 q 338 541 338 586 q 369 464 338 496 q 446 433 401 433 q 523 464 491 433 q 555 541 555 496 q 523 618 555 586 q 446 649 492 649 "},"│":{"x_min":310,"x_max":429,"ha":475,"o":"m 310 -421 l 310 1264 l 429 1264 l 429 -421 l 310 -421 "},"‡":{"x_min":49,"x_max":718,"ha":724,"o":"m 322 -235 l 322 16 l 49 16 l 49 125 l 322 125 l 322 617 l 49 617 l 49 726 l 322 726 l 322 981 l 445 981 l 445 726 l 718 726 l 718 617 l 445 617 l 445 125 l 718 125 l 718 16 l 445 16 l 445 -235 l 322 -235 "},"√":{"x_min":57,"x_max":762.359375,"ha":731,"o":"m 711 1268 l 762 1268 l 550 -53 l 214 639 l 80 577 l 57 621 l 261 724 l 535 166 l 711 1268 "},"Ю":{"x_min":33,"x_max":869.921875,"ha":884,"o":"m 133 1251 q 203 1217 173 1251 q 234 1144 234 1184 q 203 1071 234 1104 q 133 1038 173 1038 q 62 1071 92 1038 q 33 1144 33 1104 q 62 1217 33 1184 q 133 1251 92 1251 m 525 651 l 619 545 l 869 933 l 758 1029 l 525 651 m 57 1015 l 212 1015 q 439 729 282 913 q 644 472 592 549 q 733 251 734 340 q 663 52 730 119 q 520 -5 608 -3 q 380 61 445 -5 q 311 224 314 131 q 429 501 311 329 l 511 390 q 445 240 453 308 q 528 144 457 144 q 583 174 563 144 q 601 238 601 200 q 599 257 601 248 q 208 800 577 394 l 208 2 l 57 2 l 57 1015 "},"S":{"x_min":67.828125,"x_max":1791.1875,"ha":1847,"o":"m 1081 290 q 1035 396 1081 358 q 933 430 995 430 q 838 397 882 430 q 786 290 786 358 q 824 193 786 232 q 933 151 865 151 q 1040 188 999 151 q 1081 290 1081 225 m 628 290 q 719 494 628 408 q 933 581 810 581 q 1148 494 1057 581 q 1239 290 1239 408 q 1148 86 1239 173 q 933 0 1057 0 q 719 86 810 0 q 628 290 628 173 m 1081 691 q 1053 779 1081 741 q 933 830 1015 830 q 832 793 875 830 q 786 691 786 753 q 933 552 786 552 q 1081 691 1081 552 m 628 691 q 719 895 628 809 q 933 982 810 982 q 1148 895 1057 982 q 1239 691 1239 809 q 1148 487 1239 574 q 933 400 1057 400 q 719 487 810 400 q 628 691 628 574 m 1632 495 q 1605 583 1632 546 q 1485 634 1566 634 q 1384 597 1426 634 q 1338 495 1338 558 q 1485 356 1338 356 q 1632 495 1632 356 m 1179 495 q 1270 699 1179 613 q 1485 786 1361 786 q 1700 699 1609 786 q 1791 495 1791 613 q 1700 291 1791 378 q 1485 204 1609 204 q 1270 291 1361 204 q 1179 495 1179 378 m 520 494 q 493 581 520 545 q 373 633 455 633 q 272 596 315 633 q 226 494 226 556 q 373 355 226 355 q 520 494 520 355 m 67 494 q 159 698 67 611 q 373 785 250 785 q 588 698 497 785 q 679 494 679 611 q 588 290 679 377 q 373 204 497 204 q 159 290 250 204 q 67 494 67 377 m 1084 1245 q 1398 775 1359 1106 q 1239 663 1294 748 q 1215 806 1239 738 q 1084 1245 1215 1074 "},"ο":{"x_min":45.828125,"x_max":821.03125,"ha":759,"o":"m 45 1018 l 821 1018 l 821 0 l 656 0 l 656 858 l 214 857 l 214 0 l 45 0 l 45 1018 m 425 269 q 280 329 340 269 q 220 474 220 389 q 280 619 220 559 q 425 678 340 678 q 571 619 511 678 q 631 474 631 559 q 571 329 631 389 q 425 269 511 269 m 424 368 q 501 399 470 368 q 533 476 533 431 q 501 553 533 521 q 424 584 469 584 q 347 553 379 584 q 316 476 316 521 q 347 399 316 431 q 424 368 379 368 "},"/":{"x_min":0,"x_max":804.375,"ha":882,"o":"m 804 1119 q 720 990 782 1058 q 633 928 667 940 l 555 883 q 521 859 542 870 l 499 841 l 493 841 q 423 912 460 881 q 526 956 472 948 q 596 976 526 959 q 678 1013 659 996 q 752 1074 706 1024 q 797 1133 780 1100 l 798 1133 q 804 1119 803 1133 m 795 -89 l 793 -90 l 792 -90 q 774 -65 787 -90 q 699 8 736 -16 q 589 70 684 28 q 519 101 539 88 q 418 159 456 131 q 400 170 407 170 q 338 132 400 153 q 270 109 338 129 q 145 61 205 88 l 140 56 l 139 58 l 137 58 q 14 -73 48 2 l 2 -76 l 0 -75 q 23 -19 10 -62 q 82 63 39 12 q 197 145 155 130 q 345 225 274 182 l 347 225 q 393 170 356 202 l 398 170 l 398 172 l 341 238 q 291 349 295 303 q 286 381 286 366 l 286 389 l 288 410 l 276 410 q 196 451 223 422 q 158 531 158 498 l 156 531 l 158 540 l 156 545 q 196 631 156 591 q 288 668 242 668 q 302 672 288 672 q 407 634 373 672 l 407 632 q 347 563 347 577 q 343 558 343 563 l 341 556 l 338 556 l 301 563 l 291 563 q 276 547 276 561 l 276 545 q 304 518 276 522 l 322 522 l 327 517 l 330 517 l 329 518 l 329 522 q 354 556 335 522 q 387 594 355 561 q 436 679 432 647 l 436 688 q 413 773 436 741 q 400 793 408 775 q 309 862 342 848 q 170 962 231 908 l 149 982 l 117 1019 q 56 1147 66 1089 l 56 1152 l 62 1152 q 90 1111 65 1152 q 174 1035 147 1046 q 290 971 213 1005 q 395 914 315 954 l 453 868 q 535 745 524 797 q 542 675 542 714 q 537 665 537 674 l 542 661 l 553 663 q 638 629 599 658 q 689 537 689 583 l 687 535 l 687 533 l 689 528 q 666 460 682 480 q 604 410 647 432 l 552 400 l 550 401 l 542 400 q 476 417 522 400 q 438 442 455 428 l 428 457 q 404 398 411 430 l 405 378 l 404 378 q 419 332 404 356 q 428 367 428 352 l 428 375 q 423 426 428 397 q 432 438 425 438 l 466 410 q 526 389 484 396 l 533 390 l 537 380 q 491 239 537 297 l 485 239 l 450 289 l 428 321 l 423 321 l 421 314 q 484 227 452 263 q 541 184 514 197 q 612 138 588 149 q 738 36 668 103 q 777 -32 777 -14 q 795 -89 795 -63 m 590 535 q 558 552 578 552 q 466 508 499 539 q 432 461 435 476 l 438 461 q 519 531 486 531 q 569 514 533 514 q 590 535 590 516 m 542 649 l 541 651 l 539 651 q 524 599 536 650 l 503 552 l 507 552 q 533 599 519 560 l 542 649 m 526 672 l 514 672 l 505 670 l 505 672 l 503 670 l 499 670 l 498 672 l 459 659 q 441 647 441 651 l 441 640 q 530 665 476 656 l 530 668 l 526 672 m 419 746 q 407 685 407 727 l 414 654 l 414 652 l 411 649 l 364 679 q 329 686 344 686 l 318 686 l 301 682 q 293 711 296 685 l 291 711 q 305 780 297 778 q 330 826 305 802 l 334 826 q 402 768 354 824 q 407 760 407 768 q 419 746 419 750 m 414 461 l 413 463 l 370 433 q 301 410 340 417 l 301 406 q 307 401 301 404 q 393 437 334 401 q 414 461 414 459 m 316 503 l 315 503 q 291 444 291 470 l 291 438 l 293 438 q 316 501 297 459 l 316 503 m 293 435 l 288 430 l 288 428 l 290 428 l 293 432 l 293 435 "},"Τ":{"x_min":32.4375,"x_max":1083.015625,"ha":806,"o":"m 550 1050 l 550 1047 l 553 1050 l 555 1050 q 848 958 711 1050 q 880 937 848 954 l 927 897 q 1031 744 1017 797 q 1076 592 1060 697 l 1083 532 l 1080 518 q 970 200 1080 349 q 846 87 901 122 q 701 19 788 47 q 570 0 615 0 l 548 0 q 206 130 366 0 q 107 250 136 202 q 35 489 35 385 l 32 491 l 32 493 l 35 495 l 35 498 l 32 514 l 35 529 l 32 536 l 35 538 l 35 541 l 32 554 q 84 752 47 678 q 174 883 109 807 q 242 944 237 944 q 418 1030 334 1009 l 458 1041 l 460 1039 l 463 1039 q 550 1050 463 1043 m 280 912 l 291 910 l 294 910 l 294 912 l 288 916 l 284 916 l 280 912 m 546 897 l 535 899 q 408 870 464 893 q 291 788 330 834 q 192 617 218 711 l 187 608 l 190 606 l 190 604 q 181 526 181 557 q 198 408 181 451 q 228 333 198 393 q 298 245 261 280 q 370 191 334 212 q 404 177 370 186 l 465 153 l 467 155 l 469 155 l 517 146 l 519 149 l 542 146 l 553 146 l 555 143 l 558 146 l 568 146 q 728 189 634 146 q 907 392 849 254 q 933 516 933 480 l 931 532 l 933 533 l 933 536 q 900 678 933 590 q 779 829 872 745 q 690 876 724 863 q 575 901 659 887 l 546 897 m 542 779 l 550 777 l 566 777 l 568 775 l 570 777 l 577 777 l 580 775 l 581 777 q 704 732 637 774 q 773 647 759 680 q 805 552 789 628 l 805 529 l 807 511 q 780 408 794 430 q 627 281 733 318 q 562 270 619 277 l 553 273 l 546 270 q 422 308 491 270 q 325 423 355 351 q 307 480 315 446 l 309 486 l 305 522 q 329 623 305 581 q 438 746 352 691 q 542 779 503 779 m 465 619 l 463 622 l 460 622 q 446 600 459 611 q 422 500 422 561 q 483 410 446 429 q 550 389 517 389 q 679 469 636 389 l 690 516 q 659 608 690 573 q 566 656 608 656 l 559 653 l 553 656 q 471 626 497 647 l 465 619 m 1051 623 l 1051 619 l 1057 619 l 1057 623 l 1051 623 m 35 1127 l 1076 1127 l 1076 1249 l 32 1249 l 35 1127 "},"ђ":{"x_min":59,"x_max":933.234375,"ha":937,"o":"m 613 505 l 518 627 q 661 818 528 627 q 798 1021 785 997 q 933 930 868 975 q 769 717 851 823 q 613 505 610 507 m 490 362 l 406 470 q 267 191 267 292 q 379 26 267 88 q 499 -1 428 -1 q 663 65 616 -1 q 715 232 715 137 q 646 433 715 338 q 354 809 558 555 q 183 1020 268 914 q 182 1021 183 1021 q 122 977 177 1021 q 59 929 63 932 q 545 326 360 587 q 577 240 577 280 q 555 164 577 204 q 486 128 525 128 q 433 153 458 128 q 413 244 406 181 q 490 362 416 269 "},"y":{"x_min":63.078125,"x_max":714.171875,"ha":785,"o":"m 188 0 l 68 0 l 68 911 l 682 911 l 682 803 l 188 803 l 188 522 l 189 522 l 189 406 l 188 414 l 188 0 m 438 682 l 438 1020 l 546 1020 l 546 682 l 438 682 m 63 1135 l 714 1135 l 714 1243 l 63 1243 l 63 1135 "},"≈":{"x_min":35,"x_max":728.8125,"ha":773,"o":"m 35 502 l 35 640 q 223 721 106 721 q 436 661 300 721 q 553 630 510 630 q 728 723 644 630 l 728 579 q 540 502 646 502 q 346 557 467 502 q 212 593 265 593 q 35 502 130 593 m 35 255 l 35 393 q 223 475 106 475 q 436 415 298 475 q 553 383 511 383 q 728 477 644 383 l 728 332 q 540 255 646 255 q 346 310 469 255 q 212 347 265 347 q 35 255 130 347 "},"Π":{"x_min":111,"x_max":891,"ha":935,"o":"m 111 0 l 111 994 l 891 994 l 891 0 l 759 0 l 759 877 l 243 877 l 243 0 l 111 0 "},"g":{"x_min":67.828125,"x_max":1184.859375,"ha":1289,"o":"m 67 1018 l 228 1017 l 228 165 l 1017 164 l 1017 1017 l 1184 1017 l 1184 0 l 67 0 l 67 1018 m 270 712 q 265 742 270 712 q 261 790 261 761 q 306 889 261 838 q 442 952 361 952 q 558 931 514 952 q 628 871 593 913 q 697 782 663 826 q 787 728 721 754 q 950 686 858 699 q 826 676 881 676 q 620 737 676 676 q 550 817 585 777 q 443 853 507 855 q 341 809 398 851 q 270 712 279 762 m 438 695 q 444 709 440 695 q 448 737 448 724 q 434 770 448 763 q 392 780 417 780 q 360 773 374 780 q 392 804 369 788 q 448 824 421 824 q 484 813 467 824 q 493 789 493 807 q 477 734 493 763 q 438 695 461 702 m 317 716 q 282 676 300 697 q 256 617 265 653 q 245 496 245 573 q 310 289 245 368 q 497 204 378 208 q 573 223 526 202 q 615 244 615 240 q 662 219 630 231 q 740 203 702 203 q 885 229 841 203 q 987 468 975 286 q 988 494 988 480 q 976 609 988 545 q 965 663 965 673 l 857 640 q 875 476 876 575 q 854 362 874 397 q 746 305 825 309 q 656 335 699 303 q 622 365 622 359 q 573 335 605 351 q 495 312 528 314 q 402 362 444 310 q 358 496 358 419 q 373 609 358 570 q 403 660 378 624 l 317 716 m 299 1017 l 299 1145 l 972 1145 l 972 1017 l 299 1017 "},"²":{"x_min":18,"x_max":440.53125,"ha":477,"o":"m 18 497 q 190 703 27 585 q 306 794 288 774 q 332 851 332 822 q 238 926 332 926 q 170 909 192 926 q 134 849 148 892 l 32 859 q 239 1006 70 1006 q 372 977 319 1006 q 438 868 438 941 q 397 760 438 810 q 258 644 369 724 q 178 579 204 605 l 440 579 l 440 497 l 18 497 "},"–":{"x_min":-1,"x_max":771.5,"ha":813,"o":"m -1 311 l -1 409 l 771 409 l 771 311 l -1 311 "},"б":{"x_min":59,"x_max":682.296875,"ha":746,"o":"m 65 988 q 84 982 73 982 l 90 984 l 90 982 l 97 984 l 99 982 l 109 984 l 112 984 l 125 982 l 127 984 l 141 982 l 191 982 l 198 980 l 208 982 l 268 982 l 301 980 l 304 982 l 347 980 l 545 980 l 554 982 l 562 980 l 573 980 l 579 982 l 590 980 l 605 980 l 637 982 l 643 967 l 641 954 l 641 949 l 643 949 l 641 935 l 641 909 l 643 888 l 641 869 l 641 855 l 637 851 l 545 851 l 536 849 l 535 851 l 532 851 l 518 849 l 494 851 l 481 849 l 475 851 l 467 849 l 464 851 l 461 851 l 460 849 l 457 849 l 456 851 l 445 849 l 443 849 l 421 851 l 402 849 l 400 851 l 398 851 l 396 849 l 394 849 l 387 851 l 381 849 l 370 851 l 368 849 l 366 849 l 354 851 l 347 851 l 334 849 l 332 851 l 317 849 l 301 849 l 283 851 l 280 849 l 279 849 l 272 851 l 268 851 l 268 849 l 253 851 l 215 851 l 212 845 l 210 704 l 210 625 q 163 582 176 600 q 144 560 152 575 l 147 557 l 148 557 q 287 649 219 630 q 355 661 307 655 l 385 661 l 394 659 l 396 661 l 398 661 q 511 628 511 643 q 674 416 617 576 l 675 401 l 674 394 q 682 318 680 394 q 648 175 682 261 l 617 126 q 547 70 569 70 q 453 15 547 52 q 375 2 396 2 l 366 5 l 364 2 q 233 32 314 2 q 131 120 155 81 q 97 190 113 130 q 63 330 73 228 l 65 330 l 63 333 l 63 373 l 61 389 l 63 408 l 63 514 l 61 522 l 63 531 l 63 550 l 61 561 l 63 561 l 61 564 l 61 565 l 63 568 l 61 582 l 61 625 l 63 628 l 61 629 l 61 638 l 63 640 l 61 647 l 63 655 l 61 674 l 61 681 l 63 682 l 61 685 l 61 720 l 63 721 l 61 724 l 61 881 l 59 890 l 61 898 l 59 960 l 61 971 l 59 977 q 65 988 61 988 m 133 546 l 133 544 l 136 544 l 141 550 l 141 553 l 140 553 l 133 546 m 119 525 l 123 525 q 129 531 123 531 l 131 533 l 131 536 l 129 538 l 129 540 q 119 525 119 537 m 217 337 l 217 322 q 223 297 221 318 q 287 190 239 237 l 328 170 l 377 165 l 394 165 q 471 205 429 165 q 528 329 528 268 q 504 427 528 365 q 440 493 497 447 q 375 510 395 510 l 370 510 q 293 484 319 503 q 217 337 217 432 m 67 1110 l 674 1110 l 674 1220 l 67 1220 l 67 1110 "},"ƒ":{"x_min":31,"x_max":735.671875,"ha":734,"o":"m 31 -274 l 54 -169 q 158 -184 123 -184 q 223 -154 203 -184 q 245 -81 236 -134 l 365 625 l 228 625 l 244 720 l 381 720 l 397 810 q 427 922 411 890 q 589 1012 473 1012 q 735 986 644 1012 l 711 882 q 607 899 642 899 q 540 867 560 899 q 518 790 529 847 l 505 720 l 644 720 l 627 625 l 489 625 l 359 -115 q 308 -244 343 -204 q 182 -292 266 -292 q 31 -274 119 -292 "},"у":{"x_min":54.265625,"x_max":858.625,"ha":918,"o":"m 559 455 l 472 564 q 602 737 482 564 q 727 918 716 897 q 850 836 792 876 q 701 644 776 741 q 559 455 556 457 m 447 326 l 370 423 q 251 171 251 283 q 345 24 251 76 q 456 0 391 0 q 604 60 562 0 q 651 210 651 124 q 589 390 651 305 q 322 729 510 500 q 167 918 245 823 q 115 883 141 901 q 54 836 58 838 q 497 293 328 528 q 526 217 526 252 q 505 149 526 185 q 444 115 478 115 q 394 140 418 115 q 377 220 370 164 q 447 326 379 243 m 858 1098 l 67 1098 l 67 1220 l 858 1220 l 858 1098 "},"J":{"x_min":86.8125,"x_max":339.109375,"ha":475,"o":"m 308 857 l 308 46 l 126 46 l 126 857 l 308 857 m 212 -270 q 123 -233 160 -270 q 86 -146 86 -197 q 123 -57 86 -94 q 212 -21 160 -21 q 302 -57 265 -21 q 339 -146 339 -94 q 302 -233 339 -197 q 212 -270 265 -270 m 212 -240 q 277 -213 250 -240 q 304 -149 304 -187 q 277 -86 304 -112 q 212 -59 250 -59 q 147 -86 174 -59 q 121 -149 121 -112 q 147 -213 121 -187 q 212 -240 174 -240 "},"Ã":{"x_min":-2.171875,"x_max":976.5,"ha":918,"o":"m 513 1221 q 590 1179 549 1221 q 608 1130 608 1145 l 608 1102 q 557 1026 598 1053 q 498 1013 528 1013 q 402 1086 433 1013 l 398 1108 q 488 1221 398 1198 l 513 1221 m 499 977 q 667 939 569 975 q 905 731 829 872 q 963 588 963 634 q 976 493 972 556 q 921 283 976 417 q 808 132 888 210 q 649 37 713 53 q 556 6 634 27 q 519 0 536 0 l 492 0 q 90 196 235 0 q -2 491 -2 328 q 94 775 -2 629 q 180 870 126 818 q 499 977 315 977 m 440 948 l 440 888 q 366 868 440 880 q 157 707 224 817 q 90 486 90 604 q 174 243 90 356 q 280 148 238 169 q 404 101 328 119 q 437 95 404 98 l 440 92 l 440 42 l 545 42 l 545 97 q 563 104 545 103 l 563 101 q 687 150 618 115 q 881 501 881 282 q 756 786 881 659 q 627 864 691 841 l 545 884 l 545 948 l 440 948 m 452 935 l 532 935 l 537 930 l 537 57 l 532 53 l 452 53 l 448 57 l 448 930 l 452 935 m 153 1056 q 188 1164 152 1121 q 290 1210 226 1210 q 405 1174 332 1210 q 469 1154 445 1154 q 518 1212 510 1154 l 606 1212 q 473 1058 602 1058 q 361 1095 431 1058 q 294 1120 315 1120 q 243 1056 241 1120 l 153 1056 "},"Ј":{"x_min":39.8125,"x_max":292.109375,"ha":640,"o":"m 261 857 l 261 46 l 79 46 l 79 857 l 261 857 m 165 -270 q 76 -233 113 -270 q 39 -146 39 -197 q 76 -57 39 -94 q 165 -21 113 -21 q 255 -57 218 -21 q 292 -146 292 -94 q 255 -233 292 -197 q 165 -270 218 -270 m 165 -240 q 230 -213 203 -240 q 257 -149 257 -187 q 230 -86 257 -112 q 165 -59 203 -59 q 100 -86 127 -59 q 74 -149 74 -112 q 100 -213 74 -187 q 165 -240 127 -240 "},"‐":{"x_min":44,"x_max":419,"ha":463,"o":"m 44 298 l 44 421 l 419 421 l 419 298 l 44 298 "},"˘":{"x_min":32,"x_max":432.828125,"ha":467,"o":"m 349 993 l 432 993 q 232 817 411 817 q 32 993 53 817 l 115 993 q 228 901 134 901 q 349 993 331 901 "},"ώ":{"x_min":59,"x_max":1025.46875,"ha":1041,"o":"m 166 720 l 284 720 q 183 343 183 497 q 214 176 183 248 q 337 79 255 79 q 421 115 382 79 q 469 195 457 148 q 481 327 481 242 l 481 538 l 602 538 l 602 327 q 666 113 602 168 q 748 79 704 79 q 870 177 829 79 q 901 343 901 249 q 800 720 901 497 l 918 720 q 1025 350 1025 529 q 969 104 1025 202 q 761 -16 899 -16 q 542 145 608 -16 q 322 -16 476 -16 q 115 104 185 -16 q 59 350 59 202 q 166 720 59 529 m 476 809 l 566 999 l 726 999 l 577 809 l 476 809 "},"↑":{"x_min":104,"x_max":592,"ha":600,"o":"m 104 628 q 330 908 278 787 l 361 908 q 592 627 422 779 l 592 575 q 382 708 455 638 l 382 -291 l 314 -291 l 314 708 q 104 576 219 634 l 104 628 "},"D":{"x_min":44.765625,"x_max":1268.28125,"ha":1356,"o":"m 367 494 l 462 377 q 319 193 453 377 q 181 0 194 22 q 44 86 109 42 q 210 292 127 189 q 367 494 370 493 m 491 632 l 576 528 q 715 797 715 699 q 603 954 715 895 q 482 980 553 980 q 316 916 364 980 q 264 756 264 848 q 334 562 264 655 q 813 0 510 339 q 914 0 851 0 q 777 135 813 42 q 769 314 746 223 q 435 667 651 433 q 403 749 403 710 q 426 822 403 784 q 494 857 456 857 q 550 831 523 857 q 569 745 576 806 q 491 632 566 720 m 1023 467 q 1197 393 1122 467 q 1268 235 1268 322 q 1201 71 1268 139 q 1023 0 1130 0 q 842 69 908 0 q 778 235 778 134 q 850 393 778 322 q 1023 467 925 467 m 1023 368 q 931 325 968 368 q 895 235 895 286 q 931 147 895 185 q 1023 107 968 107 q 1116 147 1078 107 q 1151 235 1151 185 q 1116 325 1151 286 q 1023 368 1078 368 "},"ÿ":{"x_min":22.375,"x_max":673.46875,"ha":688,"o":"m 147 0 l 27 0 l 27 911 l 641 911 l 641 803 l 147 803 l 147 522 l 149 522 l 149 406 l 147 414 l 147 0 m 398 682 l 398 1020 l 505 1020 l 505 682 l 398 682 m 23 1135 l 673 1135 l 673 1243 l 22 1243 l 23 1135 m 120 861 l 120 1000 l 248 1000 l 248 861 l 120 861 m 373 861 l 373 1000 l 501 1000 l 501 861 l 373 861 "},"ł":{"x_min":2,"x_max":304,"ha":334,"o":"m 91 388 l 2 314 l 2 422 l 91 496 l 91 994 l 212 994 l 212 599 l 304 677 l 304 570 l 212 492 l 212 0 l 91 0 l 91 388 "},"ц":{"x_min":65.421875,"x_max":863.53125,"ha":916,"o":"m 228 610 l 136 576 q 108 516 113 531 q 80 413 89 465 q 70 307 70 361 q 130 88 70 177 q 293 -9 193 -4 q 428 17 389 -15 q 411 27 422 17 q 388 50 400 37 q 364 80 375 64 q 344 107 352 95 q 327 99 334 103 q 307 98 320 94 q 254 124 276 104 q 217 174 232 145 q 193 241 201 204 q 185 316 185 278 q 196 375 185 331 q 223 465 207 419 q 254 549 238 512 q 280 585 270 585 l 228 610 m 690 605 l 796 641 q 819 694 815 679 q 858 902 858 796 q 798 1119 858 1030 q 634 1219 734 1214 q 500 1191 537 1225 q 512 1187 500 1201 q 539 1155 523 1174 q 571 1121 554 1136 q 597 1110 588 1105 q 620 1112 604 1115 q 712 1034 680 1096 q 743 891 743 973 q 697 720 743 826 q 648 624 654 624 l 690 605 m 796 641 q 812 605 796 646 q 863 379 859 495 q 796 130 866 244 q 572 -2 712 -4 q 408 62 477 -2 q 373 107 391 80 q 340 165 354 135 q 317 225 326 196 q 307 277 307 254 q 344 408 314 358 q 464 475 382 475 q 586 413 543 475 q 612 362 602 392 q 626 300 623 332 q 626 237 630 269 q 607 181 621 205 q 588 156 600 169 q 558 128 575 143 q 502 149 512 140 q 486 164 495 155 q 466 183 477 172 q 529 280 529 230 q 525 314 529 296 q 514 346 522 331 q 496 370 507 361 q 471 380 486 380 q 406 276 411 380 q 417 216 404 246 q 453 162 430 185 q 506 124 476 139 q 570 109 537 109 q 697 213 647 109 q 728 296 718 257 q 738 372 738 335 q 731 430 738 392 q 713 505 723 468 q 692 570 703 543 q 670 598 680 598 l 743 624 q 796 641 781 612 m 136 576 l 132 576 q 121 598 128 582 q 107 633 114 613 q 94 671 100 652 q 84 704 88 690 q 71 771 75 737 q 65 838 66 805 q 80 968 63 906 q 132 1087 97 1030 q 356 1220 215 1222 q 519 1155 453 1220 q 555 1110 537 1137 q 588 1052 573 1083 q 611 992 602 1022 q 620 939 620 963 q 584 809 614 858 q 464 741 544 741 q 341 805 386 741 q 316 855 327 826 q 302 916 305 885 q 302 980 298 948 q 321 1035 307 1011 q 370 1088 337 1063 q 405 1079 393 1083 q 426 1068 418 1074 q 442 1054 435 1062 q 461 1034 449 1046 q 399 937 399 987 q 403 903 399 921 q 414 870 406 885 q 432 845 421 855 q 457 836 442 836 q 522 942 516 836 q 511 1002 524 973 q 474 1055 497 1032 q 421 1094 451 1079 q 358 1108 391 1108 q 231 1004 281 1108 q 200 921 209 961 q 190 844 190 881 q 197 788 190 825 q 215 713 204 750 q 236 648 225 676 q 257 619 248 619 l 228 610 l 202 590 q 136 576 148 602 m 251 621 l 268 590 l 233 610 l 204 590 l 185 590 l 251 621 m 655 623 l 675 600 l 690 607 l 655 623 m 794 638 l 790 632 l 779 623 l 767 621 l 749 623 l 794 638 "},"Ł":{"x_min":0,"x_max":723.65625,"ha":692,"o":"m 98 382 l 0 299 l 0 413 l 98 497 l 98 994 l 230 994 l 230 609 l 455 799 l 455 687 l 230 495 l 230 117 l 723 117 l 723 0 l 98 0 l 98 382 "},"Л":{"x_min":67.828125,"x_max":680.25,"ha":746,"o":"m 67 0 l 678 0 l 678 160 l 228 160 l 228 975 l 67 975 l 67 0 m 680 1098 l 67 1098 l 67 1220 l 680 1220 l 680 1098 "},"$":{"x_min":64.4375,"x_max":780.640625,"ha":853,"o":"m 73 1014 l 765 1014 l 765 892 l 228 892 l 552 516 l 213 110 l 768 110 l 771 -6 l 64 -6 l 64 111 l 523 517 l 73 898 l 73 1014 m 77 1243 l 780 1243 l 780 1129 l 74 1129 l 77 1243 "},"w":{"x_min":67.765625,"x_max":810.46875,"ha":882,"o":"m 649 859 l 649 4 q 545 0 594 0 q 77 276 89 0 q 189 484 72 393 q 415 579 291 564 l 503 591 l 503 736 q 446 738 473 738 q 196 598 203 738 q 208 550 193 571 q 231 533 220 533 q 235 534 233 533 l 124 449 q 67 596 70 509 q 177 781 65 705 q 434 856 285 854 q 649 859 430 862 m 502 121 l 502 285 q 465 284 484 284 q 246 352 357 284 q 244 356 244 354 q 279 398 244 368 q 339 434 314 428 q 452 411 383 411 q 502 414 476 411 l 502 460 q 206 291 206 468 q 311 143 206 181 q 502 121 374 120 m 556 1042 q 613 1018 589 1042 q 637 962 637 994 q 613 905 637 929 q 556 881 589 881 q 498 905 522 881 q 474 962 474 929 q 498 1018 474 994 q 556 1042 522 1042 m 663 0 l 663 855 l 807 855 l 807 0 l 663 0 m 648 963 q 672 1020 648 996 q 729 1044 695 1044 q 787 1020 763 1044 q 810 963 810 996 q 787 905 810 929 q 729 882 763 882 q 672 906 695 882 q 648 963 648 929 m 643 1099 l 67 1099 l 67 1221 l 643 1221 l 643 1099 "},"\\":{"x_min":72.5625,"x_max":788.09375,"ha":863,"o":"m 516 -178 q 389 -125 458 -178 q 366 -92 366 -97 q 318 1 327 -40 q 297 100 297 71 l 297 117 q 320 216 297 149 q 369 291 347 268 q 413 318 404 318 l 432 318 q 499 284 461 316 q 540 215 526 253 q 562 120 555 179 l 562 107 q 535 -7 562 47 q 507 -51 528 -14 l 494 -63 l 491 -63 q 432 -8 461 -46 l 432 -7 q 451 26 440 0 q 475 115 466 39 q 458 185 467 155 q 429 212 444 206 l 425 212 q 393 154 408 204 l 387 113 l 387 71 q 417 -10 393 36 q 533 -82 475 -82 q 593 -62 571 -77 q 634 -27 616 -53 q 693 160 693 48 l 695 183 l 695 206 q 654 347 695 278 q 634 380 648 362 q 547 512 601 442 q 480 607 480 602 q 453 642 467 617 l 425 679 q 354 794 388 733 q 318 896 320 866 l 318 931 q 348 1004 326 975 q 448 1053 371 1037 l 461 1053 q 581 971 537 1053 q 593 908 593 953 q 522 737 593 837 l 519 737 q 463 811 490 770 q 501 903 501 866 l 501 915 q 458 963 487 963 l 453 963 q 412 915 421 963 l 412 902 q 453 811 418 862 q 574 647 489 756 l 613 597 l 692 488 q 760 354 716 450 q 788 229 779 316 l 788 187 q 771 55 781 74 q 657 -133 730 -89 q 613 -158 644 -144 q 541 -178 613 -165 l 516 -178 m 295 -176 q 196 -133 260 -174 q 121 -43 133 -75 q 87 61 98 -6 l 75 130 l 75 170 q 97 291 90 291 q 145 383 109 326 q 220 482 173 427 l 305 597 l 370 686 l 394 714 l 413 682 l 449 635 q 429 609 440 615 l 391 558 q 326 472 352 502 l 307 446 q 277 406 290 420 l 217 333 q 172 223 172 252 q 164 147 164 180 q 183 44 164 124 q 248 -50 209 -16 q 301 -77 275 -77 l 338 -69 q 393 -142 354 -101 q 311 -176 393 -161 l 295 -176 m 72 1098 l 72 1220 l 783 1220 l 783 1098 l 72 1098 "},"о":{"x_min":67.828125,"x_max":1261.765625,"ha":1356,"o":"m 1161 975 q 1186 921 1161 980 q 1233 781 1214 853 q 1261 578 1260 678 q 1161 202 1266 375 q 822 0 1035 -1 q 575 100 678 1 q 454 292 498 173 q 423 424 421 381 q 476 621 430 543 q 659 725 538 725 q 845 630 779 725 q 906 427 903 549 q 875 279 908 336 q 800 199 854 242 q 716 231 731 218 q 663 282 695 249 q 757 429 757 354 q 739 524 757 482 q 670 581 714 581 q 571 423 581 581 q 627 268 567 349 q 817 170 699 170 q 1012 328 935 170 q 1074 569 1076 457 q 1022 809 1072 686 q 972 910 980 910 l 1161 975 m 611 44 q 569 79 610 44 q 533 108 552 93 q 483 181 515 135 q 464 169 474 174 q 431 165 448 161 q 327 231 373 178 q 244 498 248 322 q 314 757 242 593 q 388 903 377 903 l 217 985 q 127 798 143 841 q 69 483 69 645 q 160 153 69 287 q 408 4 255 12 q 611 44 555 -4 m 67 1220 l 1228 1220 l 1228 1098 l 67 1098 l 67 1220 "},"Д":{"x_min":51.546875,"x_max":989.53125,"ha":1052,"o":"m 51 4 l 51 316 q 156 317 62 316 q 277 318 250 318 q 297 317 301 318 q 288 317 295 317 q 295 318 289 317 q 382 257 314 297 q 491 197 432 229 q 353 171 442 185 q 219 164 275 166 l 219 4 l 51 4 m 263 151 q 398 159 292 150 q 528 187 475 169 q 674 156 567 175 q 788 146 765 146 q 533 124 569 124 q 263 151 511 124 m 989 2 l 827 2 l 827 158 q 160 677 189 182 q 264 924 151 824 q 533 1018 375 1023 q 811 912 706 1013 q 909 670 911 813 q 840 440 906 529 q 735 343 810 398 l 571 399 q 668 493 655 476 q 730 660 730 570 q 653 811 730 753 q 539 856 594 855 q 436 835 485 856 q 337 680 336 792 q 474 413 338 508 q 754 316 576 342 q 988 299 812 307 l 989 2 m 989 1098 l 67 1098 l 67 1220 l 989 1220 l 989 1098 "},"Ì":{"x_min":36,"x_max":349.96875,"ha":304,"o":"m 137 0 l 137 810 l 319 810 l 319 0 l 137 0 m 223 1127 q 313 1091 276 1127 q 349 1003 349 1054 q 313 915 349 951 q 223 878 276 878 q 134 915 171 878 q 97 1003 97 951 q 134 1091 97 1054 q 223 1127 170 1127 m 223 1097 q 158 1070 185 1097 q 132 1007 132 1044 q 158 943 132 969 q 223 916 185 916 q 288 943 261 916 q 315 1007 315 969 q 288 1070 315 1044 q 223 1097 261 1097 m 291 1056 l 192 1056 l 36 1246 l 199 1246 l 291 1056 "},"ъ":{"x_min":25.765625,"x_max":517.484375,"ha":564,"o":"m 145 344 q 145 344 145 344 l 145 344 l 145 564 l 25 564 l 25 650 l 241 650 l 241 427 q 189 399 216 421 q 145 335 155 371 l 145 344 m 330 78 q 198 130 253 78 q 143 257 143 182 q 198 383 143 331 q 330 436 253 436 q 462 383 408 436 q 517 257 517 331 q 462 130 517 182 q 330 78 408 78 m 425 257 q 325 347 425 347 q 264 326 289 347 q 236 257 236 301 q 330 165 236 165 q 425 257 425 165 "},"ς":{"x_min":58,"x_max":654.828125,"ha":639,"o":"m 654 713 l 626 611 q 474 636 550 636 q 263 557 348 636 q 177 353 177 477 q 239 194 177 252 q 397 118 290 146 q 509 83 477 97 q 599 10 572 55 q 623 -79 623 -28 q 538 -239 623 -180 q 359 -292 464 -292 q 256 -282 314 -292 l 286 -170 q 355 -179 325 -179 q 446 -157 408 -179 q 495 -82 495 -131 q 445 -13 495 -37 q 355 10 423 -3 q 143 115 220 39 q 58 331 58 200 q 185 626 58 512 q 490 737 307 737 q 654 713 573 737 "},"C":{"x_min":69.171875,"x_max":854.5625,"ha":909,"o":"m 847 73 l 739 0 q 689 63 727 9 q 583 212 606 169 l 581 212 l 581 141 l 576 137 l 497 137 l 497 45 l 493 40 l 420 40 l 416 45 l 416 137 l 330 137 l 326 141 l 326 210 l 163 5 l 69 100 l 69 104 q 368 480 235 307 l 372 480 q 444 370 378 477 l 444 366 q 387 288 444 357 q 333 221 362 250 l 416 221 l 416 315 l 420 320 l 495 320 l 499 315 l 499 219 l 576 219 q 499 324 556 236 q 387 482 446 389 q 330 563 330 554 q 290 644 306 594 q 278 733 278 707 l 278 741 q 297 851 284 820 q 315 884 301 851 q 409 961 365 950 q 464 976 438 976 l 475 976 q 673 750 622 976 l 677 713 l 677 687 q 671 658 671 677 q 660 614 662 642 q 596 513 629 537 q 559 491 570 491 l 556 491 q 464 614 493 581 q 475 618 464 618 q 519 673 492 618 l 524 704 l 524 735 q 478 820 524 801 l 475 820 q 418 728 436 820 q 537 504 418 647 l 809 130 q 847 73 847 83 m 758 1220 l 758 1220 q 845 1167 813 1220 l 854 1127 q 836 1068 854 1103 q 806 1038 818 1045 q 784 1020 806 1033 q 746 1003 751 1003 l 742 1003 q 725 1056 731 1015 q 787 1125 801 1090 q 755 1157 802 1162 q 690 1117 720 1150 l 664 1144 q 643 1169 659 1144 q 758 1220 700 1220 "},"∩":{"x_min":107,"x_max":892,"ha":933,"o":"m 199 0 l 107 0 l 107 421 q 111 645 107 596 q 216 892 126 798 q 499 1012 330 1012 q 780 894 663 1012 q 889 626 875 799 q 892 421 892 592 l 892 0 l 801 0 l 801 425 q 797 622 801 577 q 717 831 784 758 q 499 923 630 923 q 276 824 362 923 q 201 603 210 749 q 199 425 199 571 l 199 0 "},"!":{"x_min":119,"x_max":270,"ha":309,"o":"m 156 246 l 119 773 l 119 994 l 270 994 l 270 773 l 235 246 l 156 246 m 124 0 l 124 139 l 264 139 l 264 0 l 124 0 "},"È":{"x_min":109.828125,"x_max":724.96875,"ha":815,"o":"m 110 1098 l 110 1220 l 724 1220 l 724 1098 l 110 1098 m 109 0 l 109 991 l 720 991 l 719 855 l 244 857 l 245 572 l 719 572 l 719 441 l 244 441 l 244 135 l 719 135 l 719 0 l 109 0 m 618 1056 l 519 1056 l 363 1246 l 526 1246 l 618 1056 "},"Й":{"x_min":67.140625,"x_max":593.4375,"ha":678,"o":"m 371 1232 q 421 1178 399 1224 q 431 1125 425 1135 l 429 1123 l 429 1121 q 498 1036 451 1059 q 541 1016 510 1026 q 593 999 592 1002 l 593 996 q 526 984 593 984 l 518 984 q 427 1016 476 988 q 360 1079 411 1016 q 330 1170 330 1128 q 367 1232 337 1232 l 371 1232 m 164 1038 l 272 1038 l 276 1034 l 276 945 l 361 945 l 365 941 l 365 850 l 361 846 l 280 846 l 280 4 l 276 0 l 164 0 l 160 4 l 160 844 l 71 844 l 67 848 l 67 941 l 71 945 l 160 945 l 160 1034 l 164 1038 "},"X":{"x_min":67.828125,"x_max":1791.1875,"ha":1871,"o":"m 1081 290 q 1035 396 1081 358 q 933 430 995 430 q 838 397 882 430 q 786 290 786 358 q 824 193 786 232 q 933 151 865 151 q 1040 188 999 151 q 1081 290 1081 225 m 628 290 q 719 494 628 408 q 933 581 810 581 q 1148 494 1057 581 q 1239 290 1239 408 q 1148 86 1239 173 q 933 0 1057 0 q 719 86 810 0 q 628 290 628 173 m 1081 691 q 1053 779 1081 741 q 933 830 1015 830 q 832 793 875 830 q 786 691 786 753 q 933 552 786 552 q 1081 691 1081 552 m 628 691 q 719 895 628 809 q 933 982 810 982 q 1148 895 1057 982 q 1239 691 1239 809 q 1148 487 1239 574 q 933 400 1057 400 q 719 487 810 400 q 628 691 628 574 m 1632 495 q 1605 583 1632 546 q 1485 634 1566 634 q 1384 597 1426 634 q 1338 495 1338 558 q 1485 356 1338 356 q 1632 495 1632 356 m 1179 495 q 1270 699 1179 613 q 1485 786 1361 786 q 1700 699 1609 786 q 1791 495 1791 613 q 1700 291 1791 378 q 1485 204 1609 204 q 1270 291 1361 204 q 1179 495 1179 378 m 520 494 q 493 581 520 545 q 373 633 455 633 q 272 596 315 633 q 226 494 226 556 q 373 355 226 355 q 520 494 520 355 m 67 494 q 159 698 67 611 q 373 785 250 785 q 588 698 497 785 q 679 494 679 611 q 588 290 679 377 q 373 204 497 204 q 159 290 250 204 q 67 494 67 377 "},"Б":{"x_min":56.296875,"x_max":814.546875,"ha":882,"o":"m 173 446 l 341 446 l 341 298 q 400 195 353 225 q 496 168 433 174 q 592 196 552 170 q 659 334 659 239 q 604 430 652 396 q 495 463 560 463 l 56 463 l 56 624 l 501 624 q 724 536 634 624 q 814 315 814 447 q 722 102 814 197 q 496 2 626 3 q 270 96 368 2 q 176 299 177 187 l 173 446 m 174 1018 l 759 1019 l 759 857 l 343 857 l 343 637 q 173 637 233 638 l 174 1018 m 807 1098 l 67 1098 l 67 1220 l 807 1220 l 807 1098 "},"г":{"x_min":67.828125,"x_max":681.609375,"ha":746,"o":"m 69 988 l 680 990 l 680 844 l 233 844 l 231 0 l 69 2 l 69 988 m 67 1220 l 681 1220 l 681 1098 l 67 1098 l 67 1220 "},"х":{"x_min":51.546875,"x_max":759.609375,"ha":814,"o":"m 759 -89 q 380 72 548 -90 q 212 447 212 236 q 308 725 212 597 l 392 576 q 364 440 364 510 q 475 156 364 299 q 759 -89 577 25 m 737 990 q 409 827 496 907 l 489 751 q 737 990 537 829 m 51 959 q 420 796 248 961 q 597 417 597 628 q 502 143 597 271 l 419 293 q 446 430 446 360 q 335 713 446 571 q 51 959 233 845 m 61 -121 q 389 36 311 -35 l 309 118 q 61 -121 261 39 m 742 1098 l 67 1098 l 67 1220 l 742 1220 l 742 1098 "},"}":{"x_min":67.140625,"x_max":1274.375,"ha":1356,"o":"m 1149 0 l 1144 0 q 680 368 892 204 l 680 373 q 815 463 683 381 l 821 463 q 916 392 832 463 q 1000 324 964 361 l 1000 427 l 883 427 l 878 433 l 878 525 l 883 531 l 1003 531 l 1003 626 q 872 531 981 601 q 677 392 792 465 q 577 322 588 322 q 476 273 539 293 q 368 257 399 257 l 357 257 q 221 281 259 265 q 181 303 221 286 q 86 419 99 365 q 67 487 67 455 l 67 501 q 346 745 67 711 l 392 750 l 425 750 q 460 742 436 742 q 514 729 480 731 q 639 650 610 691 q 666 604 666 617 l 666 601 q 514 487 554 523 q 509 501 509 487 q 441 555 509 522 l 403 560 l 365 560 q 259 503 283 560 l 259 501 q 373 430 259 452 q 650 577 474 430 l 1111 913 q 1182 959 1170 959 l 1274 826 q 1195 764 1262 811 q 1011 634 1064 662 l 1011 631 l 1098 631 l 1103 626 l 1103 528 l 1217 528 l 1222 522 l 1222 433 l 1217 427 l 1103 427 l 1103 322 l 1098 316 l 1013 316 l 1266 115 l 1149 0 "},"ø":{"x_min":87,"x_max":762,"ha":803,"o":"m 622 677 l 689 764 l 755 716 l 682 623 q 740 517 725 563 q 762 359 762 451 q 647 60 762 155 q 423 -16 555 -16 q 233 37 316 -16 l 161 -54 l 97 -5 l 171 89 q 114 182 131 136 q 87 350 87 256 q 166 623 87 520 q 420 737 255 737 q 622 677 520 737 m 554 588 q 424 636 492 636 q 259 548 315 636 q 212 360 212 474 q 247 189 212 258 l 554 588 m 605 522 l 300 126 q 420 85 353 85 q 588 170 531 85 q 637 361 637 244 q 628 451 637 411 q 605 522 622 480 "},"‰":{"x_min":25,"x_max":1364,"ha":1333,"o":"m 216 -37 l 624 1011 l 712 1011 l 306 -37 l 216 -37 m 25 745 q 218 1003 25 1003 q 372 923 322 1003 q 414 747 414 857 q 220 480 414 480 q 25 745 25 480 m 125 739 q 222 565 125 565 q 314 741 314 565 q 220 919 314 919 q 125 739 125 919 m 517 227 q 710 486 517 486 q 864 406 814 486 q 907 230 907 340 q 712 -37 907 -37 q 517 227 517 -37 m 617 222 q 715 47 617 47 q 807 223 807 47 q 712 402 807 402 q 617 222 617 402 m 975 227 q 1168 486 975 486 q 1322 406 1272 486 q 1364 230 1364 340 q 1170 -37 1364 -37 q 975 227 975 -37 m 1075 222 q 1172 47 1075 47 q 1264 223 1264 47 q 1170 402 1264 402 q 1075 222 1075 402 "},"Ч":{"x_min":67.828125,"x_max":733.15625,"ha":785,"o":"m 402 843 q 468 818 442 843 q 494 753 494 793 q 468 689 494 713 q 402 664 442 664 q 337 689 363 664 q 310 753 310 713 q 337 818 310 793 q 402 843 363 843 m 67 996 l 200 996 l 200 558 l 599 558 l 599 996 l 733 996 l 732 423 l 467 423 l 467 0 l 333 0 l 334 423 l 68 423 l 67 996 m 728 1098 l 67 1098 l 67 1220 l 728 1220 l 728 1098 "},"—":{"x_min":1,"x_max":1390,"ha":1432,"o":"m 1 311 l 1 409 l 1390 409 l 1390 311 l 1 311 "},"N":{"x_min":106,"x_max":889,"ha":933,"o":"m 106 0 l 106 994 l 240 994 l 763 213 l 763 994 l 889 994 l 889 0 l 753 0 l 232 780 l 232 0 l 106 0 "},"⁄":{"x_min":-307.3125,"x_max":546.203125,"ha":508,"o":"m -307 -39 l 439 1011 l 546 1011 l -200 -39 l -307 -39 "},"2":{"x_min":39,"x_max":914.578125,"ha":926,"o":"m 209 948 l 266 1002 q 295 990 279 999 q 380 910 333 966 q 438 748 438 840 q 414 646 438 699 q 330 577 383 577 q 238 623 272 577 q 209 717 208 664 q 282 867 209 839 l 209 948 m 322 676 q 354 720 354 676 q 322 767 354 767 q 292 720 292 767 q 322 676 292 676 m 401 931 l 453 860 q 506 880 488 881 q 574 847 541 879 q 630 686 627 796 q 579 459 631 593 q 436 218 522 313 q 226 108 336 106 q 210 107 219 107 q 155 163 155 107 q 182 198 155 185 q 228 209 203 209 q 278 201 265 209 q 296 190 295 190 q 343 190 317 187 l 403 245 q 223 317 329 317 q 88 266 142 317 q 39 165 39 220 q 89 63 39 111 q 217 12 143 12 q 443 96 315 12 q 646 284 563 175 q 789 684 789 470 q 728 887 789 798 q 523 994 654 994 q 401 931 450 994 m 483 80 l 574 151 q 712 110 649 110 q 820 137 752 110 q 890 165 888 165 q 914 126 914 165 q 873 54 914 92 q 704 0 814 0 q 483 80 543 0 "},"∟":{"x_min":245,"x_max":1113.796875,"ha":1040,"o":"m 245 867 l 313 867 l 313 68 l 1113 68 l 1113 0 l 245 0 l 245 867 "},"М":{"x_min":39.34375,"x_max":1047.171875,"ha":1103,"o":"m 39 -244 q 204 -78 151 -183 q 288 367 280 70 q 411 831 297 683 q 623 949 493 937 l 740 533 l 883 949 l 1047 949 l 1047 -11 l 885 -11 l 885 678 l 725 213 l 541 819 q 458 695 478 759 q 425 370 427 598 q 39 -244 419 -194 m 1040 1098 l 67 1098 l 67 1220 l 1040 1220 l 1040 1098 "},"ь":{"x_min":6.765625,"x_max":552.078125,"ha":620,"o":"m 362 293 l 362 411 l 66 411 l 66 293 l 362 293 m 540 -203 q 361 -73 364 -76 q 243 74 282 -8 q 173 345 197 170 q 170 399 170 373 q 552 970 170 678 q 409 921 550 981 q 146 738 246 852 q 6 349 5 578 q 148 3 8 147 q 405 -160 247 -97 q 540 -203 518 -206 m 7 1220 l 549 1220 l 549 1098 l 7 1098 l 7 1220 "},"":{"x_min":16,"x_max":599,"ha":642,"o":"m 125 0 l 125 626 l 16 626 l 16 720 l 125 720 l 125 789 q 316 1011 125 1011 q 440 995 383 1011 l 421 892 q 356 898 386 898 q 266 866 288 898 q 248 766 248 839 l 248 720 l 386 720 l 386 626 l 248 626 l 248 0 l 125 0 m 476 0 l 476 994 l 599 994 l 599 0 l 476 0 "},"Ó":{"x_min":67.140625,"x_max":1093.296875,"ha":1049,"o":"m 581 1022 q 944 872 795 1022 q 1093 510 1093 722 q 943 150 1093 299 q 581 1 794 1 q 221 150 370 1 q 71 510 71 299 q 220 872 71 722 q 581 1022 368 1022 m 581 882 q 319 774 427 882 q 211 512 211 666 q 319 250 211 358 q 581 142 427 142 q 842 250 734 142 q 950 512 950 358 q 843 774 950 666 q 581 882 735 882 m 67 1098 l 67 1220 l 1087 1220 l 1087 1098 l 67 1098 m 458 1055 l 548 1245 l 708 1245 l 559 1055 l 458 1055 "},"˜":{"x_min":5.984375,"x_max":459.734375,"ha":498,"o":"m 6 827 q 41 935 5 892 q 143 981 79 981 q 258 945 185 981 q 322 925 298 925 q 371 983 363 925 l 459 983 q 326 829 455 829 q 214 866 284 829 q 147 891 168 891 q 96 827 94 891 l 6 827 "},"ˇ":{"x_min":27,"x_max":456.3125,"ha":484,"o":"m 243 884 l 317 1000 l 456 1000 l 303 810 l 173 810 l 27 1000 l 166 1000 l 243 884 "},"Ÿ":{"x_min":4.0625,"x_max":1675.203125,"ha":903,"o":"m 1515 413 q 1488 500 1515 463 q 1368 552 1450 552 q 1267 514 1310 552 q 1221 413 1221 475 q 1368 274 1221 274 q 1515 413 1515 274 m 1062 413 q 1154 617 1062 530 q 1368 704 1245 704 q 1583 617 1492 704 q 1675 413 1675 530 q 1583 208 1675 295 q 1368 122 1492 122 q 1154 208 1245 122 q 1062 413 1062 295 m 457 412 q 430 499 457 463 q 309 551 391 551 q 208 514 251 551 q 162 412 162 474 q 309 273 162 273 q 457 412 457 273 m 4 412 q 95 616 4 529 q 309 703 186 703 q 524 616 434 703 q 615 412 615 529 q 524 208 615 295 q 309 122 434 122 q 95 208 186 122 q 4 412 4 295 m 554 13 q 626 263 626 71 q 596 497 626 364 q 567 746 567 631 q 644 935 567 855 q 830 1016 722 1016 q 998 972 923 1016 q 1131 714 1126 896 q 1061 504 1134 581 q 931 430 1011 451 q 881 419 891 419 q 767 467 814 423 l 743 657 q 866 564 803 564 q 990 714 990 564 q 936 837 990 790 q 843 876 892 876 q 758 833 801 876 q 711 731 714 787 q 728 548 710 693 q 746 350 747 398 q 554 13 743 129 m 206 1055 l 206 1194 l 333 1194 l 333 1055 l 206 1055 m 459 1055 l 459 1194 l 586 1194 l 586 1055 l 459 1055 "},"Ў":{"x_min":6.828125,"x_max":910.21875,"ha":1137,"o":"m 19 891 l 180 963 l 493 163 l 749 974 l 910 945 l 600 0 l 6 0 l 6 150 l 324 150 l 19 891 m 885 1098 l 6 1098 l 6 1220 l 885 1220 l 885 1098 m 529 1231 l 612 1231 q 412 1055 591 1055 q 212 1231 233 1055 l 295 1231 q 408 1139 314 1139 q 529 1231 511 1139 "},"в":{"x_min":59,"x_max":680.25,"ha":746,"o":"m 515 290 q 470 396 515 358 q 366 430 428 430 q 271 398 315 430 q 219 290 219 358 q 257 193 219 232 q 366 150 297 150 q 474 187 433 150 q 515 290 515 225 m 59 290 q 150 496 59 408 q 366 583 242 583 q 583 496 491 583 q 675 290 675 408 q 583 85 675 172 q 366 -2 491 -2 q 150 85 242 -2 q 59 290 59 172 m 515 694 q 488 782 515 745 q 366 834 448 834 q 265 796 307 834 q 219 694 219 756 q 366 554 219 554 q 515 694 515 554 m 59 694 q 150 899 59 812 q 366 986 242 986 q 583 899 491 986 q 675 694 675 812 q 583 488 675 575 q 366 401 491 401 q 150 488 242 401 q 59 694 59 575 m 68 1220 l 680 1220 l 680 1098 l 68 1098 l 68 1220 "},"Η":{"x_min":110.828125,"x_max":794.46875,"ha":935,"o":"m 110 0 l 110 991 l 246 991 l 246 585 l 653 585 l 653 990 l 789 991 l 789 0 l 653 0 l 653 474 l 246 474 l 246 0 l 110 0 m 794 1098 l 110 1098 l 110 1220 l 794 1220 l 794 1098 "},"≡":{"x_min":77,"x_max":733.53125,"ha":724,"o":"m 733 736 l 77 736 l 77 849 l 733 849 l 733 736 m 733 433 l 77 433 l 77 547 l 733 547 l 733 433 m 733 132 l 77 132 l 77 246 l 733 246 l 733 132 "},"С":{"x_min":67.828125,"x_max":678.21875,"ha":746,"o":"m 73 0 l 73 961 l 678 961 l 678 819 l 229 819 l 229 139 l 678 139 l 678 0 l 73 0 m 674 1098 l 67 1098 l 67 1220 l 674 1220 l 674 1098 "},"Ω":{"x_min":86,"x_max":1000,"ha":1031,"o":"m 336 109 q 224 197 263 154 q 102 544 102 332 q 152 781 102 674 q 312 959 207 898 q 548 1019 415 1019 q 898 846 776 1019 q 987 543 987 721 q 854 190 987 333 q 753 109 817 151 l 1000 113 l 1000 0 l 610 0 l 610 119 q 694 172 663 146 q 829 392 791 255 q 846 526 846 456 q 814 708 846 622 q 710 858 778 809 q 545 908 642 908 q 344 826 415 908 q 246 528 246 712 q 300 288 246 392 q 477 121 360 174 l 477 0 l 86 0 l 86 113 l 336 109 "},"s":{"x_min":65.109375,"x_max":486.28125,"ha":542,"o":"m 68 -212 l 99 -113 q 217 -46 153 -52 q 354 -34 321 -52 q 394 30 394 -12 q 368 78 394 61 q 277 107 350 89 q 171 138 196 128 q 84 201 107 162 q 65 271 65 233 q 124 386 65 342 q 258 423 175 423 q 436 357 387 423 q 464 312 458 326 l 392 281 q 264 349 367 349 q 151 282 151 349 q 196 227 151 244 q 274 204 208 222 q 378 174 362 181 q 465 115 440 151 q 486 40 486 85 q 385 -103 486 -60 q 274 -125 337 -125 q 68 -212 147 -113 "},"?":{"x_min":61.046875,"x_max":702.640625,"ha":747,"o":"m 437 766 q 447 660 438 693 q 489 585 458 620 q 552 524 505 567 q 657 413 626 459 q 702 271 702 347 q 603 69 702 144 q 383 0 513 0 q 161 74 244 0 q 61 286 78 148 l 186 301 q 385 100 218 100 q 519 151 461 100 q 577 279 577 203 q 558 352 577 318 q 478 440 539 385 q 387 526 405 505 q 339 605 355 565 q 319 729 319 658 q 320 766 319 741 l 437 766 m 451 1011 l 451 872 l 312 872 l 312 1011 l 451 1011 "},"c":{"x_min":67.828125,"x_max":700.609375,"ha":777,"o":"m 384 854 q 249 910 305 854 q 193 1045 193 966 q 249 1180 193 1124 q 384 1236 305 1236 q 519 1180 463 1236 q 575 1045 575 1124 q 520 910 575 966 q 384 854 464 854 m 383 946 q 455 976 425 946 q 484 1047 484 1005 q 455 1119 484 1089 q 383 1148 425 1148 q 312 1119 341 1148 q 282 1047 282 1089 q 312 976 282 1005 q 383 946 341 946 m 700 430 l 700 859 l 67 859 l 67 430 l 182 429 l 183 736 l 328 736 l 328 0 l 446 0 l 448 736 l 585 736 l 585 430 l 700 430 "},"Μ":{"x_min":102.828125,"x_max":841.40625,"ha":1095,"o":"m 585 1199 l 586 1198 l 587 1198 l 597 1199 q 704 1155 650 1197 q 781 1072 734 1133 q 822 976 800 1041 q 838 883 835 919 l 836 882 l 840 851 l 838 851 l 840 850 l 840 849 l 841 763 l 840 735 l 838 733 l 840 731 l 839 720 q 831 650 833 649 l 832 648 l 832 647 l 825 607 q 839 393 842 470 l 838 393 l 839 391 l 839 379 l 838 378 l 839 377 l 836 341 l 835 319 q 792 164 816 220 q 707 48 766 102 l 669 23 q 634 9 665 23 q 583 0 599 0 l 561 0 q 452 46 513 2 q 379 149 399 93 q 351 294 349 223 l 353 296 l 353 297 l 351 299 q 387 402 362 362 q 440 455 412 440 q 471 465 463 465 q 530 446 511 459 q 582 375 578 398 q 604 288 604 324 l 603 281 l 604 276 l 603 274 l 604 267 q 577 158 602 223 q 540 106 561 124 l 538 106 q 493 147 511 123 q 483 158 490 147 l 483 160 q 511 212 496 169 l 520 261 l 520 300 q 507 349 513 337 q 483 375 507 356 q 448 347 454 376 l 443 339 l 445 337 l 445 336 q 435 297 437 317 q 478 134 431 198 q 549 87 515 96 l 583 80 l 587 80 q 689 145 644 78 l 712 189 q 747 343 745 278 l 748 381 l 750 402 l 749 446 l 750 448 l 750 449 q 732 598 745 550 l 728 607 q 749 748 747 691 l 748 749 l 748 750 l 751 765 l 750 767 l 750 772 l 752 784 q 732 936 748 875 l 708 1013 q 622 1107 682 1073 l 620 1106 l 619 1106 l 599 1112 l 595 1111 l 593 1112 l 591 1112 l 555 1102 q 524 1148 544 1128 l 500 1169 l 498 1171 l 498 1172 q 537 1193 499 1182 q 585 1199 543 1197 m 368 1201 l 368 1199 l 370 1201 l 372 1201 l 374 1199 l 376 1201 l 377 1201 l 378 1199 l 380 1201 l 381 1201 q 457 1178 457 1187 q 532 1108 491 1167 q 578 1025 557 1083 q 596 941 591 980 l 594 941 l 595 939 l 595 916 l 596 910 l 595 906 l 596 900 l 593 885 l 594 883 q 555 779 592 836 q 477 733 519 731 l 475 733 q 399 776 435 734 q 353 883 368 806 q 349 933 348 912 q 382 1059 351 1005 q 403 1090 382 1070 l 406 1090 q 464 1041 433 1079 l 464 1039 l 462 1038 l 464 1036 l 463 1033 q 447 1008 451 1025 q 430 948 436 990 l 431 944 l 430 935 l 429 926 q 441 852 429 893 q 473 819 451 830 l 476 819 q 513 903 504 818 l 514 912 q 481 1040 516 978 q 405 1109 455 1085 q 364 1116 391 1115 l 359 1116 l 349 1115 l 349 1117 q 316 1103 329 1112 q 262 1060 300 1101 q 220 978 240 1032 q 189 829 192 905 l 190 815 l 188 809 l 191 747 l 189 747 q 196 693 193 733 l 213 600 q 188 440 193 551 l 188 425 l 189 417 l 188 410 l 189 404 l 188 402 l 187 401 q 216 227 193 309 q 266 130 232 185 q 370 80 310 82 q 395 88 386 82 q 412 61 403 82 l 447 24 l 447 21 q 364 0 438 3 q 278 24 304 8 l 229 61 q 178 122 191 94 q 122 265 149 162 q 106 398 105 363 l 108 398 l 106 400 l 107 415 l 106 431 l 108 450 l 108 453 q 118 554 113 554 l 117 555 l 117 556 l 122 590 q 103 786 106 678 l 102 815 q 155 1048 107 958 q 226 1145 175 1091 q 325 1195 281 1192 l 368 1201 m 806 1237 l 151 1237 l 151 1294 l 806 1294 l 806 1237 m 696 569 l 244 569 l 244 630 l 696 630 l 696 569 "},"н":{"x_min":67.828125,"x_max":1020.71875,"ha":1085,"o":"m 69 82 l 278 449 l 430 392 l 222 0 l 69 82 m 344 627 l 486 592 q 503 725 503 688 q 270 986 503 986 q 120 908 172 986 q 80 777 80 849 q 141 564 82 630 q 430 423 213 483 q 619 392 497 405 q 757 361 717 381 q 850 248 817 330 q 858 208 858 227 q 815 160 858 159 q 755 198 782 162 q 727 284 727 233 q 742 353 727 318 l 585 384 q 564 269 564 322 q 634 82 564 162 q 815 0 709 0 q 1003 184 1003 2 q 1000 218 1003 203 q 940 397 976 341 q 569 567 832 560 q 379 584 432 571 q 299 624 347 592 q 243 708 265 647 q 227 777 225 755 q 243 813 227 794 q 289 834 263 838 q 347 791 331 828 q 362 729 348 790 q 364 715 364 723 q 352 659 364 695 q 344 627 342 628 m 660 597 l 824 537 l 1020 908 l 861 981 l 660 597 m 67 1220 l 1010 1220 l 1010 1098 l 67 1098 l 67 1220 "},"(":{"x_min":84,"x_max":412.265625,"ha":418,"o":"m 324 -292 q 84 360 84 11 q 324 1011 84 689 l 412 1011 q 303 809 330 870 q 209 359 209 595 q 412 -292 209 33 l 324 -292 "},"◊":{"x_min":32,"x_max":655.96875,"ha":675,"o":"m 372 964 l 655 480 l 372 0 l 297 0 l 32 480 l 297 964 l 372 964 m 335 898 l 105 480 l 336 64 l 579 480 l 335 898 "},"α":{"x_min":49,"x_max":750.96875,"ha":783,"o":"m 626 720 l 750 720 q 663 360 703 570 q 750 0 710 98 l 629 0 q 585 131 600 67 q 350 -16 529 -16 q 119 102 200 -16 q 49 361 49 204 q 118 621 49 521 q 352 737 198 737 q 490 702 434 737 q 590 598 542 670 q 626 720 594 621 m 372 636 q 220 545 269 636 q 183 362 183 474 q 218 179 183 252 q 365 85 266 85 q 519 179 467 85 q 562 367 562 256 q 522 547 562 477 q 372 636 473 636 "},"γ":{"x_min":16.984375,"x_max":677.59375,"ha":695,"o":"m 16 720 l 146 720 l 346 154 l 552 720 l 677 720 l 408 0 l 408 -276 l 284 -276 l 284 0 l 16 720 "},"м":{"x_min":67.828125,"x_max":1261.5,"ha":1325,"o":"m 170 8 q 144 63 170 4 q 97 203 116 130 q 69 406 71 306 q 168 782 63 611 q 509 985 295 986 q 755 885 653 983 q 876 693 832 810 q 907 560 910 604 q 854 363 900 440 q 672 259 792 259 q 485 354 552 259 q 424 557 427 436 q 455 705 422 648 q 529 785 476 742 q 614 752 600 767 q 667 702 635 735 q 573 555 573 630 q 592 459 573 503 q 660 403 616 403 q 758 561 750 403 q 704 716 763 636 q 512 815 630 815 q 318 657 396 815 q 256 415 254 528 q 309 174 258 299 q 358 75 350 75 l 170 8 m 720 940 q 761 906 720 941 q 796 876 779 891 q 847 804 816 849 q 867 815 857 810 q 900 818 881 823 q 1003 753 956 806 q 1086 486 1082 661 q 1017 227 1087 392 q 943 82 953 82 l 1113 0 q 1203 186 1186 143 q 1261 501 1261 339 q 1170 831 1261 697 q 922 981 1076 972 q 720 940 775 988 m 67 1220 l 1228 1220 l 1228 1098 l 67 1098 l 67 1220 "},"­":{"x_min":77,"x_max":733.53125,"ha":778,"o":"m 733 433 l 77 433 l 77 547 l 733 547 l 733 433 "},"з":{"x_min":67.140625,"x_max":829.5,"ha":882,"o":"m 75 909 q 164 950 120 933 q 382 994 273 991 q 673 910 539 999 q 829 621 831 803 q 679 351 828 448 q 501 285 573 281 q 269 483 269 299 q 342 642 269 585 q 499 693 405 691 q 676 604 608 696 q 650 533 661 544 q 611 488 636 515 q 497 567 556 567 q 442 549 467 567 q 409 485 409 526 q 502 410 409 416 q 621 457 559 406 q 697 619 697 519 q 576 779 697 717 q 389 828 478 829 q 203 787 299 826 q 127 750 127 755 l 75 909 m 795 443 q 769 408 796 442 q 746 378 758 392 q 689 335 724 362 q 694 299 697 316 q 444 141 663 146 q 244 196 370 140 q 131 255 131 246 l 67 111 q 212 34 179 48 q 456 -14 330 -14 q 711 62 607 -14 q 826 271 820 143 q 795 443 832 396 m 67 1220 l 814 1220 l 814 1098 l 67 1098 l 67 1220 "},":":{"x_min":125,"x_max":264,"ha":292,"o":"m 125 581 l 125 720 l 264 720 l 264 581 l 125 581 m 125 0 l 125 139 l 264 139 l 264 0 l 125 0 "},"і":{"x_min":91.828125,"x_max":257.3125,"ha":255,"o":"m 105 0 l 105 720 l 227 720 l 227 0 l 105 0 m 91 828 q 115 887 91 863 q 174 911 139 911 q 233 887 209 911 q 257 828 257 863 q 233 770 257 794 q 174 746 209 746 q 115 770 139 746 q 91 828 91 794 "},"Û":{"x_min":109.078125,"x_max":1014.515625,"ha":930,"o":"m 143 1037 l 286 1020 q 263 836 263 906 q 267 783 263 807 q 301 672 275 725 q 376 596 334 607 l 237 537 q 115 758 138 611 q 109 851 109 805 q 143 1037 109 942 m 535 662 q 624 603 544 619 q 653 659 638 631 q 672 744 672 701 q 519 931 672 931 q 412 870 463 931 q 360 733 359 807 q 389 627 362 669 q 427 583 408 605 q 251 520 310 555 q 115 324 131 451 q 109 225 109 273 q 157 -17 109 84 l 324 14 q 274 227 274 126 q 276 272 274 249 q 318 408 286 368 q 437 461 353 451 q 451 461 444 461 q 571 301 555 461 q 560 253 574 276 q 537 233 547 235 q 495 252 510 229 q 482 299 481 271 q 499 360 483 337 q 522 389 511 375 q 489 432 515 406 q 434 446 487 433 q 388 403 411 425 q 360 288 355 360 q 431 156 366 200 q 537 124 478 124 q 635 162 594 124 q 683 304 688 210 q 650 421 680 374 q 607 473 628 447 q 634 472 621 472 q 914 803 884 472 q 915 835 915 817 q 895 988 915 905 q 869 1064 878 1064 l 730 1034 q 763 813 764 895 q 736 666 760 725 q 622 587 699 581 q 482 758 482 598 q 499 803 482 794 q 519 807 509 805 q 541 800 530 804 q 556 760 555 791 q 549 702 557 729 q 535 662 541 682 m 688 451 q 733 422 714 443 q 786 265 779 371 q 787 242 787 254 q 743 30 787 162 l 893 -1 q 939 272 939 128 q 828 514 939 417 q 765 470 787 479 q 688 451 735 463 m 917 813 l 1014 813 l 1014 918 l 917 918 l 917 813 m 675 814 l 772 814 l 772 919 l 675 919 l 675 814 m 565 1171 l 488 1056 l 349 1056 l 495 1246 l 625 1246 l 778 1056 l 639 1056 l 565 1171 "},"V":{"x_min":67.828125,"x_max":1028.1875,"ha":1085,"o":"m 67 1098 l 67 1220 l 1020 1220 l 1020 1098 l 67 1098 m 473 0 l 67 999 l 239 999 l 482 379 q 545 218 514 297 q 600 356 583 297 l 853 999 l 1028 999 l 615 0 l 473 0 "},"У":{"x_min":67.828125,"x_max":971.21875,"ha":1030,"o":"m 80 891 l 241 963 l 554 163 l 810 974 l 971 945 l 661 0 l 67 0 l 67 150 l 385 150 l 80 891 m 946 1098 l 67 1098 l 67 1220 l 946 1220 l 946 1098 "},"@":{"x_min":67.828125,"x_max":1037,"ha":1114,"o":"m 1037 489 q 928 398 1037 398 q 750 433 849 398 l 645 469 l 632 427 l 797 345 q 918 204 918 286 q 827 109 918 109 q 604 400 754 109 q 575 387 592 392 q 619 244 602 305 q 642 98 642 158 q 551 0 642 0 q 461 98 461 0 q 537 387 461 172 l 499 400 q 405 221 468 340 q 273 109 343 109 q 183 204 183 109 q 303 344 183 280 q 474 427 307 345 q 458 469 463 449 q 318 423 366 437 q 174 398 235 398 q 67 489 67 398 q 174 583 67 583 q 312 558 236 583 l 458 505 q 474 554 463 529 q 303 634 416 579 q 183 773 183 695 q 273 870 183 870 q 404 758 341 870 q 499 577 438 691 l 534 589 q 499 695 533 597 q 461 878 461 808 q 551 981 461 981 q 642 878 642 981 q 617 739 642 815 l 567 592 l 604 577 l 697 756 q 827 870 762 870 q 918 773 918 870 q 798 635 918 697 q 632 554 754 613 l 645 505 q 783 555 737 539 q 928 583 868 583 q 1037 489 1037 583 m 607 489 q 551 545 607 545 q 496 489 496 545 q 551 433 496 433 q 607 489 607 433 "},"¾":{"x_min":22,"x_max":1138,"ha":1147,"o":"m 170 -39 l 916 1011 l 1023 1011 l 276 -39 l 170 -39 m 22 630 l 121 640 q 156 584 134 599 q 225 564 185 564 q 298 587 268 564 q 332 654 332 612 q 226 729 332 731 q 200 728 212 729 q 186 728 187 728 l 201 802 q 308 870 308 800 q 227 931 308 931 q 130 862 157 931 l 33 877 q 105 977 62 949 q 227 1006 148 1006 q 414 879 414 1006 q 320 770 414 797 q 438 641 438 741 q 370 521 438 564 q 231 485 313 485 q 22 630 51 485 m 969 -21 l 969 83 l 710 83 l 710 166 l 982 488 l 1067 488 l 1067 156 l 1138 156 l 1138 83 l 1067 83 l 1067 -21 l 969 -21 m 969 156 l 969 335 l 813 156 l 969 156 "},"i":{"x_min":67.828125,"x_max":233.3125,"ha":298,"o":"m 81 0 l 81 720 l 203 720 l 203 0 l 81 0 m 67 828 q 91 887 67 863 q 150 911 115 911 q 209 887 185 911 q 233 828 233 863 q 209 770 233 794 q 150 746 185 746 q 91 770 115 746 q 67 828 67 794 "},"ё":{"x_min":67.828125,"x_max":613.796875,"ha":678,"o":"m 174 1048 q 232 1025 208 1048 q 255 968 255 1001 q 232 911 255 935 q 174 887 208 887 q 118 911 141 887 q 94 968 94 935 q 118 1025 94 1001 q 174 1048 141 1048 m 503 1048 q 561 1025 537 1048 q 585 968 585 1001 q 561 911 585 935 q 503 887 537 887 q 447 911 471 887 q 423 968 423 935 q 447 1025 423 1001 q 503 1048 471 1048 m 613 811 l 71 811 l 69 0 l 611 0 l 611 132 l 222 132 l 222 338 l 611 338 l 611 474 l 222 474 l 222 682 l 613 682 l 613 811 m 67 1220 l 609 1220 l 609 1098 l 67 1098 l 67 1220 "},"υ":{"x_min":92,"x_max":669,"ha":731,"o":"m 92 720 l 215 720 l 215 294 q 252 149 215 205 q 380 85 295 85 q 472 113 429 85 q 532 187 514 141 q 548 303 548 228 l 548 720 l 669 720 l 669 298 q 597 70 669 151 q 377 -16 522 -16 q 225 20 293 -16 q 118 133 150 60 q 92 293 92 192 l 92 720 "},"m":{"x_min":67.828125,"x_max":670.796875,"ha":746,"o":"m 453 1245 l 454 1245 l 455 1245 l 463 1245 q 550 1211 505 1245 q 613 1146 575 1195 q 648 1068 629 1120 q 662 993 659 1022 l 661 992 l 663 967 l 663 967 l 663 966 l 663 965 l 666 896 l 666 873 l 664 872 l 666 870 l 666 861 q 659 804 661 804 l 661 803 l 661 802 l 655 769 q 670 596 671 659 l 669 596 l 670 595 l 670 585 l 669 584 l 670 583 l 668 554 l 668 537 q 635 410 653 456 q 569 315 615 360 l 537 295 q 510 282 534 295 q 468 274 482 274 l 451 274 q 362 309 411 275 q 301 392 318 347 q 276 510 275 452 l 278 510 l 278 512 l 276 513 q 303 598 284 564 q 346 641 323 629 q 370 649 364 649 q 419 635 404 644 q 462 579 459 597 q 480 508 481 537 l 480 502 l 482 497 l 480 497 l 481 491 q 461 402 481 455 q 432 360 448 375 l 430 360 q 393 392 408 373 q 385 401 390 392 l 385 402 q 407 445 396 410 l 413 484 l 413 516 q 402 556 406 546 q 383 577 402 562 q 354 554 358 577 l 350 547 l 352 545 l 352 544 q 344 513 345 529 q 381 381 343 433 q 439 344 412 351 l 467 339 l 470 339 q 552 394 516 338 l 570 430 q 596 554 595 502 l 596 585 l 598 602 l 596 638 l 597 639 l 597 640 q 581 761 592 722 l 577 768 q 592 883 592 836 l 591 883 l 591 885 l 594 896 l 592 897 l 592 902 l 594 912 q 576 1034 590 986 l 555 1097 q 484 1171 533 1145 l 482 1170 l 482 1170 l 465 1176 l 462 1174 l 461 1176 l 459 1176 l 430 1167 q 404 1203 421 1188 l 384 1220 l 383 1221 l 383 1222 q 414 1239 383 1230 q 453 1245 419 1243 m 278 1244 l 277 1243 l 278 1244 l 281 1244 l 282 1243 l 283 1244 l 284 1244 l 286 1243 l 286 1244 l 288 1244 q 349 1226 349 1234 q 411 1171 377 1218 q 450 1104 432 1152 q 465 1037 461 1068 l 464 1037 l 465 1035 l 465 1016 l 466 1012 l 465 1008 l 465 1003 l 463 991 l 464 990 q 435 905 463 952 q 373 866 406 866 l 370 866 q 309 900 338 867 q 269 986 282 924 q 265 1027 265 1009 q 290 1129 266 1085 q 307 1155 290 1138 l 309 1155 q 357 1115 331 1146 l 357 1114 l 356 1113 l 357 1112 l 357 1110 q 343 1089 347 1102 q 331 1040 335 1074 l 332 1037 l 330 1029 l 330 1022 q 341 963 330 996 q 368 936 349 944 l 370 936 q 399 1005 393 936 l 400 1012 q 370 1115 400 1065 q 309 1170 349 1152 q 275 1175 297 1175 l 271 1175 l 263 1174 l 263 1176 q 236 1164 246 1171 q 193 1129 223 1162 q 161 1062 176 1106 q 138 940 139 1001 l 139 929 l 137 924 l 140 874 l 139 874 q 145 830 142 862 l 160 756 q 143 625 144 715 l 143 613 l 143 607 l 142 600 l 143 596 l 142 594 l 142 594 q 168 453 148 520 q 210 375 181 419 q 294 336 246 337 q 314 343 307 338 q 329 322 321 338 l 358 292 l 358 290 q 290 271 351 275 q 221 290 242 277 l 181 318 q 138 367 149 345 q 91 482 115 399 q 77 590 76 562 l 78 590 l 77 591 l 77 604 l 76 617 l 78 632 l 78 634 q 84 716 80 716 l 82 717 l 82 718 l 86 745 q 68 904 72 817 l 67 927 q 107 1117 69 1043 q 163 1197 122 1152 q 242 1239 206 1235 l 278 1244 m 318 17 l 368 -42 q 293 -138 363 -42 q 221 -240 228 -227 q 150 -194 184 -217 q 236 -87 193 -141 q 318 17 320 16 m 383 90 l 427 35 q 499 175 499 124 q 442 257 499 226 q 378 271 415 271 q 292 238 317 271 q 265 154 265 202 q 301 53 265 101 q 455 -133 347 -6 q 544 -240 499 -186 q 574 -219 559 -229 q 609 -194 608 -195 q 354 107 451 -22 q 337 150 337 130 q 349 188 337 168 q 385 206 364 206 q 414 193 400 206 q 423 148 427 180 q 383 90 422 135 "},"Е":{"x_min":67.78125,"x_max":632.109375,"ha":709,"o":"m 226 337 q 240 404 229 385 q 270 443 255 427 q 335 424 315 425 q 368 450 371 422 q 335 476 366 474 q 326 474 331 476 q 259 453 275 465 q 211 342 226 426 q 210 327 210 334 q 274 214 206 265 q 423 129 305 189 q 558 29 494 93 q 631 -106 636 -48 q 579 -63 632 -100 q 389 30 502 -10 q 170 145 236 85 q 71 349 88 219 q 69 392 68 371 q 197 567 75 506 q 344 607 285 611 q 451 548 401 602 q 497 437 500 494 q 443 339 494 379 q 333 303 392 299 q 226 337 255 309 m 73 467 q 128 553 86 515 q 181 581 141 565 q 230 602 205 592 q 230 621 229 615 q 405 796 233 691 q 550 894 518 866 q 593 943 571 919 q 626 997 619 970 q 629 1029 628 1013 q 407 916 588 963 q 134 750 221 869 q 68 554 73 664 q 73 467 65 506 m 632 1098 l 67 1098 l 67 1220 l 632 1220 l 632 1098 "},"Э":{"x_min":67.828125,"x_max":729.765625,"ha":788,"o":"m 547 562 q 529 509 545 534 q 495 470 512 484 q 442 480 482 474 q 404 476 420 481 q 389 459 387 470 q 428 436 392 431 q 507 453 497 446 q 562 562 546 475 q 564 585 564 574 q 321 824 564 712 q 158 936 238 862 q 68 1085 63 1024 q 104 1035 67 1070 q 301 931 167 976 q 503 862 470 876 q 642 766 596 823 q 714 581 697 699 q 717 552 717 566 q 586 373 717 438 q 410 329 485 322 q 297 363 347 335 q 227 462 232 401 q 286 567 221 526 q 421 598 345 603 q 547 562 513 592 m 720 488 q 661 401 704 436 q 544 339 637 381 q 545 308 545 307 q 368 115 545 212 q 193 25 275 63 q 137 -12 164 10 q 77 -114 90 -54 q 125 -62 102 -78 q 308 7 184 -20 q 729 394 729 102 q 720 488 729 437 m 725 1098 l 67 1098 l 67 1220 l 725 1220 l 725 1098 "},"ž":{"x_min":26.890625,"x_max":1335.3125,"ha":671,"o":"m 359 698 q 496 644 416 698 l 522 615 q 555 543 545 573 l 562 499 l 562 497 q 484 318 562 379 q 431 275 478 307 l 349 264 q 260 286 283 271 q 199 335 229 302 l 171 375 q 159 406 159 401 q 141 484 151 406 q 153 555 141 510 q 163 577 155 556 q 208 638 180 609 q 342 698 275 698 l 359 698 m 286 489 l 286 478 q 326 421 286 447 q 355 417 338 417 l 356 417 q 419 473 398 417 l 420 488 q 382 548 420 531 l 355 555 q 305 533 319 549 q 286 489 286 510 m 234 295 l 250 279 q 341 255 285 255 q 408 265 360 255 l 412 265 l 414 263 q 365 225 395 245 q 289 167 311 181 q 255 137 262 147 l 680 137 l 683 134 l 683 4 l 680 2 l 29 2 l 26 4 l 26 121 q 79 170 29 134 l 231 294 l 233 295 l 234 295 m 28 816 l 28 939 l 675 939 l 675 816 l 28 816 m 1122 884 l 1196 1000 l 1335 1000 l 1182 810 l 1052 810 l 906 1000 l 1045 1000 l 1122 884 "},"ю":{"x_min":67.828125,"x_max":1001.734375,"ha":1060,"o":"m 618 691 l 554 772 q 647 908 567 798 q 699 988 674 940 q 727 1028 719 1024 q 750 1024 735 1032 q 791 994 759 1016 q 822 978 800 993 q 825 963 830 971 q 706 806 805 929 q 639 712 682 771 q 618 691 621 690 m 521 575 l 457 662 q 427 630 440 647 q 393 543 397 589 q 392 510 392 527 q 455 290 392 347 q 542 258 492 258 q 634 297 599 258 q 682 459 682 349 q 649 594 682 536 q 570 712 611 656 q 493 813 531 763 q 355 1034 387 956 q 349 1039 354 1039 q 308 1012 344 1039 q 269 982 273 985 q 259 966 261 974 q 429 721 258 953 q 499 634 463 677 q 566 532 543 577 q 582 430 582 501 q 571 371 582 384 q 543 361 562 362 q 511 371 524 360 q 488 446 495 385 q 486 526 482 499 q 521 575 489 542 m 445 678 q 431 656 437 672 q 421 636 425 640 q 380 577 406 613 q 330 584 355 590 q 255 552 279 573 q 189 368 198 501 q 219 166 183 297 q 258 49 252 49 l 146 0 q 67 341 67 172 q 69 385 67 362 q 154 615 76 529 q 354 701 232 701 q 430 689 406 701 q 445 678 448 680 m 602 671 q 647 636 620 659 q 689 577 663 613 q 739 584 713 590 q 813 552 790 573 q 880 368 870 501 q 849 166 885 297 q 810 49 817 49 l 923 0 q 1001 340 1001 172 q 1000 385 1001 362 q 914 615 992 529 q 714 701 836 701 q 628 686 663 701 q 602 671 600 673 m 980 1098 l 67 1098 l 67 1220 l 980 1220 l 980 1098 "},"×":{"x_min":109,"x_max":700.40625,"ha":728,"o":"m 109 277 l 322 491 l 109 704 l 192 787 l 405 574 l 617 786 l 698 704 l 487 492 l 700 278 l 618 195 l 404 409 l 190 195 l 109 277 "},"İ":{"x_min":119.671875,"x_max":371.96875,"ha":305,"o":"m 159 0 l 159 810 l 341 810 l 341 0 l 159 0 m 245 1127 q 335 1091 298 1127 q 371 1003 371 1054 q 335 915 371 951 q 245 878 298 878 q 156 915 193 878 q 119 1003 119 951 q 156 1091 119 1054 q 245 1127 192 1127 m 245 1097 q 180 1070 207 1097 q 154 1007 154 1044 q 180 943 154 969 q 245 916 207 916 q 310 943 283 916 q 337 1007 337 969 q 310 1070 337 1044 q 245 1097 283 1097 m 143 1056 l 143 1208 l 294 1208 l 294 1056 l 143 1056 "},"п":{"x_min":67.828125,"x_max":961.71875,"ha":1017,"o":"m 82 567 q 101 651 75 567 q 182 806 129 748 q 370 885 256 888 q 551 870 477 882 q 651 861 618 861 q 689 862 669 861 q 961 950 826 869 q 828 820 910 881 q 613 737 710 732 q 469 750 524 740 q 394 756 427 758 q 82 567 219 748 m 550 710 q 466 695 550 722 q 306 592 370 662 q 210 330 217 492 q 162 -39 196 51 q 67 -139 140 -100 q 254 -56 177 -129 q 364 288 373 56 q 408 537 358 427 q 501 672 443 616 q 550 710 526 691 m 533 598 l 532 4 l 674 4 l 674 596 l 533 598 m 952 1098 l 67 1098 l 67 1220 l 952 1220 l 952 1098 "},"K":{"x_min":67.828125,"x_max":1791.1875,"ha":1831,"o":"m 1081 290 q 1035 396 1081 358 q 933 430 995 430 q 838 397 882 430 q 786 290 786 358 q 824 193 786 232 q 933 151 865 151 q 1040 188 999 151 q 1081 290 1081 225 m 628 290 q 719 494 628 408 q 933 581 810 581 q 1148 494 1057 581 q 1239 290 1239 408 q 1148 86 1239 173 q 933 0 1057 0 q 719 86 810 0 q 628 290 628 173 m 1081 691 q 1053 779 1081 741 q 933 830 1015 830 q 832 793 875 830 q 786 691 786 753 q 933 552 786 552 q 1081 691 1081 552 m 628 691 q 719 895 628 809 q 933 982 810 982 q 1148 895 1057 982 q 1239 691 1239 809 q 1148 487 1239 574 q 933 400 1057 400 q 719 487 810 400 q 628 691 628 574 m 1632 495 q 1605 583 1632 546 q 1485 634 1566 634 q 1384 597 1426 634 q 1338 495 1338 558 q 1485 356 1338 356 q 1632 495 1632 356 m 1179 495 q 1270 699 1179 613 q 1485 786 1361 786 q 1700 699 1609 786 q 1791 495 1791 613 q 1700 291 1791 378 q 1485 204 1609 204 q 1270 291 1361 204 q 1179 495 1179 378 m 520 494 q 493 581 520 545 q 373 633 455 633 q 272 596 315 633 q 226 494 226 556 q 373 355 226 355 q 520 494 520 355 m 67 494 q 159 698 67 611 q 373 785 250 785 q 588 698 497 785 q 679 494 679 611 q 588 290 679 377 q 373 204 497 204 q 159 290 250 204 q 67 494 67 377 m 1223 745 q 1223 677 1223 677 l 1223 881 l 1226 990 l 1017 991 l 1020 1151 l 1385 1152 l 1384 786 q 1223 677 1317 785 l 1223 745 "},"7":{"x_min":46,"x_max":916.15625,"ha":920,"o":"m 570 878 l 500 786 q 237 877 329 877 q 158 853 194 877 q 98 829 123 829 q 46 872 52 829 q 242 1003 52 1003 q 570 878 408 1003 m 665 739 l 771 841 q 821 873 817 842 q 805 892 824 892 q 789 889 799 892 q 780 887 780 887 q 741 855 775 887 q 607 696 638 758 q 565 565 574 630 q 555 471 560 518 l 447 482 q 445 514 445 497 q 476 676 445 594 q 542 796 496 728 q 614 885 585 862 q 690 950 652 918 q 816 993 749 993 q 886 959 857 993 q 916 881 916 925 q 787 744 916 782 l 665 739 m 812 558 l 812 452 q 512 359 746 359 q 222 444 222 359 q 303 499 222 503 q 389 466 333 497 q 311 462 331 460 q 294 456 297 462 q 292 449 292 454 q 505 441 373 441 q 812 558 635 441 m 605 321 q 628 278 605 320 q 643 185 642 251 q 594 33 643 88 q 500 -11 553 -11 q 420 53 457 -9 q 386 185 383 116 q 428 325 388 277 l 551 325 q 526 281 535 303 q 504 189 510 243 q 502 149 502 165 q 522 107 502 109 q 542 134 531 106 q 553 186 553 162 q 536 221 553 219 l 605 321 "},"Ô":{"x_min":66.828125,"x_max":1092.96875,"ha":1049,"o":"m 580 1022 q 944 872 795 1022 q 1092 510 1092 722 q 943 150 1092 299 q 580 1 793 1 q 221 150 370 1 q 71 510 71 299 q 219 872 71 722 q 580 1022 367 1022 m 580 882 q 319 774 426 882 q 211 512 211 666 q 319 250 211 358 q 580 142 426 142 q 842 250 734 142 q 950 512 950 358 q 843 774 950 666 q 580 882 735 882 m 66 1098 l 66 1220 l 1087 1220 l 1087 1098 l 66 1098 m 541 1171 l 464 1056 l 325 1056 l 471 1246 l 601 1246 l 754 1056 l 615 1056 l 541 1171 "},"Y":{"x_min":67.140625,"x_max":1738.28125,"ha":1792,"o":"m 1578 413 q 1551 500 1578 463 q 1431 552 1513 552 q 1330 514 1373 552 q 1284 413 1284 475 q 1431 274 1284 274 q 1578 413 1578 274 m 1125 413 q 1217 617 1125 530 q 1431 704 1308 704 q 1647 617 1555 704 q 1738 413 1738 530 q 1647 208 1738 295 q 1431 122 1555 122 q 1217 208 1308 122 q 1125 413 1125 295 m 520 412 q 493 499 520 463 q 373 551 454 551 q 271 514 314 551 q 225 412 225 474 q 373 273 225 273 q 520 412 520 273 m 67 412 q 158 616 67 529 q 373 703 249 703 q 588 616 497 703 q 678 412 678 529 q 588 208 678 295 q 373 122 497 122 q 158 208 249 122 q 67 412 67 295 m 617 13 q 689 263 689 71 q 659 497 689 364 q 630 746 630 631 q 707 935 630 855 q 893 1016 785 1016 q 1061 972 986 1016 q 1194 714 1189 896 q 1124 504 1197 581 q 994 430 1074 451 q 944 419 954 419 q 830 467 877 423 l 806 657 q 929 564 866 564 q 1053 714 1053 564 q 999 837 1053 790 q 906 876 955 876 q 822 833 864 876 q 774 731 777 787 q 791 548 773 693 q 809 350 810 398 q 617 13 806 129 "},"E":{"x_min":67.828125,"x_max":682.96875,"ha":746,"o":"m 68 1098 l 68 1220 l 682 1220 l 682 1098 l 68 1098 m 67 0 l 67 991 l 678 991 l 677 855 l 202 857 l 203 572 l 677 572 l 677 441 l 202 441 l 202 135 l 677 135 l 677 0 l 67 0 "},"‹":{"x_min":62,"x_max":376.703125,"ha":404,"o":"m 196 357 l 376 49 l 275 49 l 62 357 l 275 667 l 376 667 l 196 357 "},"Ï":{"x_min":2.71875,"x_max":383.203125,"ha":357,"o":"m 137 0 l 137 810 l 319 810 l 319 0 l 137 0 m 223 1127 q 313 1091 276 1127 q 349 1003 349 1054 q 313 915 349 951 q 223 878 276 878 q 134 915 171 878 q 97 1003 97 951 q 134 1091 97 1054 q 223 1127 170 1127 m 223 1097 q 158 1070 185 1097 q 132 1007 132 1044 q 158 943 132 969 q 223 916 185 916 q 288 943 261 916 q 315 1007 315 969 q 288 1070 315 1044 q 223 1097 261 1097 m 2 1055 l 2 1194 l 130 1194 l 130 1055 l 2 1055 m 255 1055 l 255 1194 l 383 1194 l 383 1055 l 255 1055 "},"Є":{"x_min":74.8125,"x_max":947.875,"ha":943,"o":"m 580 572 l 580 455 l 211 455 q 292 204 217 302 q 523 94 376 94 q 820 345 760 94 l 947 312 q 532 -17 861 -17 q 182 134 297 -17 q 75 507 70 282 q 126 755 77 650 q 292 944 182 877 q 535 1011 399 1011 q 788 938 685 1011 q 934 721 897 862 l 806 687 q 534 895 749 895 q 304 805 388 895 q 216 572 224 719 l 580 572 "},"έ":{"x_min":66.46875,"x_max":588.015625,"ha":590,"o":"m 562 638 l 474 568 q 318 631 391 631 q 238 606 269 631 q 204 531 204 578 q 257 443 204 472 q 364 420 301 420 q 398 421 374 420 l 398 318 q 365 319 376 319 q 193 198 193 319 q 233 115 193 147 q 321 84 270 84 q 500 172 417 84 l 588 99 q 318 -16 479 -16 q 142 36 211 -16 q 66 198 66 94 q 185 372 66 320 q 86 527 86 428 q 158 684 86 627 q 326 736 223 736 q 562 638 465 736 m 248 809 l 338 999 l 498 999 l 349 809 l 248 809 "},"|":{"x_min":127,"x_max":233,"ha":280,"o":"m 127 -292 l 127 1011 l 233 1011 l 233 -292 l 127 -292 "},"ϋ":{"x_min":92.234375,"x_max":668.734375,"ha":706,"o":"m 92 720 l 214 720 l 214 293 q 251 149 214 204 q 379 84 295 84 q 471 112 429 84 q 531 187 514 141 q 547 303 547 227 l 547 720 l 668 720 l 668 298 q 597 69 668 151 q 377 -16 522 -16 q 225 20 293 -16 q 118 132 150 60 q 92 293 92 191 l 92 720 m 204 861 l 204 1000 l 331 1000 l 331 861 l 204 861 m 457 861 l 457 1000 l 584 1000 l 584 861 l 457 861 "},"й":{"x_min":67.140625,"x_max":810.46875,"ha":882,"o":"m 189 1032 q 380 857 310 971 l 505 857 l 505 749 l 423 749 q 470 535 465 642 q 293 406 344 487 q 284 752 307 636 l 157 752 l 157 860 l 265 860 q 189 1032 257 914 m 541 520 q 731 443 653 520 q 810 259 810 367 q 731 75 810 151 q 541 0 653 0 q 351 75 430 0 q 273 259 273 151 q 351 443 273 367 q 541 520 430 520 m 541 386 q 448 351 486 386 q 411 259 411 316 q 446 167 411 201 q 541 134 482 134 q 634 169 596 134 q 672 259 672 204 q 635 352 672 318 q 541 386 598 386 m 430 1012 q 480 993 459 1012 q 501 946 501 973 q 480 900 501 919 q 430 881 459 881 q 380 900 400 881 q 359 946 359 919 q 380 993 359 973 q 430 1012 400 1012 m 138 1012 q 187 993 167 1012 q 208 946 208 973 q 187 901 208 920 q 138 881 167 881 q 87 901 108 881 q 67 946 67 920 q 87 993 67 973 q 138 1012 108 1012 "},"q":{"x_min":67.828125,"x_max":423.890625,"ha":485,"o":"m 164 0 l 164 720 l 338 720 l 338 0 l 164 0 m 347 889 q 400 868 378 889 q 422 819 422 848 q 400 771 422 791 q 347 750 378 750 q 294 771 316 750 q 272 819 272 791 q 294 868 272 848 q 347 889 316 889 m 143 883 q 196 863 174 883 q 217 814 217 843 q 196 766 217 786 q 143 746 174 746 q 91 766 113 746 q 69 814 69 786 q 91 863 69 843 q 143 883 113 883 m 89 930 q 181 916 147 942 q 244 831 214 891 q 269 880 246 850 q 322 925 295 913 q 423 943 373 948 q 313 961 383 969 q 268 933 293 959 q 240 895 247 912 q 228 931 233 913 q 195 972 221 945 q 124 1005 168 999 q 67 1006 115 1006 l 89 930 "},"b":{"x_min":67.828125,"x_max":703.3125,"ha":784,"o":"m 425 1236 q 481 1161 478 1238 q 551 1051 518 1081 q 672 999 593 1020 q 703 990 703 999 q 682 982 701 983 q 457 1062 550 978 q 385 1183 387 1121 l 385 1196 q 425 1236 383 1223 m 235 987 l 265 986 l 293 987 l 346 986 l 349 988 l 362 987 l 387 988 l 400 985 l 398 959 l 402 947 l 399 931 l 401 899 l 398 896 l 401 893 l 398 827 l 401 815 l 401 677 l 398 670 l 401 667 l 398 613 l 401 598 l 396 590 l 399 578 l 400 552 l 397 550 l 400 547 q 394 512 399 512 q 354 558 364 541 q 287 630 349 558 q 232 689 236 678 l 233 870 l 236 872 l 238 872 l 233 888 l 236 891 l 233 897 l 233 933 l 231 946 l 233 961 l 233 971 l 227 980 l 227 984 l 235 987 m 144 739 l 149 739 l 246 636 l 553 328 l 553 326 l 482 260 l 474 260 l 411 319 l 412 357 l 410 415 l 414 461 q 406 472 407 461 l 400 471 l 396 466 l 396 430 l 394 417 l 397 402 l 398 381 l 396 366 l 399 359 l 397 346 l 400 318 q 399 149 404 149 l 402 135 l 402 130 l 399 127 l 402 124 l 401 20 l 398 20 l 401 18 l 401 7 l 396 3 l 391 2 l 345 4 l 340 3 l 340 1 l 315 2 l 238 0 l 233 5 l 233 7 l 236 10 l 233 12 l 233 14 l 236 78 l 233 81 l 236 137 l 233 139 l 235 170 l 233 233 l 236 236 l 233 239 l 233 269 l 233 295 q 236 373 231 359 l 233 381 l 233 427 l 231 437 l 233 440 l 233 442 l 230 444 l 230 447 q 238 465 233 465 q 315 435 270 434 q 387 483 388 459 l 382 488 l 357 470 l 315 453 l 303 453 l 302 455 l 299 453 l 297 453 q 236 493 238 472 l 239 493 l 67 663 l 67 668 l 124 721 l 144 739 "},"ύ":{"x_min":92.234375,"x_max":668.734375,"ha":707,"o":"m 92 720 l 214 720 l 214 293 q 251 149 214 204 q 379 84 295 84 q 471 112 429 84 q 531 187 514 141 q 547 303 547 227 l 547 720 l 668 720 l 668 298 q 597 69 668 151 q 377 -16 522 -16 q 225 20 293 -16 q 118 132 150 60 q 92 293 92 191 l 92 720 m 299 809 l 389 999 l 550 999 l 400 809 l 299 809 "},"ή":{"x_min":94.265625,"x_max":679.578125,"ha":709,"o":"m 94 0 l 94 720 l 204 720 l 204 617 q 433 736 283 736 q 569 705 508 736 q 660 604 637 670 q 679 442 679 548 l 679 -276 l 557 -276 l 557 438 q 528 575 557 530 q 406 630 493 630 q 216 393 216 630 l 216 0 l 94 0 m 316 809 l 406 999 l 566 999 l 417 809 l 316 809 "},"Ж":{"x_min":67.828125,"x_max":857.28125,"ha":924,"o":"m 100 992 l 236 975 q 215 800 215 867 q 217 750 215 773 q 250 645 225 695 q 321 573 281 583 l 189 517 q 74 727 95 587 q 67 815 67 771 q 100 992 67 901 m 472 636 q 557 579 481 595 q 584 633 571 606 q 602 713 602 673 q 457 891 602 891 q 356 833 404 891 q 306 703 305 773 q 333 602 307 642 q 370 561 352 581 q 203 501 259 534 q 74 314 88 435 q 68 220 68 266 q 113 -9 68 87 l 271 20 q 225 222 225 126 q 227 265 225 243 q 267 395 236 356 q 379 444 300 435 q 393 445 385 445 q 507 293 491 445 q 496 247 510 268 q 474 228 484 229 q 434 246 448 224 q 422 290 421 265 q 438 348 423 326 q 461 376 449 362 q 429 417 453 393 q 377 431 427 418 q 333 389 355 410 q 306 280 301 349 q 373 155 311 196 q 474 125 419 125 q 567 160 529 125 q 613 295 617 206 q 581 406 610 362 q 541 456 561 432 q 566 455 554 455 q 832 769 804 455 q 834 800 834 783 q 815 946 834 866 q 790 1017 798 1017 l 657 989 q 689 779 691 857 q 663 640 687 695 q 555 564 628 559 q 422 727 422 575 q 438 770 422 760 q 457 773 448 771 q 478 767 467 770 q 492 729 491 758 q 486 674 493 699 q 472 636 478 654 m 618 435 q 661 408 642 427 q 711 258 704 359 q 712 236 712 248 q 670 35 712 161 l 812 5 q 857 265 857 128 q 751 495 857 403 q 691 453 712 461 q 618 435 663 446 m 853 1098 l 67 1098 l 67 1220 l 853 1220 l 853 1098 "},"Н":{"x_min":51.546875,"x_max":832.859375,"ha":882,"o":"m 832 1018 l 832 531 q 748 379 832 455 q 468 285 641 282 q 356 293 385 286 q 256 341 312 303 l 256 481 q 356 427 299 438 q 470 423 389 421 q 610 467 558 426 q 661 571 659 507 q 666 1018 663 731 l 832 1018 m 214 1012 l 214 701 q 128 661 181 701 q 52 574 75 621 l 52 1012 l 214 1012 m 51 -1 l 51 486 q 139 639 51 561 q 423 733 249 737 q 536 725 505 731 q 636 677 579 714 l 636 537 q 507 583 588 583 q 421 581 524 583 q 222 446 229 575 q 218 -1 221 286 l 51 -1 m 664 0 l 664 306 q 758 359 691 306 q 829 448 802 392 l 829 0 l 664 0 m 824 1098 l 67 1098 l 67 1220 l 824 1220 l 824 1098 "},"ф":{"x_min":56.890625,"x_max":1064.40625,"ha":1129,"o":"m 163 771 q 204 807 156 771 q 328 872 257 847 q 553 905 430 906 q 845 786 747 903 q 927 520 927 684 q 575 131 927 126 q 331 222 419 132 q 255 398 258 296 q 252 434 255 404 q 250 476 250 460 q 377 600 250 607 q 556 464 486 595 q 773 322 631 322 q 887 382 845 322 q 931 467 908 424 l 927 559 q 890 435 910 478 q 795 354 853 356 q 671 384 728 352 q 598 467 614 416 q 524 573 578 526 q 380 630 459 627 q 207 423 207 634 q 285 204 207 303 q 636 58 398 58 q 994 229 885 58 q 1064 493 1068 344 q 946 774 1059 638 q 562 948 800 948 q 335 903 438 948 q 207 819 262 871 q 163 771 185 795 m 908 554 q 518 890 874 881 q 137 730 262 897 q 58 490 46 609 q 579 -5 107 -5 q 807 56 696 -5 q 918 133 862 95 q 766 67 812 82 q 591 37 685 40 q 386 99 491 35 q 197 496 194 216 q 344 737 199 646 q 572 807 459 809 q 739 762 658 805 q 908 554 866 695 m 1049 1098 l 71 1098 l 71 1220 l 1049 1220 l 1049 1098 "},"Ε":{"x_min":109.828125,"x_max":724.96875,"ha":815,"o":"m 110 1098 l 110 1220 l 724 1220 l 724 1098 l 110 1098 m 109 0 l 109 991 l 720 991 l 719 855 l 244 857 l 245 572 l 719 572 l 719 441 l 244 441 l 244 135 l 719 135 l 719 0 l 109 0 "},"л":{"x_min":67.828125,"x_max":951.546875,"ha":1017,"o":"m 392 495 l 487 378 q 344 194 478 378 q 206 0 219 23 q 69 87 134 44 q 235 293 152 189 q 392 495 395 493 m 516 633 l 601 529 q 740 798 740 700 q 628 955 740 896 q 507 982 578 982 q 341 918 389 982 q 289 757 289 849 q 359 563 289 656 q 654 203 447 447 q 826 0 740 101 q 883 38 855 18 q 951 87 947 85 q 460 668 647 417 q 428 750 428 710 q 451 822 428 784 q 519 857 481 857 q 575 832 548 857 q 594 746 601 807 q 516 633 591 721 m 67 1220 l 948 1220 l 948 1098 l 67 1098 l 67 1220 "},"ѱ":{"x_min":83,"x_max":907,"ha":946,"o":"m 83 720 l 204 720 l 204 364 q 214 231 204 273 q 289 126 232 163 q 433 86 341 90 l 433 720 l 556 720 l 556 86 q 768 209 728 95 q 786 364 786 261 l 786 720 l 907 720 l 907 368 q 888 182 907 241 q 775 39 860 94 q 556 -16 695 -11 l 556 -276 l 433 -276 l 433 -16 q 161 83 247 -10 q 92 216 108 139 q 83 368 83 262 l 83 720 "},"Щ":{"x_min":67.828125,"x_max":999.015625,"ha":1047,"o":"m 67 988 l 67 -8 l 834 -8 q 813 -54 815 -32 q 815 -106 813 -56 q 882 -240 817 -184 q 999 -303 932 -285 q 951 -244 975 -273 q 916 -122 918 -193 q 940 -8 914 -49 q 982 42 961 16 l 982 526 l 812 526 l 812 160 l 623 160 l 623 983 l 441 983 l 441 162 l 252 162 l 250 988 l 67 988 m 987 1098 l 67 1098 l 67 1220 l 987 1220 l 987 1098 "},"L":{"x_min":67.828125,"x_max":680.25,"ha":746,"o":"m 67 1098 l 67 1220 l 680 1220 l 680 1098 l 67 1098 m 67 0 l 67 949 l 203 949 l 203 135 l 678 135 l 678 0 l 67 0 "},"σ":{"x_min":46,"x_max":826.625,"ha":847,"o":"m 826 720 l 826 621 l 630 621 q 721 359 721 536 q 637 91 721 191 q 382 -16 547 -16 q 128 91 218 -16 q 46 360 46 192 q 129 628 46 527 q 382 737 218 737 q 497 720 433 737 l 826 720 m 380 636 q 217 547 272 636 q 171 360 171 474 q 217 171 171 243 q 382 85 272 85 q 549 171 493 85 q 597 360 597 244 q 548 551 597 478 q 380 636 492 636 "},"θ":{"x_min":62,"x_max":710,"ha":748,"o":"m 62 497 q 386 1011 62 1011 q 710 497 710 1011 q 386 -16 710 -16 q 62 497 62 -16 m 188 546 l 584 546 q 384 910 572 910 q 188 546 195 910 m 584 448 l 188 448 q 386 85 195 85 q 584 448 577 85 "}," ":{"x_min":0,"x_max":0,"ha":370},"Ο":{"x_min":66.828125,"x_max":1092.96875,"ha":1049,"o":"m 580 1022 q 944 872 795 1022 q 1092 510 1092 722 q 943 150 1092 299 q 580 1 793 1 q 221 150 370 1 q 71 510 71 299 q 219 872 71 722 q 580 1022 367 1022 m 580 882 q 319 774 426 882 q 211 512 211 666 q 319 250 211 358 q 580 142 426 142 q 842 250 734 142 q 950 512 950 358 q 843 774 950 666 q 580 882 735 882 m 66 1098 l 66 1220 l 1087 1220 l 1087 1098 l 66 1098 "},"À":{"x_min":-2.171875,"x_max":976.5,"ha":918,"o":"m 513 1221 q 590 1179 549 1221 q 608 1130 608 1145 l 608 1102 q 557 1026 598 1053 q 498 1013 528 1013 q 402 1086 433 1013 l 398 1108 q 488 1221 398 1198 l 513 1221 m 499 977 q 667 939 569 975 q 905 731 829 872 q 963 588 963 634 q 976 493 972 556 q 921 283 976 417 q 808 132 888 210 q 649 37 713 53 q 556 6 634 27 q 519 0 536 0 l 492 0 q 90 196 235 0 q -2 491 -2 328 q 94 775 -2 629 q 180 870 126 818 q 499 977 315 977 m 440 948 l 440 888 q 366 868 440 880 q 157 707 224 817 q 90 486 90 604 q 174 243 90 356 q 280 148 238 169 q 404 101 328 119 q 437 95 404 98 l 440 92 l 440 42 l 545 42 l 545 97 q 563 104 545 103 l 563 101 q 687 150 618 115 q 881 501 881 282 q 756 786 881 659 q 627 864 691 841 l 545 884 l 545 948 l 440 948 m 452 935 l 532 935 l 537 930 l 537 57 l 532 53 l 452 53 l 448 57 l 448 930 l 452 935 m 473 1056 l 374 1056 l 218 1246 l 381 1246 l 473 1056 "},"+":{"x_min":77,"x_max":734,"ha":739,"o":"m 348 161 l 348 433 l 77 433 l 77 547 l 348 547 l 348 818 l 463 818 l 463 547 l 734 547 l 734 433 l 463 433 l 463 161 l 348 161 "},"Ϊ":{"x_min":2.71875,"x_max":383.203125,"ha":357,"o":"m 137 0 l 137 810 l 319 810 l 319 0 l 137 0 m 223 1127 q 313 1091 276 1127 q 349 1003 349 1054 q 313 915 349 951 q 223 878 276 878 q 134 915 171 878 q 97 1003 97 951 q 134 1091 97 1054 q 223 1127 170 1127 m 223 1097 q 158 1070 185 1097 q 132 1007 132 1044 q 158 943 132 969 q 223 916 185 916 q 288 943 261 916 q 315 1007 315 969 q 288 1070 315 1044 q 223 1097 261 1097 m 2 1055 l 2 1194 l 130 1194 l 130 1055 l 2 1055 m 255 1055 l 255 1194 l 383 1194 l 383 1055 l 255 1055 "},"½":{"x_min":72,"x_max":1133.421875,"ha":1140,"o":"m 154 -39 l 900 1011 l 1007 1011 l 260 -39 l 154 -39 m 224 497 l 224 872 q 72 796 154 817 l 72 879 q 248 1006 177 913 l 322 1006 l 322 497 l 224 497 m 710 -21 q 743 55 714 16 q 869 170 780 107 q 999 276 967 240 q 1025 334 1025 305 q 931 408 1025 408 q 863 391 885 408 q 827 330 841 374 l 725 341 q 932 489 763 489 q 1065 460 1012 489 q 1131 351 1131 424 q 1090 243 1131 293 q 952 126 1061 205 q 871 61 894 84 l 1133 61 l 1133 -21 l 710 -21 "},"Ë":{"x_min":53,"x_max":1006.578125,"ha":1036,"o":"m 722 1242 q 635 1206 671 1242 q 600 1120 600 1170 q 635 1033 600 1069 q 722 998 671 998 q 808 1033 772 998 q 844 1120 844 1069 q 808 1206 844 1170 q 722 1242 772 1242 m 318 1242 q 232 1206 268 1242 q 196 1120 196 1170 q 232 1033 196 1069 q 318 998 268 998 q 405 1033 369 998 q 441 1120 441 1069 q 405 1206 441 1170 q 318 1242 369 1242 m 209 489 q 299 717 209 624 q 529 809 389 809 q 760 721 670 809 q 849 489 849 633 q 761 253 849 349 q 529 155 668 155 q 295 255 386 155 q 209 489 209 351 m 529 -1 q 866 144 725 -1 q 1006 489 1006 290 q 866 827 1006 687 q 529 967 727 967 q 192 827 331 967 q 53 489 53 687 q 193 144 53 290 q 529 -1 333 -1 "},"'":{"x_min":61,"x_max":200,"ha":241,"o":"m 92 642 l 61 827 l 61 994 l 200 994 l 200 827 l 167 642 l 92 642 "},"Š":{"x_min":62.828125,"x_max":1786.1875,"ha":878,"o":"m 1076 290 q 1030 396 1076 358 q 928 430 990 430 q 833 397 877 430 q 781 290 781 358 q 819 193 781 232 q 928 151 860 151 q 1035 188 994 151 q 1076 290 1076 225 m 623 290 q 714 494 623 408 q 928 581 805 581 q 1143 494 1052 581 q 1234 290 1234 408 q 1143 86 1234 173 q 928 0 1052 0 q 714 86 805 0 q 623 290 623 173 m 1076 691 q 1048 779 1076 741 q 928 830 1010 830 q 827 793 870 830 q 781 691 781 753 q 928 552 781 552 q 1076 691 1076 552 m 623 691 q 714 895 623 809 q 928 982 805 982 q 1143 895 1052 982 q 1234 691 1234 809 q 1143 487 1234 574 q 928 400 1052 400 q 714 487 805 400 q 623 691 623 574 m 1627 495 q 1600 583 1627 546 q 1480 634 1561 634 q 1379 597 1421 634 q 1333 495 1333 558 q 1480 356 1333 356 q 1627 495 1627 356 m 1174 495 q 1265 699 1174 613 q 1480 786 1356 786 q 1695 699 1604 786 q 1786 495 1786 613 q 1695 291 1786 378 q 1480 204 1604 204 q 1265 291 1356 204 q 1174 495 1174 378 m 515 494 q 488 581 515 545 q 368 633 450 633 q 267 596 310 633 q 221 494 221 556 q 368 355 221 355 q 515 494 515 355 m 62 494 q 154 698 62 611 q 368 785 245 785 q 583 698 492 785 q 674 494 674 611 q 583 290 674 377 q 368 204 492 204 q 154 290 245 204 q 62 494 62 377 m 1079 1245 q 1393 775 1354 1106 q 1234 663 1289 748 q 1210 806 1234 738 q 1079 1245 1210 1074 m 438 1125 l 512 1241 l 651 1241 l 498 1051 l 368 1051 l 222 1241 l 361 1241 l 438 1125 "},"Р":{"x_min":29.15625,"x_max":723.65625,"ha":785,"o":"m 339 370 q 314 512 326 440 q 295 682 291 650 q 343 772 302 737 q 433 803 383 807 q 558 674 559 793 q 449 536 557 575 q 339 516 396 516 l 364 384 q 459 388 412 386 q 631 455 565 402 q 723 674 723 530 q 665 856 723 781 q 404 957 582 963 q 198 868 279 953 q 126 729 136 803 q 126 708 126 720 q 149 536 126 657 q 179 370 177 391 q 189 281 188 299 q 183 149 189 257 q 121 -54 177 45 q 42 -174 81 -114 q 146 -77 94 -125 q 273 68 227 0 q 345 297 345 172 q 339 370 345 333 m 29 516 l 29 383 l 151 383 l 126 516 l 29 516 m 711 1098 l 40 1098 l 40 1220 l 711 1220 l 711 1098 "},"˛":{"x_min":124,"x_max":421,"ha":393,"o":"m 151 16 l 235 16 q 209 -95 209 -44 q 235 -168 209 -139 q 306 -198 262 -198 q 421 -166 359 -198 l 421 -247 q 272 -289 341 -289 q 164 -247 204 -289 q 124 -139 124 -206 q 151 16 124 -80 "},"щ":{"x_min":63.75,"x_max":948.15625,"ha":1017,"o":"m 948 554 q 944 510 944 541 l 943 510 l 944 508 l 944 506 q 903 377 924 406 q 704 204 832 257 l 657 188 q 583 115 630 132 l 579 115 q 516 167 554 123 l 510 174 l 510 183 l 546 212 q 569 271 569 240 q 543 302 562 302 l 539 302 q 495 246 507 302 l 494 227 l 495 225 l 495 223 l 494 221 q 537 132 494 160 q 641 96 564 96 l 663 96 q 765 126 740 111 l 788 72 l 799 37 q 722 2 799 29 l 657 -6 l 650 -4 l 639 -4 l 632 -6 q 504 27 547 3 l 465 53 l 427 90 l 404 132 q 387 185 400 132 l 390 187 l 386 221 q 400 284 393 276 q 462 371 415 334 q 533 402 486 389 q 605 388 605 397 q 639 360 628 379 q 672 301 661 341 l 681 301 l 727 327 q 736 336 727 331 q 785 384 763 358 q 851 563 851 474 l 849 573 l 851 575 q 815 704 840 663 q 763 774 797 739 q 678 836 724 816 q 638 849 678 841 q 605 904 620 889 q 580 931 605 912 q 546 950 572 942 l 546 953 q 573 961 546 959 l 591 959 l 605 961 q 729 924 684 950 q 838 841 785 897 q 900 751 885 793 q 941 628 925 714 q 946 557 946 589 l 948 556 l 948 554 m 675 296 l 674 296 l 672 286 l 675 253 q 668 220 672 220 l 668 217 l 672 212 q 686 262 682 212 q 675 296 678 296 m 636 779 q 580 657 617 691 q 495 615 531 615 l 476 615 q 392 657 429 621 q 363 701 366 683 l 361 704 l 358 704 q 266 651 316 693 q 174 422 174 562 q 212 278 174 358 q 302 194 257 219 q 361 163 331 173 l 379 163 l 385 159 l 381 153 q 436 65 393 105 l 438 64 l 438 56 q 419 51 438 51 q 221 112 320 51 q 122 214 162 160 q 103 249 117 219 q 81 302 94 261 l 83 308 q 65 401 73 321 l 67 401 l 65 402 l 65 421 l 63 434 q 94 570 72 522 q 143 654 126 634 l 167 686 q 253 759 202 723 q 325 794 253 765 q 352 802 333 798 q 381 864 357 836 q 403 881 396 878 l 406 881 q 494 830 442 881 q 480 812 494 817 l 465 786 q 459 754 459 769 q 491 721 464 721 l 493 721 q 524 765 524 731 l 524 786 q 444 881 497 856 q 394 895 421 895 l 392 894 l 383 895 l 376 895 l 368 894 l 367 895 l 364 895 l 358 894 l 356 895 l 354 895 q 279 876 326 891 l 275 872 l 265 872 q 238 944 261 873 l 230 971 q 383 1001 316 1001 l 394 1001 q 501 971 463 992 q 585 907 522 966 q 636 779 636 838 m 356 727 l 358 727 l 350 765 l 352 765 l 350 767 l 352 788 l 352 793 l 349 793 l 349 794 q 336 779 336 790 q 349 709 336 747 q 360 714 358 709 l 356 727 m 91 1139 l 914 1139 l 914 1234 l 93 1234 l 91 1139 "},"ð":{"x_min":49,"x_max":716,"ha":754,"o":"m 208 994 l 355 994 q 440 925 404 957 l 585 994 l 615 925 l 499 868 q 716 353 716 619 q 629 91 716 193 q 381 -17 539 -17 q 112 114 208 -17 q 49 350 49 199 q 122 606 49 506 q 355 720 205 720 q 499 680 424 720 q 403 824 460 760 l 216 738 l 186 808 l 348 882 q 208 994 282 943 m 589 358 q 539 542 589 468 q 377 626 482 626 q 216 535 269 626 q 174 347 174 462 q 220 165 174 236 q 381 83 275 83 q 542 172 486 83 q 589 358 589 246 "},"Φ":{"x_min":57,"x_max":1050,"ha":1071,"o":"m 487 1024 l 619 1024 l 619 901 q 922 794 807 889 q 1050 507 1050 688 q 924 215 1050 323 q 619 109 808 115 l 619 -36 l 487 -36 l 487 109 q 184 214 302 115 q 57 501 57 322 q 251 842 57 735 q 487 901 344 894 l 487 1024 m 487 787 q 273 712 348 783 q 194 502 194 639 q 275 295 194 371 q 487 221 354 223 l 487 787 m 619 221 q 833 295 755 225 q 916 504 916 370 q 834 714 916 639 q 619 787 755 787 l 619 221 "},"ş":{"x_min":43.109375,"x_max":464.28125,"ha":671,"o":"m 46 -212 l 77 -113 q 195 -46 131 -52 q 332 -34 299 -52 q 372 30 372 -12 q 346 78 372 61 q 255 107 328 89 q 149 138 174 128 q 62 201 85 162 q 43 271 43 233 q 102 386 43 342 q 236 423 153 423 q 414 357 365 423 q 442 312 436 326 l 370 281 q 242 349 345 349 q 129 282 129 349 q 174 227 129 244 q 252 204 186 222 q 356 174 340 181 q 443 115 418 151 q 464 40 464 85 q 363 -103 464 -60 q 252 -125 315 -125 q 46 -212 125 -113 m 230 -90 l 266 30 l 356 30 l 334 -42 q 413 -71 381 -48 q 451 -142 451 -99 q 382 -244 451 -210 q 254 -272 328 -272 q 157 -263 199 -272 l 164 -184 q 228 -187 208 -187 q 338 -135 338 -187 q 301 -97 338 -109 q 230 -90 280 -91 "},"ı":{"x_min":134,"x_max":257,"ha":321,"o":"m 134 0 l 134 720 l 257 720 l 257 0 l 134 0 "},"Ć":{"x_min":69.171875,"x_max":854.5625,"ha":935,"o":"m 847 73 l 739 0 q 689 63 727 9 q 583 212 606 169 l 581 212 l 581 141 l 576 137 l 497 137 l 497 45 l 493 40 l 420 40 l 416 45 l 416 137 l 330 137 l 326 141 l 326 210 l 163 5 l 69 100 l 69 104 q 368 480 235 307 l 372 480 q 444 370 378 477 l 444 366 q 387 288 444 357 q 333 221 362 250 l 416 221 l 416 315 l 420 320 l 495 320 l 499 315 l 499 219 l 576 219 q 499 324 556 236 q 387 482 446 389 q 330 563 330 554 q 290 644 306 594 q 278 733 278 707 l 278 741 q 297 851 284 820 q 315 884 301 851 q 409 961 365 950 q 464 976 438 976 l 475 976 q 673 750 622 976 l 677 713 l 677 687 q 671 658 671 677 q 660 614 662 642 q 596 513 629 537 q 559 491 570 491 l 556 491 q 464 614 493 581 q 475 618 464 618 q 519 673 492 618 l 524 704 l 524 735 q 478 820 524 801 l 475 820 q 418 728 436 820 q 537 504 418 647 l 809 130 q 847 73 847 83 m 758 1220 l 758 1220 q 845 1167 813 1220 l 854 1127 q 836 1068 854 1103 q 806 1038 818 1045 q 784 1020 806 1033 q 746 1003 751 1003 l 742 1003 q 725 1056 731 1015 q 787 1125 801 1090 q 755 1157 802 1162 q 690 1117 720 1150 l 664 1144 q 643 1169 659 1144 q 758 1220 700 1220 m 451 1055 l 541 1245 l 701 1245 l 552 1055 l 451 1055 "},"Т":{"x_min":67.828125,"x_max":790.8125,"ha":856,"o":"m 790 491 l 790 982 l 67 982 l 67 491 l 199 491 l 199 841 l 366 841 l 366 0 l 501 0 l 503 841 l 659 841 l 659 491 l 790 491 m 783 1098 l 67 1098 l 67 1222 l 783 1222 l 783 1098 "},"¹":{"x_min":72,"x_max":322,"ha":366,"o":"m 224 497 l 224 872 q 72 796 154 817 l 72 879 q 248 1006 177 913 l 322 1006 l 322 497 l 224 497 "},"W":{"x_min":67.140625,"x_max":606.484375,"ha":678,"o":"m 122 391 q 103 350 107 362 q 78 211 78 282 q 118 65 78 125 q 227 0 159 4 q 316 18 292 -2 q 298 33 316 17 q 282 46 290 40 q 260 78 274 58 q 252 73 256 75 q 237 71 245 69 q 191 101 212 77 q 155 218 156 141 q 185 332 154 260 q 218 396 213 396 l 184 413 l 122 391 m 562 434 q 577 468 574 458 q 603 607 603 536 q 563 753 603 693 q 454 819 522 815 q 364 800 389 822 q 383 786 365 801 q 399 773 391 779 q 421 741 407 760 q 430 746 425 744 q 444 747 436 749 q 490 718 469 741 q 526 600 524 678 q 495 486 526 559 q 463 422 467 422 l 491 409 l 562 434 m 562 434 l 562 434 q 573 410 562 436 q 594 348 585 380 q 606 259 605 303 q 562 93 609 169 q 413 4 506 3 q 304 48 349 4 q 250 132 269 80 q 237 191 236 172 q 260 278 240 244 q 341 324 287 324 q 423 282 394 324 q 450 192 448 246 q 436 127 451 152 q 403 92 427 111 q 366 106 373 100 q 343 128 357 113 q 384 193 384 160 q 376 235 384 216 q 346 260 365 260 q 302 190 306 260 q 326 122 300 158 q 411 79 358 79 q 497 149 462 79 q 524 255 524 205 q 501 361 523 306 q 479 404 482 404 l 491 409 l 526 422 q 562 434 552 415 m 122 391 l 120 390 q 108 414 120 388 q 88 476 96 444 q 75 565 76 521 q 119 731 73 655 q 269 820 174 821 q 377 776 333 819 q 431 691 411 743 q 444 632 446 652 q 421 546 442 580 q 341 500 394 500 q 259 542 288 500 q 231 632 233 578 q 245 697 231 672 q 278 732 255 713 q 316 718 309 724 q 339 695 324 710 q 297 631 297 664 q 306 589 297 608 q 336 564 316 564 q 379 634 375 564 q 355 701 381 666 q 271 745 322 745 q 185 676 219 745 q 158 569 157 619 q 181 463 158 518 q 202 419 199 419 l 184 413 l 166 400 q 122 391 130 408 m 552 1256 q 563 1232 552 1258 q 583 1170 575 1202 q 596 1081 595 1125 q 552 915 598 991 q 402 826 497 825 q 294 870 339 826 q 240 954 260 902 q 227 1013 225 994 q 250 1100 229 1066 q 330 1146 278 1146 q 413 1104 383 1146 q 440 1014 438 1068 q 426 949 440 974 q 393 914 417 933 q 356 928 362 922 q 333 950 347 935 q 374 1015 374 982 q 366 1057 374 1039 q 336 1082 355 1082 q 292 1012 296 1082 q 316 944 290 980 q 400 901 349 901 q 486 971 453 901 q 514 1077 514 1028 q 491 1183 513 1128 q 469 1227 472 1227 l 552 1256 m 306 846 q 287 861 305 845 q 271 874 280 867 q 249 906 263 886 q 241 901 245 903 q 226 899 234 897 q 181 928 201 904 q 144 1045 145 968 q 174 1160 143 1087 q 207 1224 202 1224 l 132 1260 q 92 1178 99 1197 q 67 1039 67 1110 q 107 893 67 952 q 216 828 148 831 q 306 846 281 824 "},"λ":{"x_min":16,"x_max":676.59375,"ha":691,"o":"m 346 540 l 144 0 l 16 0 l 283 708 l 176 994 l 304 994 l 676 0 l 548 0 l 346 540 "},"а":{"x_min":69.171875,"x_max":691.109375,"ha":774,"o":"m 99 984 q 281 817 215 925 l 400 817 l 400 714 l 322 714 q 366 510 363 611 q 198 387 247 464 q 190 716 212 605 l 69 716 l 69 819 l 172 819 q 99 984 164 870 m 435 495 q 616 422 541 495 q 691 247 691 349 q 616 72 691 145 q 435 0 541 0 q 254 72 328 0 q 179 247 179 145 q 254 422 179 349 q 435 495 328 495 m 435 368 q 346 334 382 368 q 311 247 311 301 q 344 160 311 191 q 435 128 378 128 q 522 161 486 128 q 558 247 558 193 q 524 336 558 303 q 435 368 489 368 m 595 1098 l 595 1098 q 682 1045 649 1098 l 691 1005 q 672 946 691 981 q 642 916 655 923 q 621 898 642 911 q 583 881 588 881 l 579 881 q 544 925 567 893 q 623 1005 623 963 q 583 1030 626 1030 q 514 1000 542 1030 l 486 1030 q 474 1061 495 1022 q 595 1098 537 1098 "},"Ğ":{"x_min":74,"x_max":994,"ha":1008,"o":"m 573 390 l 573 507 l 994 507 l 994 138 q 582 -17 799 -17 q 322 42 437 -17 q 135 227 197 106 q 74 492 74 345 q 130 754 74 635 q 309 949 193 887 q 571 1011 423 1011 q 903 878 798 1011 q 978 716 952 816 l 860 683 q 709 872 818 826 q 572 898 647 898 q 311 798 400 898 q 210 500 210 686 q 389 145 210 234 q 574 102 476 102 q 728 129 648 102 q 865 205 812 158 l 865 390 l 573 390 m 706 1231 l 789 1231 q 589 1055 768 1055 q 389 1231 410 1055 l 472 1231 q 585 1139 491 1139 q 706 1231 688 1139 "},"v":{"x_min":67.828125,"x_max":889.828125,"ha":950,"o":"m 68 200 l 889 200 l 889 -134 l 708 -135 l 708 32 l 248 32 l 246 -135 l 67 -135 l 68 200 m 882 1089 l 68 1089 l 68 1221 l 882 1221 l 882 1089 "},">":{"x_min":76,"x_max":734.546875,"ha":741,"o":"m 734 434 l 76 153 l 76 274 l 596 490 l 76 705 l 76 827 l 734 548 l 734 434 "},"τ":{"x_min":31,"x_max":516.609375,"ha":530,"o":"m 343 621 l 343 0 l 220 0 l 220 621 l 31 621 l 31 720 l 516 720 l 516 621 l 343 621 "},"Ї":{"x_min":67.671875,"x_max":319.96875,"ha":407,"o":"m 107 0 l 107 810 l 289 810 l 289 0 l 107 0 m 193 1127 q 283 1091 246 1127 q 319 1003 319 1054 q 283 915 319 951 q 193 878 246 878 q 104 915 141 878 q 67 1003 67 951 q 104 1091 67 1054 q 193 1127 140 1127 m 193 1097 q 128 1070 155 1097 q 102 1007 102 1044 q 128 943 102 969 q 193 916 155 916 q 258 943 231 916 q 285 1007 285 969 q 258 1070 285 1044 q 193 1097 231 1097 "},"Ð":{"x_min":-1,"x_max":930,"ha":966,"o":"m 108 0 l 108 452 l -1 452 l -1 542 l 108 542 l 108 994 l 451 994 q 627 979 565 994 q 891 739 816 935 q 930 502 930 635 q 894 272 930 379 q 766 82 850 143 q 611 11 699 32 q 466 0 563 0 l 108 0 m 240 117 l 451 117 q 694 186 625 117 q 794 503 794 285 q 699 802 794 708 q 583 866 651 850 q 448 877 538 877 l 240 877 l 240 542 l 513 542 l 513 452 l 240 452 l 240 117 "},"Λ":{"x_min":8,"x_max":917.5,"ha":930,"o":"m 532 994 l 917 0 l 774 0 l 516 721 q 464 885 482 815 q 411 721 442 804 l 142 0 l 8 0 l 396 994 l 532 994 "},"ˉ":{"x_min":20,"x_max":443,"ha":486,"o":"m 20 832 l 20 933 l 443 933 l 443 832 l 20 832 "},"Х":{"x_min":54.9375,"x_max":739.9375,"ha":790,"o":"m 162 4 q 54 75 105 40 q 175 202 115 139 q 290 328 293 327 l 374 236 q 266 123 367 236 q 162 4 171 18 m 493 364 l 415 413 l 476 347 q 739 77 689 122 q 676 37 735 75 q 620 4 648 21 q 254 382 620 4 q 199 499 199 438 q 270 635 199 569 l 327 579 l 328 602 l 290 641 q 132 812 215 718 q 63 893 99 853 q 128 933 68 894 q 183 966 155 950 q 482 628 333 797 q 552 475 558 539 q 542 418 550 431 q 493 364 534 400 m 435 498 l 431 508 l 422 520 l 407 536 q 389 537 397 537 q 336 487 336 537 q 337 467 336 478 q 381 441 358 441 q 435 484 413 441 q 436 491 436 489 l 436 491 q 435 498 436 493 m 481 653 l 394 739 q 502 849 401 739 q 607 965 598 952 q 718 897 665 931 q 597 774 658 836 q 481 653 478 654 m 720 1098 l 67 1098 l 67 1220 l 720 1220 l 720 1098 "},"Υ":{"x_min":20.34375,"x_max":817.9375,"ha":903,"o":"m 326 199 l 326 -3 l 511 -3 l 511 199 l 326 199 m 511 335 l 511 851 l 657 851 l 657 492 l 817 492 l 817 1018 l 20 1018 l 20 492 l 180 492 l 180 851 l 326 851 l 326 335 l 511 335 m 210 200 l 206 200 l 209 335 l 326 335 l 326 332 l 511 332 l 511 335 l 630 335 l 634 200 l 620 200 l 620 199 l 511 199 l 511 200 l 326 200 l 326 199 l 210 199 l 210 200 "},"r":{"x_min":67.828125,"x_max":805.734375,"ha":882,"o":"m 71 1007 l 801 1007 l 805 1003 l 805 4 l 801 0 l 741 0 l 737 4 l 737 502 q 723 568 733 507 q 716 596 720 568 q 668 685 685 668 l 640 723 l 640 857 l 229 857 l 229 723 q 189 659 229 718 q 149 550 172 638 l 143 512 l 143 6 l 139 2 l 71 2 l 67 6 l 67 1003 l 71 1007 m 419 793 q 638 691 545 793 q 689 606 664 670 q 716 496 716 545 l 718 472 l 718 438 q 676 318 718 394 q 623 241 666 284 q 584 207 607 217 q 492 167 528 167 q 476 163 492 163 q 317 211 352 163 l 317 381 l 318 382 l 318 384 q 362 341 322 384 q 446 313 409 313 q 522 347 499 323 q 568 470 568 399 l 568 474 q 494 632 568 588 q 436 653 463 653 q 366 628 400 650 q 299 454 299 558 l 299 6 l 295 2 l 167 2 l 163 6 l 163 510 q 215 670 167 588 q 419 793 288 793 m 710 364 l 714 364 l 714 4 l 710 0 l 580 0 l 576 4 l 576 183 l 618 213 q 687 313 668 259 q 710 364 699 333 "},"ж":{"x_min":74.609375,"x_max":925.09375,"ha":950,"o":"m 108 960 l 247 944 q 224 771 224 836 q 227 720 224 744 q 250 613 240 638 q 334 546 273 562 l 199 491 q 80 698 103 559 q 74 784 74 742 q 108 960 74 870 m 488 608 q 575 552 497 567 q 602 605 588 579 q 620 685 620 644 q 472 859 620 859 q 368 803 418 859 q 318 674 317 744 q 346 575 320 614 q 383 535 364 554 q 212 474 269 507 q 80 290 95 409 q 74 197 74 242 q 120 -30 74 65 l 282 0 q 235 199 235 105 q 237 242 235 220 q 279 371 246 332 q 392 418 311 410 q 524 268 506 431 q 513 225 526 244 q 489 205 501 206 q 450 221 464 202 q 436 266 435 241 q 453 324 438 303 q 476 352 465 338 q 444 392 469 367 q 390 405 442 392 q 345 364 368 384 q 318 256 313 324 q 387 132 324 174 q 489 103 433 103 q 585 138 546 103 q 632 271 637 183 q 600 381 628 337 q 558 430 579 405 q 787 522 708 423 q 857 770 857 611 q 838 914 857 835 q 813 985 822 985 l 678 956 q 710 749 711 826 q 573 537 704 528 q 436 698 436 547 q 454 741 436 731 q 472 744 463 742 q 494 738 483 741 q 509 699 507 729 q 488 608 510 679 m 638 410 q 681 375 662 396 q 732 234 726 322 q 691 14 739 153 l 836 -14 q 881 242 881 106 q 773 469 881 378 q 712 427 733 436 q 638 410 683 421 m 829 1234 l 829 1234 q 916 1180 883 1234 l 925 1141 q 906 1082 925 1117 q 876 1051 889 1058 q 855 1034 876 1047 q 817 1017 822 1017 l 813 1017 q 778 1061 801 1029 q 857 1141 857 1098 q 817 1166 859 1166 q 748 1136 776 1166 l 720 1166 q 708 1197 729 1158 q 829 1234 771 1234 "},"Č":{"x_min":69.171875,"x_max":854.5625,"ha":935,"o":"m 847 73 l 739 0 q 689 63 727 9 q 583 212 606 169 l 581 212 l 581 141 l 576 137 l 497 137 l 497 45 l 493 40 l 420 40 l 416 45 l 416 137 l 330 137 l 326 141 l 326 210 l 163 5 l 69 100 l 69 104 q 368 480 235 307 l 372 480 q 444 370 378 477 l 444 366 q 387 288 444 357 q 333 221 362 250 l 416 221 l 416 315 l 420 320 l 495 320 l 499 315 l 499 219 l 576 219 q 499 324 556 236 q 387 482 446 389 q 330 563 330 554 q 290 644 306 594 q 278 733 278 707 l 278 741 q 297 851 284 820 q 315 884 301 851 q 409 961 365 950 q 464 976 438 976 l 475 976 q 673 750 622 976 l 677 713 l 677 687 q 671 658 671 677 q 660 614 662 642 q 596 513 629 537 q 559 491 570 491 l 556 491 q 464 614 493 581 q 475 618 464 618 q 519 673 492 618 l 524 704 l 524 735 q 478 820 524 801 l 475 820 q 418 728 436 820 q 537 504 418 647 l 809 130 q 847 73 847 83 m 758 1220 l 758 1220 q 845 1167 813 1220 l 854 1127 q 836 1068 854 1103 q 806 1038 818 1045 q 784 1020 806 1033 q 746 1003 751 1003 l 742 1003 q 725 1056 731 1015 q 787 1125 801 1090 q 755 1157 802 1162 q 690 1117 720 1150 l 664 1144 q 643 1169 659 1144 q 758 1220 700 1220 m 537 1125 l 611 1241 l 750 1241 l 597 1051 l 467 1051 l 321 1241 l 460 1241 l 537 1125 "},"x":{"x_min":67.546875,"x_max":1085.15625,"ha":1153,"o":"m 1085 506 l 1084 1013 l 339 1013 l 339 923 l 434 881 l 478 866 l 647 868 l 647 0 l 786 0 l 788 868 l 949 868 l 949 506 l 1085 506 m 472 624 q 458 556 470 575 q 428 518 444 533 q 363 537 383 536 q 330 511 327 539 q 363 485 333 487 q 372 486 367 485 q 440 508 423 495 q 487 619 472 535 q 489 634 488 626 q 425 747 492 696 q 275 831 394 771 q 140 932 204 868 q 67 1068 63 1010 q 120 1024 67 1062 q 309 931 196 971 q 528 816 462 875 q 627 612 610 742 q 629 569 630 590 q 501 394 623 455 q 354 354 413 349 q 248 413 297 359 q 202 524 198 467 q 256 622 204 582 q 365 657 307 661 q 472 624 444 651 m 626 493 q 570 408 612 446 q 518 379 557 396 q 468 358 493 368 q 468 339 469 346 q 293 164 465 269 q 149 66 180 94 q 105 18 127 42 q 73 -35 79 -8 q 69 -67 71 -52 q 291 44 110 -1 q 564 211 477 92 q 630 407 625 297 q 626 493 633 455 "},"Ѳ":{"x_min":65,"x_max":1016,"ha":1047,"o":"m 65 484 q 185 858 65 714 q 541 1012 315 1012 q 891 861 760 1012 q 1016 495 1016 718 q 890 132 1016 274 q 540 -17 758 -17 q 286 52 400 -17 q 115 250 168 124 q 65 484 65 368 m 201 482 q 286 211 201 317 q 539 96 379 96 q 797 216 705 96 q 880 496 880 325 q 798 776 880 667 q 541 899 707 899 q 278 774 367 899 q 201 482 201 665 m 344 439 l 344 555 l 737 555 l 737 439 l 344 439 "},"с":{"x_min":51.546875,"x_max":573.78125,"ha":610,"o":"m 51 394 q 172 715 51 571 q 493 910 296 864 l 531 918 l 484 890 q 284 675 362 815 q 207 389 207 535 q 299 85 207 227 q 535 -123 389 -52 l 573 -141 l 559 -140 q 192 45 339 -115 q 51 394 51 200 m 550 1098 l 67 1098 l 67 1220 l 550 1220 l 550 1098 "},"÷":{"x_min":53,"x_max":709,"ha":705,"o":"m 311 625 l 311 764 l 450 764 l 450 625 l 311 625 m 709 433 l 53 433 l 53 547 l 709 547 l 709 433 m 311 216 l 311 355 l 450 355 l 450 216 l 311 216 "},"h":{"x_min":54.265625,"x_max":881.6875,"ha":950,"o":"m 881 720 l 542 720 l 542 1017 l 396 1017 l 396 719 l 54 719 l 54 0 l 203 0 l 203 575 l 394 574 l 394 307 l 542 307 l 542 574 l 725 574 l 725 1 l 881 0 l 881 720 "},".":{"x_min":135.640625,"x_max":386.59375,"ha":445,"o":"m 135 125 q 172 213 135 177 q 260 250 208 250 q 349 213 313 250 q 386 125 386 177 q 349 36 386 73 q 260 0 313 0 q 172 36 208 0 q 135 125 135 73 "},"f":{"x_min":65.78125,"x_max":1763.375,"ha":1831,"o":"m 1612 451 q 1586 534 1612 499 q 1472 583 1549 583 q 1376 548 1416 583 q 1332 451 1332 510 q 1472 318 1332 318 q 1612 451 1612 318 m 1182 451 q 1268 644 1182 562 q 1472 727 1355 727 q 1676 644 1589 727 q 1763 451 1763 562 q 1676 257 1763 339 q 1472 174 1589 174 q 1268 257 1355 174 q 1182 451 1182 339 m 518 387 q 491 474 518 438 q 371 526 453 526 q 270 489 313 526 q 224 387 224 449 q 371 248 224 248 q 518 387 518 248 m 65 387 q 157 591 65 504 q 371 678 248 678 q 586 591 495 678 q 677 387 677 504 q 586 183 677 269 q 371 96 495 96 q 157 183 248 96 q 65 387 65 269 m 617 0 q 689 248 689 56 q 660 483 689 349 q 630 732 630 617 q 708 921 630 841 q 894 1002 786 1002 q 1062 958 987 1002 q 1195 700 1190 882 q 1125 490 1198 567 q 994 415 1075 437 q 944 404 954 404 q 830 453 878 408 l 807 642 q 929 550 867 550 q 1053 700 1053 550 q 1000 823 1053 776 q 907 862 956 862 q 822 819 865 862 q 775 717 777 773 q 792 533 773 679 q 810 336 811 383 q 617 0 807 115 m 1195 552 q 1220 581 1195 544 l 1195 552 l 1195 988 l 992 988 l 992 1123 l 1331 1123 l 1332 695 q 1186 533 1227 649 l 1195 552 "},"“":{"x_min":56,"x_max":408,"ha":447,"o":"m 187 828 l 187 686 l 56 686 l 56 797 q 77 929 56 887 q 167 1011 106 983 l 197 963 q 123 828 126 934 l 187 828 m 397 828 l 397 686 l 266 686 l 266 797 q 287 929 266 887 q 378 1011 316 983 l 408 963 q 333 828 336 934 l 397 828 "},"A":{"x_min":67.828125,"x_max":1046.5,"ha":1117,"o":"m 583 1221 q 660 1179 619 1221 q 678 1130 678 1145 l 678 1102 q 627 1026 668 1053 q 568 1013 598 1013 q 472 1086 503 1013 l 468 1108 q 558 1221 468 1198 l 583 1221 m 569 977 q 737 939 639 975 q 975 731 899 872 q 1033 588 1033 634 q 1046 493 1042 556 q 991 283 1046 417 q 878 132 958 210 q 719 37 783 53 q 626 6 704 27 q 589 0 606 0 l 562 0 q 160 196 305 0 q 67 491 67 328 q 164 775 67 629 q 250 870 196 818 q 569 977 385 977 m 510 948 l 510 888 q 436 868 510 880 q 227 707 294 817 q 160 486 160 604 q 244 243 160 356 q 350 148 308 169 q 474 101 398 119 q 507 95 474 98 l 510 92 l 510 42 l 615 42 l 615 97 q 633 104 615 103 l 633 101 q 757 150 688 115 q 951 501 951 282 q 826 786 951 659 q 697 864 761 841 l 615 884 l 615 948 l 510 948 m 522 935 l 602 935 l 607 930 l 607 57 l 602 53 l 522 53 l 518 57 l 518 930 l 522 935 "},"‘":{"x_min":87,"x_max":228.75,"ha":267,"o":"m 218 828 l 218 686 l 87 686 l 87 797 q 108 929 87 887 q 198 1011 137 983 l 228 963 q 154 828 157 934 l 218 828 "},"O":{"x_min":67.828125,"x_max":1093.96875,"ha":1153,"o":"m 581 1022 q 945 872 796 1022 q 1093 510 1093 722 q 944 150 1093 299 q 581 1 794 1 q 222 150 371 1 q 72 510 72 299 q 220 872 72 722 q 581 1022 368 1022 m 581 882 q 320 774 427 882 q 212 512 212 666 q 320 250 212 358 q 581 142 427 142 q 843 250 735 142 q 951 512 951 358 q 844 774 951 666 q 581 882 736 882 m 67 1098 l 67 1220 l 1088 1220 l 1088 1098 l 67 1098 "}}}
